M48
;DRILL file {KiCad (2017-04-18 revision 68a7a52)-master} date Fri Dec 22 10:15:41 2017
;FORMAT={-:-/ absolute / metric / decimal}
FMAT,2
METRIC,TZ
T1C0.150
T2C0.200
T3C0.500
%
G90
G05
M71
T1
X1.411Y-3.026
X1.425Y-1.575
X1.725Y-2.
X1.725Y-2.6
X1.775Y-0.775
X2.375Y-4.175
X2.5Y-6.925
X3.125Y-0.7
X3.175Y-5.3
X3.325Y-1.35
X3.325Y-1.75
X3.325Y-2.15
X3.325Y-2.55
X3.525Y-3.15
X3.55Y-7.325
X3.725Y-1.75
X3.875Y-3.15
X4.025Y-1.25
X4.025Y-2.05
X4.025Y-2.65
X4.05Y-4.05
X4.075Y-7.6
X4.2Y-3.15
T2
X2.4Y-7.6
T3
X0.Y-0.65
X0.Y-1.65
X0.Y-2.65
X0.Y-3.65
X0.Y-4.65
X0.Y-5.65
X0.Y-6.65
X0.Y-7.65
X5.5Y-0.65
X5.5Y-1.65
X5.5Y-2.65
X5.5Y-3.65
X5.5Y-4.65
X5.5Y-5.65
X5.5Y-6.65
X5.5Y-7.65
T0
M30
