G04 #@! TF.GenerationSoftware,KiCad,Pcbnew,(2017-04-18 revision 68a7a52)-master*
G04 #@! TF.CreationDate,2017-12-22T10:09:43+08:00*
G04 #@! TF.ProjectId,cdctl_bx,636463746C5F62782E6B696361645F70,rev?*
G04 #@! TF.FileFunction,Copper,L3,Inr,Signal*
G04 #@! TF.FilePolarity,Positive*
%FSLAX46Y46*%
G04 Gerber Fmt 4.6, Leading zero omitted, Abs format (unit mm)*
G04 Created by KiCad (PCBNEW (2017-04-18 revision 68a7a52)-master) date Fri Dec 22 10:09:43 2017*
%MOMM*%
%LPD*%
G01*
G04 APERTURE LIST*
%ADD10C,0.100000*%
%ADD11O,0.900000X0.700000*%
%ADD12C,0.350000*%
%ADD13C,0.230000*%
%ADD14C,0.400000*%
%ADD15C,0.200000*%
G04 APERTURE END LIST*
D10*
D11*
X0Y-7650000D03*
X0Y-6650000D03*
X0Y-5650000D03*
X0Y-4650000D03*
X0Y-3650000D03*
X0Y-2650000D03*
X0Y-1650000D03*
X0Y-650000D03*
X5500000Y-7650000D03*
X5500000Y-6650000D03*
X5500000Y-5650000D03*
X5500000Y-4650000D03*
X5500000Y-3650000D03*
X5500000Y-2650000D03*
X5500000Y-1650000D03*
X5500000Y-650000D03*
D12*
X4075000Y-7600000D03*
X1725000Y-2000000D03*
D13*
X3325000Y-1350000D03*
X3325000Y-2550000D03*
D12*
X1411000Y-3025593D03*
X3550000Y-7325000D03*
X2375000Y-4175000D03*
X1775000Y-775000D03*
X4050000Y-4050000D03*
X3175000Y-5300000D03*
X1425000Y-1575000D03*
D13*
X3725000Y-1750000D03*
X3325000Y-1750000D03*
D14*
X2400000Y-7600000D03*
D12*
X2500000Y-6925000D03*
X1725000Y-2600000D03*
D13*
X3325000Y-2150000D03*
X3525000Y-3150000D03*
X3875000Y-3150000D03*
X4200000Y-3150000D03*
X4025000Y-2650000D03*
X4025000Y-1250000D03*
D12*
X3125000Y-700000D03*
D13*
X4025000Y-2050000D03*
D15*
X3325000Y-1350000D02*
X2375000Y-1350000D01*
X2375000Y-1350000D02*
X1725000Y-2000000D01*
X3325000Y-2150000D02*
X2175000Y-2150000D01*
X2175000Y-2150000D02*
X1725000Y-2600000D01*
D10*
X3525000Y-2987366D02*
X3612379Y-2899987D01*
X4475000Y-5725000D02*
X5400000Y-6650000D01*
X3525000Y-3150000D02*
X3525000Y-2987366D01*
X3612379Y-2899987D02*
X3970001Y-2899987D01*
X3970001Y-2899987D02*
X3970014Y-2900000D01*
X4475000Y-3054996D02*
X4475000Y-5725000D01*
X3970014Y-2900000D02*
X4320004Y-2900000D01*
X4320004Y-2900000D02*
X4475000Y-3054996D01*
X5400000Y-6650000D02*
X5500000Y-6650000D01*
X4200000Y-3150000D02*
X4200000Y-3312634D01*
X4200000Y-3312634D02*
X3012634Y-4500000D01*
X3012634Y-4500000D02*
X950000Y-4500000D01*
X950000Y-4500000D02*
X100000Y-3650000D01*
X100000Y-3650000D02*
X0Y-3650000D01*
X4025000Y-1250000D02*
X4660010Y-1885010D01*
X4660010Y-1885010D02*
X4660010Y-3935010D01*
X4660010Y-3935010D02*
X5375000Y-4650000D01*
X5375000Y-4650000D02*
X5500000Y-4650000D01*
X4215000Y-3665330D02*
X4215000Y-3665330D01*
X4215000Y-3760330D02*
X4120000Y-3760330D01*
X4215000Y-3855330D02*
X4025000Y-3855330D01*
X4215000Y-3950330D02*
X3930000Y-3950330D01*
X4215000Y-4045330D02*
X3835000Y-4045330D01*
X4215000Y-4140330D02*
X3740000Y-4140330D01*
X4215000Y-4235330D02*
X3645000Y-4235330D01*
X4215000Y-4330330D02*
X3550000Y-4330330D01*
X4215000Y-4425330D02*
X3455000Y-4425330D01*
X4215000Y-4520330D02*
X3360000Y-4520330D01*
X697635Y-4615330D02*
X659669Y-4615330D01*
X4215000Y-4615330D02*
X3265000Y-4615330D01*
X798103Y-4710330D02*
X657249Y-4710330D01*
X4215000Y-4710330D02*
X3164154Y-4710330D01*
X4215000Y-4805330D02*
X638528Y-4805330D01*
X4215000Y-4900330D02*
X601419Y-4900330D01*
X4215000Y-4995330D02*
X540830Y-4995330D01*
X4215000Y-5090330D02*
X445101Y-5090330D01*
X4215000Y-5185330D02*
X414835Y-5185330D01*
X4215000Y-5280330D02*
X521100Y-5280330D01*
X4215000Y-5375330D02*
X588493Y-5375330D01*
X4215000Y-5470330D02*
X631278Y-5470330D01*
X4215000Y-5565330D02*
X655119Y-5565330D01*
X4215000Y-5660330D02*
X662504Y-5660330D01*
X4217906Y-5755330D02*
X652519Y-5755330D01*
X4248509Y-5850330D02*
X624599Y-5850330D01*
X4327634Y-5945330D02*
X577088Y-5945330D01*
X4422634Y-6040330D02*
X503603Y-6040330D01*
X4517634Y-6135330D02*
X377557Y-6135330D01*
X4612634Y-6230330D02*
X470098Y-6230330D01*
X4707634Y-6325330D02*
X557281Y-6325330D01*
X4802634Y-6420330D02*
X612018Y-6420330D01*
X4855076Y-6515330D02*
X644523Y-6515330D01*
X2277721Y-6610330D02*
X659214Y-6610330D01*
X4840580Y-6610330D02*
X2722005Y-6610330D01*
X2183789Y-6705330D02*
X657774Y-6705330D01*
X4842211Y-6705330D02*
X2816301Y-6705330D01*
X2134544Y-6800330D02*
X640076Y-6800330D01*
X4860086Y-6800330D02*
X2865054Y-6800330D01*
X2115361Y-6895330D02*
X604122Y-6895330D01*
X4896169Y-6895330D02*
X2884904Y-6895330D01*
X2120542Y-6990330D02*
X544967Y-6990330D01*
X4955310Y-6990330D02*
X2879985Y-6990330D01*
X2149383Y-7085330D02*
X451231Y-7085330D01*
X5048565Y-7085330D02*
X2850069Y-7085330D01*
X2211333Y-7180330D02*
X405740Y-7180330D01*
X5110328Y-7180330D02*
X2790179Y-7180330D01*
X2340171Y-7275330D02*
X517080Y-7275330D01*
X3868003Y-7275330D02*
X2661480Y-7275330D01*
X4994337Y-7275330D02*
X4282179Y-7275330D01*
X3765636Y-7370330D02*
X585879Y-7370330D01*
X4923152Y-7370330D02*
X4384657Y-7370330D01*
X3713830Y-7465330D02*
X629807Y-7465330D01*
X4879194Y-7465330D02*
X4435932Y-7465330D01*
X3690500Y-7560330D02*
X654664Y-7560330D01*
X4884207Y-7560330D02*
X4459638Y-7560330D01*
X3693707Y-7655330D02*
X663029Y-7655330D01*
X5215000Y-7655330D02*
X4457257Y-7655330D01*
X3720424Y-7750330D02*
X653045Y-7750330D01*
X4879696Y-7750330D02*
X4429521Y-7750330D01*
X3776676Y-7845330D02*
X626146Y-7845330D01*
X4883707Y-7845330D02*
X4373111Y-7845330D01*
X3892282Y-7940330D02*
X579791Y-7940330D01*
X4930396Y-7940330D02*
X4257272Y-7940330D01*
X5215000Y-7700000D02*
X5215000Y-7600000D01*
X5120000Y-7173975D02*
X5120000Y-7133820D01*
X5120000Y-7700000D02*
X5120000Y-7600000D01*
X5025000Y-7245143D02*
X5025000Y-7065556D01*
X5025000Y-7700000D02*
X5025000Y-7600000D01*
X4930000Y-7360252D02*
X4930000Y-6958850D01*
X4930000Y-7700000D02*
X4930000Y-7600000D01*
X4930000Y-8015000D02*
X4930000Y-7939747D01*
X4835000Y-8015000D02*
X4835000Y-6452695D01*
X4740000Y-8015000D02*
X4740000Y-6357695D01*
X4645000Y-8015000D02*
X4645000Y-6262695D01*
X4550000Y-8015000D02*
X4550000Y-6167695D01*
X4455000Y-7536913D02*
X4455000Y-6072695D01*
X4455000Y-8015000D02*
X4455000Y-7665266D01*
X4360000Y-7340591D02*
X4360000Y-5977695D01*
X4360000Y-8015000D02*
X4360000Y-7860263D01*
X4265000Y-7263744D02*
X4265000Y-5876925D01*
X4265000Y-8015000D02*
X4265000Y-7935426D01*
X4170000Y-7226456D02*
X4170000Y-3710330D01*
X4170000Y-8015000D02*
X4170000Y-7974206D01*
X4075000Y-7214974D02*
X4075000Y-3805330D01*
X4075000Y-8015000D02*
X4075000Y-7985101D01*
X3980000Y-7226163D02*
X3980000Y-3900330D01*
X3980000Y-8015000D02*
X3980000Y-7973326D01*
X3885000Y-7264207D02*
X3885000Y-3995330D01*
X3885000Y-8015000D02*
X3885000Y-7936821D01*
X3790000Y-7340210D02*
X3790000Y-4090330D01*
X3790000Y-8015000D02*
X3790000Y-7859127D01*
X3695000Y-7535932D02*
X3695000Y-4185330D01*
X3695000Y-8015000D02*
X3695000Y-7662373D01*
X3600000Y-7632372D02*
X3600000Y-4280330D01*
X3600000Y-8015000D02*
X3600000Y-7632372D01*
X3505000Y-7632372D02*
X3505000Y-4375330D01*
X3505000Y-8015000D02*
X3505000Y-7632372D01*
X3410000Y-7632372D02*
X3410000Y-4470330D01*
X3410000Y-8015000D02*
X3410000Y-7632372D01*
X3315000Y-7632372D02*
X3315000Y-4565330D01*
X3315000Y-8015000D02*
X3315000Y-7632372D01*
X3220000Y-7632372D02*
X3220000Y-4660330D01*
X3220000Y-8015000D02*
X3220000Y-7632372D01*
X3125000Y-7632372D02*
X3125000Y-4733318D01*
X3125000Y-8015000D02*
X3125000Y-7632372D01*
X3030000Y-7632372D02*
X3030000Y-4758298D01*
X3030000Y-8015000D02*
X3030000Y-7632372D01*
X2935000Y-7632372D02*
X2935000Y-4760000D01*
X2935000Y-8015000D02*
X2935000Y-7632372D01*
X2840000Y-6741001D02*
X2840000Y-4760000D01*
X2840000Y-7632372D02*
X2840000Y-7107947D01*
X2840000Y-8015000D02*
X2840000Y-7632372D01*
X2745000Y-6625841D02*
X2745000Y-4760000D01*
X2745000Y-7632372D02*
X2745000Y-7223355D01*
X2745000Y-8015000D02*
X2745000Y-7632372D01*
X2650000Y-6570404D02*
X2650000Y-4760000D01*
X2650000Y-7632372D02*
X2650000Y-7279784D01*
X2650000Y-8015000D02*
X2650000Y-7632372D01*
X2555000Y-6543246D02*
X2555000Y-4760000D01*
X2555000Y-7632372D02*
X2555000Y-7306259D01*
X2555000Y-8015000D02*
X2555000Y-7632372D01*
X2460000Y-6540670D02*
X2460000Y-4760000D01*
X2460000Y-7632372D02*
X2460000Y-7309263D01*
X2460000Y-8015000D02*
X2460000Y-7632372D01*
X2365000Y-6564290D02*
X2365000Y-4760000D01*
X2365000Y-7632372D02*
X2365000Y-7286177D01*
X2365000Y-8015000D02*
X2365000Y-7632372D01*
X2270000Y-6615382D02*
X2270000Y-4760000D01*
X2270000Y-7632372D02*
X2270000Y-7234021D01*
X2270000Y-8015000D02*
X2270000Y-7632372D01*
X2175000Y-6718164D02*
X2175000Y-4760000D01*
X2175000Y-7632372D02*
X2175000Y-7131443D01*
X2175000Y-8015000D02*
X2175000Y-7632372D01*
X2080000Y-6957372D02*
X2080000Y-4760000D01*
X2080000Y-7632372D02*
X2080000Y-6957372D01*
X2080000Y-8015000D02*
X2080000Y-7632372D01*
X1985000Y-6957372D02*
X1985000Y-4760000D01*
X1985000Y-7632372D02*
X1985000Y-6957372D01*
X1985000Y-8015000D02*
X1985000Y-7632372D01*
X1890000Y-6957372D02*
X1890000Y-4760000D01*
X1890000Y-7632372D02*
X1890000Y-6957372D01*
X1890000Y-8015000D02*
X1890000Y-7632372D01*
X1795000Y-6957372D02*
X1795000Y-4760000D01*
X1795000Y-7632372D02*
X1795000Y-6957372D01*
X1795000Y-8015000D02*
X1795000Y-7632372D01*
X1700000Y-6957372D02*
X1700000Y-4760000D01*
X1700000Y-7632372D02*
X1700000Y-6957372D01*
X1700000Y-8015000D02*
X1700000Y-7632372D01*
X1605000Y-6957372D02*
X1605000Y-4760000D01*
X1605000Y-7632372D02*
X1605000Y-6957372D01*
X1605000Y-8015000D02*
X1605000Y-7632372D01*
X1510000Y-6957372D02*
X1510000Y-4760000D01*
X1510000Y-7632372D02*
X1510000Y-6957372D01*
X1510000Y-8015000D02*
X1510000Y-7632372D01*
X1415000Y-6957372D02*
X1415000Y-4760000D01*
X1415000Y-7632372D02*
X1415000Y-6957372D01*
X1415000Y-8015000D02*
X1415000Y-7632372D01*
X1320000Y-6957372D02*
X1320000Y-4760000D01*
X1320000Y-7632372D02*
X1320000Y-6957372D01*
X1320000Y-8015000D02*
X1320000Y-7632372D01*
X1225000Y-6957372D02*
X1225000Y-4760000D01*
X1225000Y-7632372D02*
X1225000Y-6957372D01*
X1225000Y-8015000D02*
X1225000Y-7632372D01*
X1130000Y-6957372D02*
X1130000Y-4760000D01*
X1130000Y-7632372D02*
X1130000Y-6957372D01*
X1130000Y-8015000D02*
X1130000Y-7632372D01*
X1035000Y-6957372D02*
X1035000Y-4760000D01*
X1035000Y-7632372D02*
X1035000Y-6957372D01*
X1035000Y-8015000D02*
X1035000Y-7632372D01*
X940000Y-6957372D02*
X940000Y-4759260D01*
X940000Y-7632372D02*
X940000Y-6957372D01*
X940000Y-8015000D02*
X940000Y-7632372D01*
X845000Y-6957372D02*
X845000Y-4737559D01*
X845000Y-7632372D02*
X845000Y-6957372D01*
X845000Y-8015000D02*
X845000Y-7632372D01*
X750000Y-6957372D02*
X750000Y-4667695D01*
X750000Y-7632372D02*
X750000Y-6957372D01*
X750000Y-8015000D02*
X750000Y-7632372D01*
X655000Y-5564033D02*
X655000Y-4731730D01*
X655000Y-6564033D02*
X655000Y-5731730D01*
X655000Y-6957372D02*
X655000Y-6731730D01*
X655000Y-7564031D02*
X655000Y-6957372D01*
X655000Y-8015000D02*
X655000Y-7731730D01*
X560000Y-5328713D02*
X560000Y-4972159D01*
X560000Y-6328713D02*
X560000Y-5972159D01*
X560000Y-7328713D02*
X560000Y-6972159D01*
X560000Y-8015000D02*
X560000Y-7972159D01*
X465000Y-5226053D02*
X465000Y-5074102D01*
X465000Y-6226053D02*
X465000Y-6074102D01*
X465000Y-7226053D02*
X465000Y-7074102D01*
X370000Y-5160682D02*
X370000Y-5139349D01*
X370000Y-6160682D02*
X370000Y-6139349D01*
X370000Y-7160682D02*
X370000Y-7139349D01*
X4975442Y-285000D02*
X524855Y-285000D01*
X2910866Y-380000D02*
X590934Y-380000D01*
X4909217Y-380000D02*
X3339103Y-380000D01*
X2812438Y-475000D02*
X632653Y-475000D01*
X4867560Y-475000D02*
X3437759Y-475000D01*
X2761828Y-570000D02*
X655544Y-570000D01*
X4844819Y-570000D02*
X3487857Y-570000D01*
X2740435Y-665000D02*
X662013Y-665000D01*
X4838541Y-665000D02*
X3509978Y-665000D01*
X2744564Y-760000D02*
X652028Y-760000D01*
X4848217Y-760000D02*
X3506196Y-760000D01*
X2772273Y-855000D02*
X623153Y-855000D01*
X4876177Y-855000D02*
X3477442Y-855000D01*
X2831186Y-950000D02*
X574563Y-950000D01*
X3899912Y-950000D02*
X3419816Y-950000D01*
X4924750Y-950000D02*
X4150041Y-950000D01*
X2321291Y-1045000D02*
X499740Y-1045000D01*
X3771465Y-1045000D02*
X3438147Y-1045000D01*
X5000502Y-1045000D02*
X4279009Y-1045000D01*
X2146594Y-1140000D02*
X368773Y-1140000D01*
X3718538Y-1140000D02*
X3574505Y-1140000D01*
X5131240Y-1140000D02*
X4331202Y-1140000D01*
X2051594Y-1235000D02*
X475663Y-1235000D01*
X3700164Y-1235000D02*
X3629141Y-1235000D01*
X5023841Y-1235000D02*
X4377696Y-1235000D01*
X1956594Y-1330000D02*
X561036Y-1330000D01*
X3709239Y-1330000D02*
X3649848Y-1330000D01*
X4938215Y-1330000D02*
X4472696Y-1330000D01*
X1861594Y-1425000D02*
X614460Y-1425000D01*
X3751118Y-1425000D02*
X3641257Y-1425000D01*
X4884885Y-1425000D02*
X4567696Y-1425000D01*
X1766594Y-1520000D02*
X645897Y-1520000D01*
X3843991Y-1520000D02*
X3602822Y-1520000D01*
X4853631Y-1520000D02*
X4662696Y-1520000D01*
X1671594Y-1615000D02*
X659639Y-1615000D01*
X4022304Y-1615000D02*
X3513992Y-1615000D01*
X4840089Y-1615000D02*
X4757696Y-1615000D01*
X1470850Y-1710000D02*
X657283Y-1710000D01*
X4117304Y-1710000D02*
X2453406Y-1710000D01*
X1391897Y-1805000D02*
X638631Y-1805000D01*
X3810656Y-1805000D02*
X2358406Y-1805000D01*
X1352638Y-1900000D02*
X601597Y-1900000D01*
X3735682Y-1900000D02*
X3534783Y-1900000D01*
X1340016Y-1995000D02*
X541103Y-1995000D01*
X3704416Y-1995000D02*
X3612229Y-1995000D01*
X1350070Y-2090000D02*
X445505Y-2090000D01*
X3701898Y-2090000D02*
X3644445Y-2090000D01*
X1386180Y-2185000D02*
X414235Y-2185000D01*
X3728888Y-2185000D02*
X3649080Y-2185000D01*
X1460156Y-2280000D02*
X520835Y-2280000D01*
X3795285Y-2280000D02*
X3622892Y-2280000D01*
X1412438Y-2375000D02*
X588320Y-2375000D01*
X3851679Y-2375000D02*
X3598941Y-2375000D01*
X1361828Y-2470000D02*
X631181Y-2470000D01*
X3009730Y-2470000D02*
X2293406Y-2470000D01*
X3754347Y-2470000D02*
X3640485Y-2470000D01*
X1340435Y-2565000D02*
X655089Y-2565000D01*
X2999745Y-2565000D02*
X2198406Y-2565000D01*
X3710793Y-2565000D02*
X3649359Y-2565000D01*
X1344564Y-2660000D02*
X662538Y-2660000D01*
X3018990Y-2660000D02*
X2106196Y-2660000D01*
X1372273Y-2755000D02*
X652554Y-2755000D01*
X3071143Y-2755000D02*
X2077442Y-2755000D01*
X1431186Y-2850000D02*
X624701Y-2850000D01*
X3199845Y-2850000D02*
X2019816Y-2850000D01*
X1552971Y-2945000D02*
X577266Y-2945000D01*
X3269213Y-2945000D02*
X1899913Y-2945000D01*
X3218538Y-3040000D02*
X503876Y-3040000D01*
X3200164Y-3135000D02*
X378177Y-3135000D01*
X3209239Y-3230000D02*
X469705Y-3230000D01*
X3251118Y-3325000D02*
X557016Y-3325000D01*
X3343991Y-3420000D02*
X611846Y-3420000D01*
X3629938Y-3515000D02*
X644426Y-3515000D01*
X3534938Y-3610000D02*
X659184Y-3610000D01*
X3439938Y-3705000D02*
X657809Y-3705000D01*
X3344938Y-3800000D02*
X640178Y-3800000D01*
X3249938Y-3895000D02*
X712695Y-3895000D01*
X3154938Y-3990000D02*
X807695Y-3990000D01*
X3059938Y-4085000D02*
X902695Y-4085000D01*
X2964938Y-4180000D02*
X997695Y-4180000D01*
X5149727Y-1150163D02*
X5149727Y-1150163D01*
X5054727Y-1209810D02*
X5054727Y-1090500D01*
X4959727Y-303996D02*
X4959727Y-285000D01*
X4959727Y-1303995D02*
X4959727Y-995823D01*
X4864727Y-484151D02*
X4864727Y-285000D01*
X4864727Y-1484151D02*
X4864727Y-816095D01*
X4769727Y-1627031D02*
X4769727Y-285000D01*
X4674727Y-1532031D02*
X4674727Y-285000D01*
X4579727Y-1437031D02*
X4579727Y-285000D01*
X4484727Y-1342031D02*
X4484727Y-285000D01*
X4389727Y-1247031D02*
X4389727Y-285000D01*
X4294727Y-1068658D02*
X4294727Y-285000D01*
X4199727Y-975818D02*
X4199727Y-285000D01*
X4104727Y-934575D02*
X4104727Y-285000D01*
X4104727Y-1734575D02*
X4104727Y-1697423D01*
X4009727Y-924872D02*
X4009727Y-285000D01*
X4009727Y-1724872D02*
X4009727Y-1602423D01*
X3914727Y-944013D02*
X3914727Y-285000D01*
X3914727Y-1744013D02*
X3914727Y-1556501D01*
X3819727Y-996116D02*
X3819727Y-285000D01*
X3819727Y-1796116D02*
X3819727Y-1503135D01*
X3819727Y-2396116D02*
X3819727Y-2303135D01*
X3724727Y-1125558D02*
X3724727Y-285000D01*
X3724727Y-1925558D02*
X3724727Y-1374488D01*
X3724727Y-2525558D02*
X3724727Y-2174488D01*
X3629727Y-1236424D02*
X3629727Y-285000D01*
X3629727Y-2036424D02*
X3629727Y-1464650D01*
X3629727Y-2436424D02*
X3629727Y-2264650D01*
X3629727Y-3515211D02*
X3629727Y-3457986D01*
X3534727Y-1099944D02*
X3534727Y-285000D01*
X3534727Y-1899944D02*
X3534727Y-1599088D01*
X3534727Y-3610211D02*
X3534727Y-3475289D01*
X3439727Y-477963D02*
X3439727Y-285000D01*
X3439727Y-1045665D02*
X3439727Y-921776D01*
X3439727Y-1845665D02*
X3439727Y-1654107D01*
X3439727Y-3705211D02*
X3439727Y-3464028D01*
X3344727Y-383795D02*
X3344727Y-285000D01*
X3344727Y-1025116D02*
X3344727Y-1016561D01*
X3344727Y-1825116D02*
X3344727Y-1675499D01*
X3344727Y-3800211D02*
X3344727Y-3420511D01*
X3249727Y-334780D02*
X3249727Y-285000D01*
X3249727Y-1833484D02*
X3249727Y-1666227D01*
X3249727Y-2976745D02*
X3249727Y-2866227D01*
X3249727Y-3895211D02*
X3249727Y-3322840D01*
X3154727Y-315182D02*
X3154727Y-285000D01*
X3154727Y-1840000D02*
X3154727Y-1660000D01*
X3154727Y-3990211D02*
X3154727Y-2827461D01*
X3059727Y-320492D02*
X3059727Y-285000D01*
X3059727Y-1840000D02*
X3059727Y-1660000D01*
X3059727Y-4085211D02*
X3059727Y-2738357D01*
X2964727Y-349501D02*
X2964727Y-285000D01*
X2964727Y-1840000D02*
X2964727Y-1660000D01*
X2964727Y-4180211D02*
X2964727Y-2460000D01*
X2869727Y-411099D02*
X2869727Y-285000D01*
X2869727Y-1040000D02*
X2869727Y-989910D01*
X2869727Y-1840000D02*
X2869727Y-1660000D01*
X2869727Y-4240000D02*
X2869727Y-2460000D01*
X2774727Y-539903D02*
X2774727Y-285000D01*
X2774727Y-1040000D02*
X2774727Y-861197D01*
X2774727Y-1840000D02*
X2774727Y-1660000D01*
X2774727Y-4240000D02*
X2774727Y-2460000D01*
X2679727Y-1040000D02*
X2679727Y-285000D01*
X2679727Y-1840000D02*
X2679727Y-1660000D01*
X2679727Y-4240000D02*
X2679727Y-2460000D01*
X2584727Y-1040000D02*
X2584727Y-285000D01*
X2584727Y-1840000D02*
X2584727Y-1660000D01*
X2584727Y-4240000D02*
X2584727Y-2460000D01*
X2489727Y-1040000D02*
X2489727Y-285000D01*
X2489727Y-1840000D02*
X2489727Y-1673679D01*
X2489727Y-4240000D02*
X2489727Y-2460000D01*
X2394727Y-1040000D02*
X2394727Y-285000D01*
X2394727Y-1840000D02*
X2394727Y-1768679D01*
X2394727Y-4240000D02*
X2394727Y-2460000D01*
X2299727Y-1050450D02*
X2299727Y-285000D01*
X2299727Y-4240000D02*
X2299727Y-2463679D01*
X2204727Y-1091115D02*
X2204727Y-285000D01*
X2204727Y-4240000D02*
X2204727Y-2558679D01*
X2109727Y-1176867D02*
X2109727Y-285000D01*
X2109727Y-4240000D02*
X2109727Y-2653679D01*
X2014727Y-1271867D02*
X2014727Y-285000D01*
X2014727Y-4240000D02*
X2014727Y-2855761D01*
X1919727Y-1366867D02*
X1919727Y-285000D01*
X1919727Y-4240000D02*
X1919727Y-2932426D01*
X1824727Y-1461867D02*
X1824727Y-285000D01*
X1824727Y-4240000D02*
X1824727Y-2973372D01*
X1729727Y-1556867D02*
X1729727Y-285000D01*
X1729727Y-4240000D02*
X1729727Y-2985200D01*
X1634727Y-1625261D02*
X1634727Y-285000D01*
X1634727Y-4240000D02*
X1634727Y-2974365D01*
X1539727Y-1661114D02*
X1539727Y-285000D01*
X1539727Y-4240000D02*
X1539727Y-2939213D01*
X1444727Y-1735581D02*
X1444727Y-285000D01*
X1444727Y-2335581D02*
X1444727Y-2264022D01*
X1444727Y-4240000D02*
X1444727Y-2864022D01*
X1349727Y-1913693D02*
X1349727Y-285000D01*
X1349727Y-2513693D02*
X1349727Y-2088129D01*
X1349727Y-4240000D02*
X1349727Y-2688129D01*
X1254727Y-4240000D02*
X1254727Y-285000D01*
X1159727Y-4240000D02*
X1159727Y-285000D01*
X1064727Y-4240000D02*
X1064727Y-285000D01*
X969727Y-4152032D02*
X969727Y-285000D01*
X874727Y-4057032D02*
X874727Y-285000D01*
X779727Y-3962032D02*
X779727Y-285000D01*
X684727Y-3867032D02*
X684727Y-285000D01*
X589727Y-377693D02*
X589727Y-285000D01*
X589727Y-1377693D02*
X589727Y-921955D01*
X589727Y-2377693D02*
X589727Y-1921955D01*
X589727Y-3377693D02*
X589727Y-2921955D01*
X494727Y-1250997D02*
X494727Y-1049857D01*
X494727Y-2250997D02*
X494727Y-2049857D01*
X494727Y-3250997D02*
X494727Y-3049857D01*
X399727Y-1177025D02*
X399727Y-1123543D01*
X399727Y-2177025D02*
X399727Y-2123543D01*
X399727Y-3177025D02*
X399727Y-3123543D01*
X4215000Y-5725000D02*
X4217346Y-5748928D01*
X4219437Y-5772828D01*
X4219819Y-5774142D01*
X4219952Y-5775501D01*
X4226895Y-5798499D01*
X4233594Y-5821555D01*
X4234222Y-5822767D01*
X4234618Y-5824078D01*
X4245922Y-5845339D01*
X4256946Y-5866606D01*
X4257796Y-5867671D01*
X4258440Y-5868882D01*
X4273631Y-5887508D01*
X4288603Y-5906263D01*
X4290484Y-5908170D01*
X4290512Y-5908205D01*
X4290544Y-5908232D01*
X4291152Y-5908848D01*
X4865136Y-6482831D01*
X4848245Y-6537396D01*
X4836821Y-6646090D01*
X4846726Y-6754934D01*
X4877584Y-6859780D01*
X4928219Y-6956635D01*
X4996702Y-7041811D01*
X5080425Y-7112064D01*
X5156105Y-7153669D01*
X5142565Y-7159153D01*
X5051752Y-7218808D01*
X4974322Y-7295033D01*
X4913251Y-7384899D01*
X4870885Y-7484953D01*
X4864859Y-7514619D01*
X4900999Y-7600000D01*
X5215000Y-7600000D01*
X5215000Y-7700000D01*
X4900999Y-7700000D01*
X4864859Y-7785381D01*
X4870885Y-7815047D01*
X4913251Y-7915101D01*
X4974322Y-8004967D01*
X4984514Y-8015000D01*
X524558Y-8015000D01*
X567454Y-7963148D01*
X619436Y-7867009D01*
X651755Y-7762604D01*
X663179Y-7653910D01*
X661220Y-7632372D01*
X3689494Y-7632372D01*
X3703123Y-7706634D01*
X3730918Y-7776834D01*
X3771818Y-7840299D01*
X3824266Y-7894611D01*
X3886265Y-7937701D01*
X3955453Y-7967929D01*
X4029194Y-7984142D01*
X4104680Y-7985723D01*
X4179035Y-7972612D01*
X4249428Y-7945308D01*
X4313177Y-7904852D01*
X4367853Y-7852784D01*
X4411375Y-7791088D01*
X4442085Y-7722113D01*
X4458812Y-7648487D01*
X4460017Y-7562249D01*
X4445351Y-7488184D01*
X4416580Y-7418379D01*
X4374797Y-7355491D01*
X4321596Y-7301917D01*
X4259001Y-7259697D01*
X4189399Y-7230438D01*
X4115438Y-7215256D01*
X4039938Y-7214729D01*
X3965773Y-7228877D01*
X3895768Y-7257161D01*
X3832590Y-7298503D01*
X3778646Y-7351329D01*
X3735989Y-7413627D01*
X3706246Y-7483024D01*
X3690548Y-7556877D01*
X3689494Y-7632372D01*
X661220Y-7632372D01*
X653274Y-7545066D01*
X622416Y-7440220D01*
X571781Y-7343365D01*
X503298Y-7258189D01*
X419575Y-7187936D01*
X350273Y-7149837D01*
X413092Y-7116436D01*
X497788Y-7047360D01*
X567454Y-6963148D01*
X570577Y-6957372D01*
X2114494Y-6957372D01*
X2128123Y-7031634D01*
X2155918Y-7101834D01*
X2196818Y-7165299D01*
X2249266Y-7219611D01*
X2311265Y-7262701D01*
X2380453Y-7292929D01*
X2454194Y-7309142D01*
X2529680Y-7310723D01*
X2604035Y-7297612D01*
X2674428Y-7270308D01*
X2738177Y-7229852D01*
X2792853Y-7177784D01*
X2836375Y-7116088D01*
X2867085Y-7047113D01*
X2883812Y-6973487D01*
X2885017Y-6887249D01*
X2870351Y-6813184D01*
X2841580Y-6743379D01*
X2799797Y-6680491D01*
X2746596Y-6626917D01*
X2684001Y-6584697D01*
X2614399Y-6555438D01*
X2540438Y-6540256D01*
X2464938Y-6539729D01*
X2390773Y-6553877D01*
X2320768Y-6582161D01*
X2257590Y-6623503D01*
X2203646Y-6676329D01*
X2160989Y-6738627D01*
X2131246Y-6808024D01*
X2115548Y-6881877D01*
X2114494Y-6957372D01*
X570577Y-6957372D01*
X619436Y-6867009D01*
X651755Y-6762604D01*
X663179Y-6653910D01*
X653274Y-6545066D01*
X622416Y-6440220D01*
X571781Y-6343365D01*
X503298Y-6258189D01*
X419575Y-6187936D01*
X350273Y-6149837D01*
X413092Y-6116436D01*
X497788Y-6047360D01*
X567454Y-5963148D01*
X619436Y-5867009D01*
X651755Y-5762604D01*
X663179Y-5653910D01*
X653274Y-5545066D01*
X622416Y-5440220D01*
X571781Y-5343365D01*
X503298Y-5258189D01*
X419575Y-5187936D01*
X350273Y-5149837D01*
X413092Y-5116436D01*
X497788Y-5047360D01*
X567454Y-4963148D01*
X619436Y-4867009D01*
X651755Y-4762604D01*
X663179Y-4653910D01*
X655867Y-4573562D01*
X766153Y-4683848D01*
X784687Y-4699072D01*
X803109Y-4714530D01*
X804310Y-4715190D01*
X805364Y-4716056D01*
X826525Y-4727403D01*
X847575Y-4738975D01*
X848876Y-4739388D01*
X850083Y-4740035D01*
X873115Y-4747077D01*
X895943Y-4754318D01*
X897297Y-4754470D01*
X898609Y-4754871D01*
X922552Y-4757303D01*
X946370Y-4759975D01*
X949038Y-4759993D01*
X949093Y-4759999D01*
X949145Y-4759994D01*
X950000Y-4760000D01*
X3012634Y-4760000D01*
X3036562Y-4757654D01*
X3060462Y-4755563D01*
X3061776Y-4755181D01*
X3063135Y-4755048D01*
X3086133Y-4748105D01*
X3109189Y-4741406D01*
X3110401Y-4740778D01*
X3111712Y-4740382D01*
X3132973Y-4729078D01*
X3154240Y-4718054D01*
X3155305Y-4717204D01*
X3156516Y-4716560D01*
X3175142Y-4701369D01*
X3193897Y-4686397D01*
X3195804Y-4684516D01*
X3195839Y-4684488D01*
X3195866Y-4684456D01*
X3196482Y-4683848D01*
X4215000Y-3665330D01*
X4215000Y-5725000D01*
X4215000Y-3665330D02*
X4215000Y-3665330D01*
X4215000Y-3760330D02*
X4120000Y-3760330D01*
X4215000Y-3855330D02*
X4025000Y-3855330D01*
X4215000Y-3950330D02*
X3930000Y-3950330D01*
X4215000Y-4045330D02*
X3835000Y-4045330D01*
X4215000Y-4140330D02*
X3740000Y-4140330D01*
X4215000Y-4235330D02*
X3645000Y-4235330D01*
X4215000Y-4330330D02*
X3550000Y-4330330D01*
X4215000Y-4425330D02*
X3455000Y-4425330D01*
X4215000Y-4520330D02*
X3360000Y-4520330D01*
X697635Y-4615330D02*
X659669Y-4615330D01*
X4215000Y-4615330D02*
X3265000Y-4615330D01*
X798103Y-4710330D02*
X657249Y-4710330D01*
X4215000Y-4710330D02*
X3164154Y-4710330D01*
X4215000Y-4805330D02*
X638528Y-4805330D01*
X4215000Y-4900330D02*
X601419Y-4900330D01*
X4215000Y-4995330D02*
X540830Y-4995330D01*
X4215000Y-5090330D02*
X445101Y-5090330D01*
X4215000Y-5185330D02*
X414835Y-5185330D01*
X4215000Y-5280330D02*
X521100Y-5280330D01*
X4215000Y-5375330D02*
X588493Y-5375330D01*
X4215000Y-5470330D02*
X631278Y-5470330D01*
X4215000Y-5565330D02*
X655119Y-5565330D01*
X4215000Y-5660330D02*
X662504Y-5660330D01*
X4217906Y-5755330D02*
X652519Y-5755330D01*
X4248509Y-5850330D02*
X624599Y-5850330D01*
X4327634Y-5945330D02*
X577088Y-5945330D01*
X4422634Y-6040330D02*
X503603Y-6040330D01*
X4517634Y-6135330D02*
X377557Y-6135330D01*
X4612634Y-6230330D02*
X470098Y-6230330D01*
X4707634Y-6325330D02*
X557281Y-6325330D01*
X4802634Y-6420330D02*
X612018Y-6420330D01*
X4855076Y-6515330D02*
X644523Y-6515330D01*
X2277721Y-6610330D02*
X659214Y-6610330D01*
X4840580Y-6610330D02*
X2722005Y-6610330D01*
X2183789Y-6705330D02*
X657774Y-6705330D01*
X4842211Y-6705330D02*
X2816301Y-6705330D01*
X2134544Y-6800330D02*
X640076Y-6800330D01*
X4860086Y-6800330D02*
X2865054Y-6800330D01*
X2115361Y-6895330D02*
X604122Y-6895330D01*
X4896169Y-6895330D02*
X2884904Y-6895330D01*
X2120542Y-6990330D02*
X544967Y-6990330D01*
X4955310Y-6990330D02*
X2879985Y-6990330D01*
X2149383Y-7085330D02*
X451231Y-7085330D01*
X5048565Y-7085330D02*
X2850069Y-7085330D01*
X2211333Y-7180330D02*
X405740Y-7180330D01*
X5110328Y-7180330D02*
X2790179Y-7180330D01*
X2340171Y-7275330D02*
X517080Y-7275330D01*
X3868003Y-7275330D02*
X2661480Y-7275330D01*
X4994337Y-7275330D02*
X4282179Y-7275330D01*
X3765636Y-7370330D02*
X585879Y-7370330D01*
X4923152Y-7370330D02*
X4384657Y-7370330D01*
X3713830Y-7465330D02*
X629807Y-7465330D01*
X4879194Y-7465330D02*
X4435932Y-7465330D01*
X3690500Y-7560330D02*
X654664Y-7560330D01*
X4884207Y-7560330D02*
X4459638Y-7560330D01*
X3693707Y-7655330D02*
X663029Y-7655330D01*
X5215000Y-7655330D02*
X4457257Y-7655330D01*
X3720424Y-7750330D02*
X653045Y-7750330D01*
X4879696Y-7750330D02*
X4429521Y-7750330D01*
X3776676Y-7845330D02*
X626146Y-7845330D01*
X4883707Y-7845330D02*
X4373111Y-7845330D01*
X3892282Y-7940330D02*
X579791Y-7940330D01*
X4930396Y-7940330D02*
X4257272Y-7940330D01*
X5215000Y-7700000D02*
X5215000Y-7600000D01*
X5120000Y-7173975D02*
X5120000Y-7133820D01*
X5120000Y-7700000D02*
X5120000Y-7600000D01*
X5025000Y-7245143D02*
X5025000Y-7065556D01*
X5025000Y-7700000D02*
X5025000Y-7600000D01*
X4930000Y-7360252D02*
X4930000Y-6958850D01*
X4930000Y-7700000D02*
X4930000Y-7600000D01*
X4930000Y-8015000D02*
X4930000Y-7939747D01*
X4835000Y-8015000D02*
X4835000Y-6452695D01*
X4740000Y-8015000D02*
X4740000Y-6357695D01*
X4645000Y-8015000D02*
X4645000Y-6262695D01*
X4550000Y-8015000D02*
X4550000Y-6167695D01*
X4455000Y-7536913D02*
X4455000Y-6072695D01*
X4455000Y-8015000D02*
X4455000Y-7665266D01*
X4360000Y-7340591D02*
X4360000Y-5977695D01*
X4360000Y-8015000D02*
X4360000Y-7860263D01*
X4265000Y-7263744D02*
X4265000Y-5876925D01*
X4265000Y-8015000D02*
X4265000Y-7935426D01*
X4170000Y-7226456D02*
X4170000Y-3710330D01*
X4170000Y-8015000D02*
X4170000Y-7974206D01*
X4075000Y-7214974D02*
X4075000Y-3805330D01*
X4075000Y-8015000D02*
X4075000Y-7985101D01*
X3980000Y-7226163D02*
X3980000Y-3900330D01*
X3980000Y-8015000D02*
X3980000Y-7973326D01*
X3885000Y-7264207D02*
X3885000Y-3995330D01*
X3885000Y-8015000D02*
X3885000Y-7936821D01*
X3790000Y-7340210D02*
X3790000Y-4090330D01*
X3790000Y-8015000D02*
X3790000Y-7859127D01*
X3695000Y-7535932D02*
X3695000Y-4185330D01*
X3695000Y-8015000D02*
X3695000Y-7662373D01*
X3600000Y-7632372D02*
X3600000Y-4280330D01*
X3600000Y-8015000D02*
X3600000Y-7632372D01*
X3505000Y-7632372D02*
X3505000Y-4375330D01*
X3505000Y-8015000D02*
X3505000Y-7632372D01*
X3410000Y-7632372D02*
X3410000Y-4470330D01*
X3410000Y-8015000D02*
X3410000Y-7632372D01*
X3315000Y-7632372D02*
X3315000Y-4565330D01*
X3315000Y-8015000D02*
X3315000Y-7632372D01*
X3220000Y-7632372D02*
X3220000Y-4660330D01*
X3220000Y-8015000D02*
X3220000Y-7632372D01*
X3125000Y-7632372D02*
X3125000Y-4733318D01*
X3125000Y-8015000D02*
X3125000Y-7632372D01*
X3030000Y-7632372D02*
X3030000Y-4758298D01*
X3030000Y-8015000D02*
X3030000Y-7632372D01*
X2935000Y-7632372D02*
X2935000Y-4760000D01*
X2935000Y-8015000D02*
X2935000Y-7632372D01*
X2840000Y-6741001D02*
X2840000Y-4760000D01*
X2840000Y-7632372D02*
X2840000Y-7107947D01*
X2840000Y-8015000D02*
X2840000Y-7632372D01*
X2745000Y-6625841D02*
X2745000Y-4760000D01*
X2745000Y-7632372D02*
X2745000Y-7223355D01*
X2745000Y-8015000D02*
X2745000Y-7632372D01*
X2650000Y-6570404D02*
X2650000Y-4760000D01*
X2650000Y-7632372D02*
X2650000Y-7279784D01*
X2650000Y-8015000D02*
X2650000Y-7632372D01*
X2555000Y-6543246D02*
X2555000Y-4760000D01*
X2555000Y-7632372D02*
X2555000Y-7306259D01*
X2555000Y-8015000D02*
X2555000Y-7632372D01*
X2460000Y-6540670D02*
X2460000Y-4760000D01*
X2460000Y-7632372D02*
X2460000Y-7309263D01*
X2460000Y-8015000D02*
X2460000Y-7632372D01*
X2365000Y-6564290D02*
X2365000Y-4760000D01*
X2365000Y-7632372D02*
X2365000Y-7286177D01*
X2365000Y-8015000D02*
X2365000Y-7632372D01*
X2270000Y-6615382D02*
X2270000Y-4760000D01*
X2270000Y-7632372D02*
X2270000Y-7234021D01*
X2270000Y-8015000D02*
X2270000Y-7632372D01*
X2175000Y-6718164D02*
X2175000Y-4760000D01*
X2175000Y-7632372D02*
X2175000Y-7131443D01*
X2175000Y-8015000D02*
X2175000Y-7632372D01*
X2080000Y-6957372D02*
X2080000Y-4760000D01*
X2080000Y-7632372D02*
X2080000Y-6957372D01*
X2080000Y-8015000D02*
X2080000Y-7632372D01*
X1985000Y-6957372D02*
X1985000Y-4760000D01*
X1985000Y-7632372D02*
X1985000Y-6957372D01*
X1985000Y-8015000D02*
X1985000Y-7632372D01*
X1890000Y-6957372D02*
X1890000Y-4760000D01*
X1890000Y-7632372D02*
X1890000Y-6957372D01*
X1890000Y-8015000D02*
X1890000Y-7632372D01*
X1795000Y-6957372D02*
X1795000Y-4760000D01*
X1795000Y-7632372D02*
X1795000Y-6957372D01*
X1795000Y-8015000D02*
X1795000Y-7632372D01*
X1700000Y-6957372D02*
X1700000Y-4760000D01*
X1700000Y-7632372D02*
X1700000Y-6957372D01*
X1700000Y-8015000D02*
X1700000Y-7632372D01*
X1605000Y-6957372D02*
X1605000Y-4760000D01*
X1605000Y-7632372D02*
X1605000Y-6957372D01*
X1605000Y-8015000D02*
X1605000Y-7632372D01*
X1510000Y-6957372D02*
X1510000Y-4760000D01*
X1510000Y-7632372D02*
X1510000Y-6957372D01*
X1510000Y-8015000D02*
X1510000Y-7632372D01*
X1415000Y-6957372D02*
X1415000Y-4760000D01*
X1415000Y-7632372D02*
X1415000Y-6957372D01*
X1415000Y-8015000D02*
X1415000Y-7632372D01*
X1320000Y-6957372D02*
X1320000Y-4760000D01*
X1320000Y-7632372D02*
X1320000Y-6957372D01*
X1320000Y-8015000D02*
X1320000Y-7632372D01*
X1225000Y-6957372D02*
X1225000Y-4760000D01*
X1225000Y-7632372D02*
X1225000Y-6957372D01*
X1225000Y-8015000D02*
X1225000Y-7632372D01*
X1130000Y-6957372D02*
X1130000Y-4760000D01*
X1130000Y-7632372D02*
X1130000Y-6957372D01*
X1130000Y-8015000D02*
X1130000Y-7632372D01*
X1035000Y-6957372D02*
X1035000Y-4760000D01*
X1035000Y-7632372D02*
X1035000Y-6957372D01*
X1035000Y-8015000D02*
X1035000Y-7632372D01*
X940000Y-6957372D02*
X940000Y-4759260D01*
X940000Y-7632372D02*
X940000Y-6957372D01*
X940000Y-8015000D02*
X940000Y-7632372D01*
X845000Y-6957372D02*
X845000Y-4737559D01*
X845000Y-7632372D02*
X845000Y-6957372D01*
X845000Y-8015000D02*
X845000Y-7632372D01*
X750000Y-6957372D02*
X750000Y-4667695D01*
X750000Y-7632372D02*
X750000Y-6957372D01*
X750000Y-8015000D02*
X750000Y-7632372D01*
X655000Y-5564033D02*
X655000Y-4731730D01*
X655000Y-6564033D02*
X655000Y-5731730D01*
X655000Y-6957372D02*
X655000Y-6731730D01*
X655000Y-7564031D02*
X655000Y-6957372D01*
X655000Y-8015000D02*
X655000Y-7731730D01*
X560000Y-5328713D02*
X560000Y-4972159D01*
X560000Y-6328713D02*
X560000Y-5972159D01*
X560000Y-7328713D02*
X560000Y-6972159D01*
X560000Y-8015000D02*
X560000Y-7972159D01*
X465000Y-5226053D02*
X465000Y-5074102D01*
X465000Y-6226053D02*
X465000Y-6074102D01*
X465000Y-7226053D02*
X465000Y-7074102D01*
X370000Y-5160682D02*
X370000Y-5139349D01*
X370000Y-6160682D02*
X370000Y-6139349D01*
X370000Y-7160682D02*
X370000Y-7139349D01*
X4975442Y-285000D02*
X524855Y-285000D01*
X2910866Y-380000D02*
X590934Y-380000D01*
X4909217Y-380000D02*
X3339103Y-380000D01*
X2812438Y-475000D02*
X632653Y-475000D01*
X4867560Y-475000D02*
X3437759Y-475000D01*
X2761828Y-570000D02*
X655544Y-570000D01*
X4844819Y-570000D02*
X3487857Y-570000D01*
X2740435Y-665000D02*
X662013Y-665000D01*
X4838541Y-665000D02*
X3509978Y-665000D01*
X2744564Y-760000D02*
X652028Y-760000D01*
X4848217Y-760000D02*
X3506196Y-760000D01*
X2772273Y-855000D02*
X623153Y-855000D01*
X4876177Y-855000D02*
X3477442Y-855000D01*
X2831186Y-950000D02*
X574563Y-950000D01*
X3899912Y-950000D02*
X3419816Y-950000D01*
X4924750Y-950000D02*
X4150041Y-950000D01*
X2321291Y-1045000D02*
X499740Y-1045000D01*
X3771465Y-1045000D02*
X3438147Y-1045000D01*
X5000502Y-1045000D02*
X4279009Y-1045000D01*
X2146594Y-1140000D02*
X368773Y-1140000D01*
X3718538Y-1140000D02*
X3574505Y-1140000D01*
X5131240Y-1140000D02*
X4331202Y-1140000D01*
X2051594Y-1235000D02*
X475663Y-1235000D01*
X3700164Y-1235000D02*
X3629141Y-1235000D01*
X5023841Y-1235000D02*
X4377696Y-1235000D01*
X1956594Y-1330000D02*
X561036Y-1330000D01*
X3709239Y-1330000D02*
X3649848Y-1330000D01*
X4938215Y-1330000D02*
X4472696Y-1330000D01*
X1861594Y-1425000D02*
X614460Y-1425000D01*
X3751118Y-1425000D02*
X3641257Y-1425000D01*
X4884885Y-1425000D02*
X4567696Y-1425000D01*
X1766594Y-1520000D02*
X645897Y-1520000D01*
X3843991Y-1520000D02*
X3602822Y-1520000D01*
X4853631Y-1520000D02*
X4662696Y-1520000D01*
X1671594Y-1615000D02*
X659639Y-1615000D01*
X4022304Y-1615000D02*
X3513992Y-1615000D01*
X4840089Y-1615000D02*
X4757696Y-1615000D01*
X1470850Y-1710000D02*
X657283Y-1710000D01*
X4117304Y-1710000D02*
X2453406Y-1710000D01*
X1391897Y-1805000D02*
X638631Y-1805000D01*
X3810656Y-1805000D02*
X2358406Y-1805000D01*
X1352638Y-1900000D02*
X601597Y-1900000D01*
X3735682Y-1900000D02*
X3534783Y-1900000D01*
X1340016Y-1995000D02*
X541103Y-1995000D01*
X3704416Y-1995000D02*
X3612229Y-1995000D01*
X1350070Y-2090000D02*
X445505Y-2090000D01*
X3701898Y-2090000D02*
X3644445Y-2090000D01*
X1386180Y-2185000D02*
X414235Y-2185000D01*
X3728888Y-2185000D02*
X3649080Y-2185000D01*
X1460156Y-2280000D02*
X520835Y-2280000D01*
X3795285Y-2280000D02*
X3622892Y-2280000D01*
X1412438Y-2375000D02*
X588320Y-2375000D01*
X3851679Y-2375000D02*
X3598941Y-2375000D01*
X1361828Y-2470000D02*
X631181Y-2470000D01*
X3009730Y-2470000D02*
X2293406Y-2470000D01*
X3754347Y-2470000D02*
X3640485Y-2470000D01*
X1340435Y-2565000D02*
X655089Y-2565000D01*
X2999745Y-2565000D02*
X2198406Y-2565000D01*
X3710793Y-2565000D02*
X3649359Y-2565000D01*
X1344564Y-2660000D02*
X662538Y-2660000D01*
X3018990Y-2660000D02*
X2106196Y-2660000D01*
X1372273Y-2755000D02*
X652554Y-2755000D01*
X3071143Y-2755000D02*
X2077442Y-2755000D01*
X1431186Y-2850000D02*
X624701Y-2850000D01*
X3199845Y-2850000D02*
X2019816Y-2850000D01*
X1552971Y-2945000D02*
X577266Y-2945000D01*
X3269213Y-2945000D02*
X1899913Y-2945000D01*
X3218538Y-3040000D02*
X503876Y-3040000D01*
X3200164Y-3135000D02*
X378177Y-3135000D01*
X3209239Y-3230000D02*
X469705Y-3230000D01*
X3251118Y-3325000D02*
X557016Y-3325000D01*
X3343991Y-3420000D02*
X611846Y-3420000D01*
X3629938Y-3515000D02*
X644426Y-3515000D01*
X3534938Y-3610000D02*
X659184Y-3610000D01*
X3439938Y-3705000D02*
X657809Y-3705000D01*
X3344938Y-3800000D02*
X640178Y-3800000D01*
X3249938Y-3895000D02*
X712695Y-3895000D01*
X3154938Y-3990000D02*
X807695Y-3990000D01*
X3059938Y-4085000D02*
X902695Y-4085000D01*
X2964938Y-4180000D02*
X997695Y-4180000D01*
X5149727Y-1150163D02*
X5149727Y-1150163D01*
X5054727Y-1209810D02*
X5054727Y-1090500D01*
X4959727Y-303996D02*
X4959727Y-285000D01*
X4959727Y-1303995D02*
X4959727Y-995823D01*
X4864727Y-484151D02*
X4864727Y-285000D01*
X4864727Y-1484151D02*
X4864727Y-816095D01*
X4769727Y-1627031D02*
X4769727Y-285000D01*
X4674727Y-1532031D02*
X4674727Y-285000D01*
X4579727Y-1437031D02*
X4579727Y-285000D01*
X4484727Y-1342031D02*
X4484727Y-285000D01*
X4389727Y-1247031D02*
X4389727Y-285000D01*
X4294727Y-1068658D02*
X4294727Y-285000D01*
X4199727Y-975818D02*
X4199727Y-285000D01*
X4104727Y-934575D02*
X4104727Y-285000D01*
X4104727Y-1734575D02*
X4104727Y-1697423D01*
X4009727Y-924872D02*
X4009727Y-285000D01*
X4009727Y-1724872D02*
X4009727Y-1602423D01*
X3914727Y-944013D02*
X3914727Y-285000D01*
X3914727Y-1744013D02*
X3914727Y-1556501D01*
X3819727Y-996116D02*
X3819727Y-285000D01*
X3819727Y-1796116D02*
X3819727Y-1503135D01*
X3819727Y-2396116D02*
X3819727Y-2303135D01*
X3724727Y-1125558D02*
X3724727Y-285000D01*
X3724727Y-1925558D02*
X3724727Y-1374488D01*
X3724727Y-2525558D02*
X3724727Y-2174488D01*
X3629727Y-1236424D02*
X3629727Y-285000D01*
X3629727Y-2036424D02*
X3629727Y-1464650D01*
X3629727Y-2436424D02*
X3629727Y-2264650D01*
X3629727Y-3515211D02*
X3629727Y-3457986D01*
X3534727Y-1099944D02*
X3534727Y-285000D01*
X3534727Y-1899944D02*
X3534727Y-1599088D01*
X3534727Y-3610211D02*
X3534727Y-3475289D01*
X3439727Y-477963D02*
X3439727Y-285000D01*
X3439727Y-1045665D02*
X3439727Y-921776D01*
X3439727Y-1845665D02*
X3439727Y-1654107D01*
X3439727Y-3705211D02*
X3439727Y-3464028D01*
X3344727Y-383795D02*
X3344727Y-285000D01*
X3344727Y-1025116D02*
X3344727Y-1016561D01*
X3344727Y-1825116D02*
X3344727Y-1675499D01*
X3344727Y-3800211D02*
X3344727Y-3420511D01*
X3249727Y-334780D02*
X3249727Y-285000D01*
X3249727Y-1833484D02*
X3249727Y-1666227D01*
X3249727Y-2976745D02*
X3249727Y-2866227D01*
X3249727Y-3895211D02*
X3249727Y-3322840D01*
X3154727Y-315182D02*
X3154727Y-285000D01*
X3154727Y-1840000D02*
X3154727Y-1660000D01*
X3154727Y-3990211D02*
X3154727Y-2827461D01*
X3059727Y-320492D02*
X3059727Y-285000D01*
X3059727Y-1840000D02*
X3059727Y-1660000D01*
X3059727Y-4085211D02*
X3059727Y-2738357D01*
X2964727Y-349501D02*
X2964727Y-285000D01*
X2964727Y-1840000D02*
X2964727Y-1660000D01*
X2964727Y-4180211D02*
X2964727Y-2460000D01*
X2869727Y-411099D02*
X2869727Y-285000D01*
X2869727Y-1040000D02*
X2869727Y-989910D01*
X2869727Y-1840000D02*
X2869727Y-1660000D01*
X2869727Y-4240000D02*
X2869727Y-2460000D01*
X2774727Y-539903D02*
X2774727Y-285000D01*
X2774727Y-1040000D02*
X2774727Y-861197D01*
X2774727Y-1840000D02*
X2774727Y-1660000D01*
X2774727Y-4240000D02*
X2774727Y-2460000D01*
X2679727Y-1040000D02*
X2679727Y-285000D01*
X2679727Y-1840000D02*
X2679727Y-1660000D01*
X2679727Y-4240000D02*
X2679727Y-2460000D01*
X2584727Y-1040000D02*
X2584727Y-285000D01*
X2584727Y-1840000D02*
X2584727Y-1660000D01*
X2584727Y-4240000D02*
X2584727Y-2460000D01*
X2489727Y-1040000D02*
X2489727Y-285000D01*
X2489727Y-1840000D02*
X2489727Y-1673679D01*
X2489727Y-4240000D02*
X2489727Y-2460000D01*
X2394727Y-1040000D02*
X2394727Y-285000D01*
X2394727Y-1840000D02*
X2394727Y-1768679D01*
X2394727Y-4240000D02*
X2394727Y-2460000D01*
X2299727Y-1050450D02*
X2299727Y-285000D01*
X2299727Y-4240000D02*
X2299727Y-2463679D01*
X2204727Y-1091115D02*
X2204727Y-285000D01*
X2204727Y-4240000D02*
X2204727Y-2558679D01*
X2109727Y-1176867D02*
X2109727Y-285000D01*
X2109727Y-4240000D02*
X2109727Y-2653679D01*
X2014727Y-1271867D02*
X2014727Y-285000D01*
X2014727Y-4240000D02*
X2014727Y-2855761D01*
X1919727Y-1366867D02*
X1919727Y-285000D01*
X1919727Y-4240000D02*
X1919727Y-2932426D01*
X1824727Y-1461867D02*
X1824727Y-285000D01*
X1824727Y-4240000D02*
X1824727Y-2973372D01*
X1729727Y-1556867D02*
X1729727Y-285000D01*
X1729727Y-4240000D02*
X1729727Y-2985200D01*
X1634727Y-1625261D02*
X1634727Y-285000D01*
X1634727Y-4240000D02*
X1634727Y-2974365D01*
X1539727Y-1661114D02*
X1539727Y-285000D01*
X1539727Y-4240000D02*
X1539727Y-2939213D01*
X1444727Y-1735581D02*
X1444727Y-285000D01*
X1444727Y-2335581D02*
X1444727Y-2264022D01*
X1444727Y-4240000D02*
X1444727Y-2864022D01*
X1349727Y-1913693D02*
X1349727Y-285000D01*
X1349727Y-2513693D02*
X1349727Y-2088129D01*
X1349727Y-4240000D02*
X1349727Y-2688129D01*
X1254727Y-4240000D02*
X1254727Y-285000D01*
X1159727Y-4240000D02*
X1159727Y-285000D01*
X1064727Y-4240000D02*
X1064727Y-285000D01*
X969727Y-4152032D02*
X969727Y-285000D01*
X874727Y-4057032D02*
X874727Y-285000D01*
X779727Y-3962032D02*
X779727Y-285000D01*
X684727Y-3867032D02*
X684727Y-285000D01*
X589727Y-377693D02*
X589727Y-285000D01*
X589727Y-1377693D02*
X589727Y-921955D01*
X589727Y-2377693D02*
X589727Y-1921955D01*
X589727Y-3377693D02*
X589727Y-2921955D01*
X494727Y-1250997D02*
X494727Y-1049857D01*
X494727Y-2250997D02*
X494727Y-2049857D01*
X494727Y-3250997D02*
X494727Y-3049857D01*
X399727Y-1177025D02*
X399727Y-1123543D01*
X399727Y-2177025D02*
X399727Y-2123543D01*
X399727Y-3177025D02*
X399727Y-3123543D01*
X4932546Y-336852D02*
X4880564Y-432991D01*
X4848245Y-537396D01*
X4836821Y-646090D01*
X4846726Y-754934D01*
X4877584Y-859780D01*
X4928219Y-956635D01*
X4996702Y-1041811D01*
X5080425Y-1112064D01*
X5149727Y-1150163D01*
X5086908Y-1183564D01*
X5002212Y-1252640D01*
X4932546Y-1336852D01*
X4880564Y-1432991D01*
X4848245Y-1537396D01*
X4836821Y-1646090D01*
X4841630Y-1698934D01*
X4347344Y-1204648D01*
X4337635Y-1155610D01*
X4313347Y-1096683D01*
X4278076Y-1043596D01*
X4233165Y-998371D01*
X4180326Y-962731D01*
X4121570Y-938032D01*
X4059136Y-925216D01*
X3995402Y-924771D01*
X3932795Y-936714D01*
X3873700Y-960590D01*
X3820368Y-995489D01*
X3774831Y-1040083D01*
X3738822Y-1092672D01*
X3713714Y-1151254D01*
X3700462Y-1213597D01*
X3699572Y-1277327D01*
X3711078Y-1340016D01*
X3734541Y-1399276D01*
X3769067Y-1452850D01*
X3813342Y-1498698D01*
X3865678Y-1535073D01*
X3924083Y-1560589D01*
X3980241Y-1572937D01*
X4162572Y-1755268D01*
X4121570Y-1738032D01*
X4059136Y-1725216D01*
X3995402Y-1724771D01*
X3932795Y-1736714D01*
X3873700Y-1760590D01*
X3820368Y-1795489D01*
X3774831Y-1840083D01*
X3738822Y-1892672D01*
X3713714Y-1951254D01*
X3700462Y-2013597D01*
X3699572Y-2077327D01*
X3711078Y-2140016D01*
X3734541Y-2199276D01*
X3769067Y-2252850D01*
X3813342Y-2298698D01*
X3865678Y-2335073D01*
X3899877Y-2350014D01*
X3873700Y-2360590D01*
X3820368Y-2395489D01*
X3774831Y-2440083D01*
X3738822Y-2492672D01*
X3713714Y-2551254D01*
X3700462Y-2613597D01*
X3700093Y-2639987D01*
X3637852Y-2639987D01*
X3648998Y-2590930D01*
X3650014Y-2518132D01*
X3637635Y-2455610D01*
X3613347Y-2396683D01*
X3582005Y-2349510D01*
X3608954Y-2311308D01*
X3634877Y-2253082D01*
X3648998Y-2190930D01*
X3650014Y-2118132D01*
X3637635Y-2055610D01*
X3613347Y-1996683D01*
X3578076Y-1943596D01*
X3533165Y-1898371D01*
X3480326Y-1862731D01*
X3421570Y-1838032D01*
X3359136Y-1825216D01*
X3295402Y-1824771D01*
X3232795Y-1836714D01*
X3224662Y-1840000D01*
X2323406Y-1840000D01*
X2503406Y-1660000D01*
X3222735Y-1660000D01*
X3224083Y-1660589D01*
X3286332Y-1674276D01*
X3350054Y-1675611D01*
X3412822Y-1664543D01*
X3472244Y-1641494D01*
X3526058Y-1607343D01*
X3572214Y-1563390D01*
X3608954Y-1511308D01*
X3634877Y-1453082D01*
X3648998Y-1390930D01*
X3650014Y-1318132D01*
X3637635Y-1255610D01*
X3613347Y-1196683D01*
X3578076Y-1143596D01*
X3533165Y-1098371D01*
X3480326Y-1062731D01*
X3421570Y-1038032D01*
X3359136Y-1025216D01*
X3331393Y-1025022D01*
X3363177Y-1004852D01*
X3417853Y-952784D01*
X3461375Y-891088D01*
X3492085Y-822113D01*
X3508812Y-748487D01*
X3510017Y-662249D01*
X3495351Y-588184D01*
X3466580Y-518379D01*
X3424797Y-455491D01*
X3371596Y-401917D01*
X3309001Y-359697D01*
X3239399Y-330438D01*
X3165438Y-315256D01*
X3089938Y-314729D01*
X3015773Y-328877D01*
X2945768Y-357161D01*
X2882590Y-398503D01*
X2828646Y-451329D01*
X2785989Y-513627D01*
X2756246Y-583024D01*
X2740548Y-656877D01*
X2739494Y-732372D01*
X2753123Y-806634D01*
X2780918Y-876834D01*
X2821818Y-940299D01*
X2874266Y-994611D01*
X2936265Y-1037701D01*
X2941527Y-1040000D01*
X2375000Y-1040000D01*
X2346548Y-1042790D01*
X2317976Y-1045290D01*
X2316410Y-1045745D01*
X2314787Y-1045904D01*
X2287391Y-1054175D01*
X2259876Y-1062169D01*
X2258426Y-1062921D01*
X2256868Y-1063391D01*
X2231600Y-1076826D01*
X2206162Y-1090012D01*
X2204889Y-1091029D01*
X2203449Y-1091794D01*
X2181232Y-1109914D01*
X2158879Y-1127758D01*
X2156614Y-1129991D01*
X2156563Y-1130033D01*
X2156524Y-1130080D01*
X2155797Y-1130797D01*
X1667605Y-1618989D01*
X1615773Y-1628877D01*
X1545768Y-1657161D01*
X1482590Y-1698503D01*
X1428646Y-1751329D01*
X1385989Y-1813627D01*
X1356246Y-1883024D01*
X1340548Y-1956877D01*
X1339494Y-2032372D01*
X1353123Y-2106634D01*
X1380918Y-2176834D01*
X1421818Y-2240299D01*
X1474266Y-2294611D01*
X1481459Y-2299610D01*
X1428646Y-2351329D01*
X1385989Y-2413627D01*
X1356246Y-2483024D01*
X1340548Y-2556877D01*
X1339494Y-2632372D01*
X1353123Y-2706634D01*
X1380918Y-2776834D01*
X1421818Y-2840299D01*
X1474266Y-2894611D01*
X1536265Y-2937701D01*
X1605453Y-2967929D01*
X1679194Y-2984142D01*
X1754680Y-2985723D01*
X1829035Y-2972612D01*
X1899428Y-2945308D01*
X1963177Y-2904852D01*
X2017853Y-2852784D01*
X2061375Y-2791088D01*
X2092085Y-2722113D01*
X2107017Y-2656389D01*
X2303406Y-2460000D01*
X3011855Y-2460000D01*
X3000462Y-2513597D01*
X2999572Y-2577327D01*
X3011078Y-2640016D01*
X3034541Y-2699276D01*
X3069067Y-2752850D01*
X3113342Y-2798698D01*
X3165678Y-2835073D01*
X3224083Y-2860589D01*
X3286332Y-2874276D01*
X3291825Y-2874391D01*
X3286025Y-2884941D01*
X3285611Y-2886246D01*
X3284966Y-2887449D01*
X3277938Y-2910435D01*
X3270682Y-2933309D01*
X3270530Y-2934663D01*
X3270129Y-2935975D01*
X3268820Y-2948861D01*
X3238822Y-2992672D01*
X3213714Y-3051254D01*
X3200462Y-3113597D01*
X3199572Y-3177327D01*
X3211078Y-3240016D01*
X3234541Y-3299276D01*
X3269067Y-3352850D01*
X3313342Y-3398698D01*
X3365678Y-3435073D01*
X3424083Y-3460589D01*
X3486332Y-3474276D01*
X3550054Y-3475611D01*
X3612822Y-3464543D01*
X3672244Y-3441494D01*
X3699777Y-3424021D01*
X3712249Y-3432689D01*
X2904938Y-4240000D01*
X1057695Y-4240000D01*
X634864Y-3817169D01*
X651755Y-3762604D01*
X663179Y-3653910D01*
X653274Y-3545066D01*
X622416Y-3440220D01*
X571781Y-3343365D01*
X503298Y-3258189D01*
X419575Y-3187936D01*
X350273Y-3149837D01*
X413092Y-3116436D01*
X497788Y-3047360D01*
X567454Y-2963148D01*
X619436Y-2867009D01*
X651755Y-2762604D01*
X663179Y-2653910D01*
X653274Y-2545066D01*
X622416Y-2440220D01*
X571781Y-2343365D01*
X503298Y-2258189D01*
X419575Y-2187936D01*
X350273Y-2149837D01*
X413092Y-2116436D01*
X497788Y-2047360D01*
X567454Y-1963148D01*
X619436Y-1867009D01*
X651755Y-1762604D01*
X663179Y-1653910D01*
X653274Y-1545066D01*
X622416Y-1440220D01*
X571781Y-1343365D01*
X503298Y-1258189D01*
X419575Y-1187936D01*
X350273Y-1149837D01*
X413092Y-1116436D01*
X497788Y-1047360D01*
X567454Y-963148D01*
X619436Y-867009D01*
X651755Y-762604D01*
X663179Y-653910D01*
X653274Y-545066D01*
X622416Y-440220D01*
X571781Y-343365D01*
X524855Y-285000D01*
X4975442Y-285000D01*
X4932546Y-336852D01*
M02*
