G04 #@! TF.GenerationSoftware,KiCad,Pcbnew,(2017-04-18 revision 68a7a52)-master*
G04 #@! TF.CreationDate,2017-12-22T10:09:43+08:00*
G04 #@! TF.ProjectId,cdctl_bx,636463746C5F62782E6B696361645F70,rev?*
G04 #@! TF.FileFunction,Soldermask,Top*
G04 #@! TF.FilePolarity,Negative*
%FSLAX46Y46*%
G04 Gerber Fmt 4.6, Leading zero omitted, Abs format (unit mm)*
G04 Created by KiCad (PCBNEW (2017-04-18 revision 68a7a52)-master) date Fri Dec 22 10:09:43 2017*
%MOMM*%
%LPD*%
G01*
G04 APERTURE LIST*
%ADD10C,0.100000*%
%ADD11C,0.330000*%
%ADD12R,1.000000X0.900000*%
%ADD13C,0.250000*%
%ADD14C,0.400000*%
%ADD15O,1.000000X0.800000*%
G04 APERTURE END LIST*
D10*
D11*
X4325000Y-2950000D03*
X3925000Y-2950000D03*
X3525000Y-2950000D03*
X3125000Y-2950000D03*
X2725000Y-2950000D03*
X2325000Y-2950000D03*
X4325000Y-2550000D03*
X3925000Y-2550000D03*
X3525000Y-2550000D03*
X3125000Y-2550000D03*
X2725000Y-2550000D03*
X2325000Y-2550000D03*
X4325000Y-2150000D03*
X3925000Y-2150000D03*
X3525000Y-2150000D03*
X3125000Y-2150000D03*
X2725000Y-2150000D03*
X2325000Y-2150000D03*
X4325000Y-1750000D03*
X3925000Y-1750000D03*
X3525000Y-1750000D03*
X3125000Y-1750000D03*
X2725000Y-1750000D03*
X2325000Y-1750000D03*
X4325000Y-1350000D03*
X3925000Y-1350000D03*
X3525000Y-1350000D03*
X3125000Y-1350000D03*
X2725000Y-1350000D03*
X2325000Y-1350000D03*
X4325000Y-950000D03*
X3925000Y-950000D03*
X3525000Y-950000D03*
X3125000Y-950000D03*
X2725000Y-950000D03*
X2325000Y-950000D03*
D12*
X2475000Y-4750000D03*
X2475000Y-5850000D03*
X3875000Y-4750000D03*
X3875000Y-5850000D03*
D13*
X2000000Y-7600000D03*
X2000000Y-7250000D03*
X1650000Y-7600000D03*
X1650000Y-7250000D03*
D10*
G36*
X1081960Y-575096D02*
X1083902Y-575384D01*
X1085806Y-575861D01*
X1087654Y-576522D01*
X1089428Y-577362D01*
X1091111Y-578371D01*
X1092688Y-579540D01*
X1094142Y-580858D01*
X1095460Y-582312D01*
X1096629Y-583889D01*
X1097638Y-585572D01*
X1098478Y-587346D01*
X1099139Y-589194D01*
X1099616Y-591098D01*
X1099904Y-593040D01*
X1100000Y-595000D01*
X1100000Y-955000D01*
X1099904Y-956960D01*
X1099616Y-958902D01*
X1099139Y-960806D01*
X1098478Y-962654D01*
X1097638Y-964428D01*
X1096629Y-966111D01*
X1095460Y-967688D01*
X1094142Y-969142D01*
X1092688Y-970460D01*
X1091111Y-971629D01*
X1089428Y-972638D01*
X1087654Y-973478D01*
X1085806Y-974139D01*
X1083902Y-974616D01*
X1081960Y-974904D01*
X1080000Y-975000D01*
X670000Y-975000D01*
X668040Y-974904D01*
X666098Y-974616D01*
X664194Y-974139D01*
X662346Y-973478D01*
X660572Y-972638D01*
X658889Y-971629D01*
X657312Y-970460D01*
X655858Y-969142D01*
X654540Y-967688D01*
X653371Y-966111D01*
X652362Y-964428D01*
X651522Y-962654D01*
X650861Y-960806D01*
X650384Y-958902D01*
X650096Y-956960D01*
X650000Y-955000D01*
X650000Y-595000D01*
X650096Y-593040D01*
X650384Y-591098D01*
X650861Y-589194D01*
X651522Y-587346D01*
X652362Y-585572D01*
X653371Y-583889D01*
X654540Y-582312D01*
X655858Y-580858D01*
X657312Y-579540D01*
X658889Y-578371D01*
X660572Y-577362D01*
X662346Y-576522D01*
X664194Y-575861D01*
X666098Y-575384D01*
X668040Y-575096D01*
X670000Y-575000D01*
X1080000Y-575000D01*
X1081960Y-575096D01*
X1081960Y-575096D01*
G37*
D14*
X875000Y-775000D03*
D10*
G36*
X1681960Y-575096D02*
X1683902Y-575384D01*
X1685806Y-575861D01*
X1687654Y-576522D01*
X1689428Y-577362D01*
X1691111Y-578371D01*
X1692688Y-579540D01*
X1694142Y-580858D01*
X1695460Y-582312D01*
X1696629Y-583889D01*
X1697638Y-585572D01*
X1698478Y-587346D01*
X1699139Y-589194D01*
X1699616Y-591098D01*
X1699904Y-593040D01*
X1700000Y-595000D01*
X1700000Y-955000D01*
X1699904Y-956960D01*
X1699616Y-958902D01*
X1699139Y-960806D01*
X1698478Y-962654D01*
X1697638Y-964428D01*
X1696629Y-966111D01*
X1695460Y-967688D01*
X1694142Y-969142D01*
X1692688Y-970460D01*
X1691111Y-971629D01*
X1689428Y-972638D01*
X1687654Y-973478D01*
X1685806Y-974139D01*
X1683902Y-974616D01*
X1681960Y-974904D01*
X1680000Y-975000D01*
X1270000Y-975000D01*
X1268040Y-974904D01*
X1266098Y-974616D01*
X1264194Y-974139D01*
X1262346Y-973478D01*
X1260572Y-972638D01*
X1258889Y-971629D01*
X1257312Y-970460D01*
X1255858Y-969142D01*
X1254540Y-967688D01*
X1253371Y-966111D01*
X1252362Y-964428D01*
X1251522Y-962654D01*
X1250861Y-960806D01*
X1250384Y-958902D01*
X1250096Y-956960D01*
X1250000Y-955000D01*
X1250000Y-595000D01*
X1250096Y-593040D01*
X1250384Y-591098D01*
X1250861Y-589194D01*
X1251522Y-587346D01*
X1252362Y-585572D01*
X1253371Y-583889D01*
X1254540Y-582312D01*
X1255858Y-580858D01*
X1257312Y-579540D01*
X1258889Y-578371D01*
X1260572Y-577362D01*
X1262346Y-576522D01*
X1264194Y-575861D01*
X1266098Y-575384D01*
X1268040Y-575096D01*
X1270000Y-575000D01*
X1680000Y-575000D01*
X1681960Y-575096D01*
X1681960Y-575096D01*
G37*
D14*
X1475000Y-775000D03*
D10*
G36*
X1081960Y-1800096D02*
X1083902Y-1800384D01*
X1085806Y-1800861D01*
X1087654Y-1801522D01*
X1089428Y-1802362D01*
X1091111Y-1803371D01*
X1092688Y-1804540D01*
X1094142Y-1805858D01*
X1095460Y-1807312D01*
X1096629Y-1808889D01*
X1097638Y-1810572D01*
X1098478Y-1812346D01*
X1099139Y-1814194D01*
X1099616Y-1816098D01*
X1099904Y-1818040D01*
X1100000Y-1820000D01*
X1100000Y-2180000D01*
X1099904Y-2181960D01*
X1099616Y-2183902D01*
X1099139Y-2185806D01*
X1098478Y-2187654D01*
X1097638Y-2189428D01*
X1096629Y-2191111D01*
X1095460Y-2192688D01*
X1094142Y-2194142D01*
X1092688Y-2195460D01*
X1091111Y-2196629D01*
X1089428Y-2197638D01*
X1087654Y-2198478D01*
X1085806Y-2199139D01*
X1083902Y-2199616D01*
X1081960Y-2199904D01*
X1080000Y-2200000D01*
X670000Y-2200000D01*
X668040Y-2199904D01*
X666098Y-2199616D01*
X664194Y-2199139D01*
X662346Y-2198478D01*
X660572Y-2197638D01*
X658889Y-2196629D01*
X657312Y-2195460D01*
X655858Y-2194142D01*
X654540Y-2192688D01*
X653371Y-2191111D01*
X652362Y-2189428D01*
X651522Y-2187654D01*
X650861Y-2185806D01*
X650384Y-2183902D01*
X650096Y-2181960D01*
X650000Y-2180000D01*
X650000Y-1820000D01*
X650096Y-1818040D01*
X650384Y-1816098D01*
X650861Y-1814194D01*
X651522Y-1812346D01*
X652362Y-1810572D01*
X653371Y-1808889D01*
X654540Y-1807312D01*
X655858Y-1805858D01*
X657312Y-1804540D01*
X658889Y-1803371D01*
X660572Y-1802362D01*
X662346Y-1801522D01*
X664194Y-1800861D01*
X666098Y-1800384D01*
X668040Y-1800096D01*
X670000Y-1800000D01*
X1080000Y-1800000D01*
X1081960Y-1800096D01*
X1081960Y-1800096D01*
G37*
D14*
X875000Y-2000000D03*
D10*
G36*
X1681960Y-1800096D02*
X1683902Y-1800384D01*
X1685806Y-1800861D01*
X1687654Y-1801522D01*
X1689428Y-1802362D01*
X1691111Y-1803371D01*
X1692688Y-1804540D01*
X1694142Y-1805858D01*
X1695460Y-1807312D01*
X1696629Y-1808889D01*
X1697638Y-1810572D01*
X1698478Y-1812346D01*
X1699139Y-1814194D01*
X1699616Y-1816098D01*
X1699904Y-1818040D01*
X1700000Y-1820000D01*
X1700000Y-2180000D01*
X1699904Y-2181960D01*
X1699616Y-2183902D01*
X1699139Y-2185806D01*
X1698478Y-2187654D01*
X1697638Y-2189428D01*
X1696629Y-2191111D01*
X1695460Y-2192688D01*
X1694142Y-2194142D01*
X1692688Y-2195460D01*
X1691111Y-2196629D01*
X1689428Y-2197638D01*
X1687654Y-2198478D01*
X1685806Y-2199139D01*
X1683902Y-2199616D01*
X1681960Y-2199904D01*
X1680000Y-2200000D01*
X1270000Y-2200000D01*
X1268040Y-2199904D01*
X1266098Y-2199616D01*
X1264194Y-2199139D01*
X1262346Y-2198478D01*
X1260572Y-2197638D01*
X1258889Y-2196629D01*
X1257312Y-2195460D01*
X1255858Y-2194142D01*
X1254540Y-2192688D01*
X1253371Y-2191111D01*
X1252362Y-2189428D01*
X1251522Y-2187654D01*
X1250861Y-2185806D01*
X1250384Y-2183902D01*
X1250096Y-2181960D01*
X1250000Y-2180000D01*
X1250000Y-1820000D01*
X1250096Y-1818040D01*
X1250384Y-1816098D01*
X1250861Y-1814194D01*
X1251522Y-1812346D01*
X1252362Y-1810572D01*
X1253371Y-1808889D01*
X1254540Y-1807312D01*
X1255858Y-1805858D01*
X1257312Y-1804540D01*
X1258889Y-1803371D01*
X1260572Y-1802362D01*
X1262346Y-1801522D01*
X1264194Y-1800861D01*
X1266098Y-1800384D01*
X1268040Y-1800096D01*
X1270000Y-1800000D01*
X1680000Y-1800000D01*
X1681960Y-1800096D01*
X1681960Y-1800096D01*
G37*
D14*
X1475000Y-2000000D03*
D10*
G36*
X1081960Y-2400096D02*
X1083902Y-2400384D01*
X1085806Y-2400861D01*
X1087654Y-2401522D01*
X1089428Y-2402362D01*
X1091111Y-2403371D01*
X1092688Y-2404540D01*
X1094142Y-2405858D01*
X1095460Y-2407312D01*
X1096629Y-2408889D01*
X1097638Y-2410572D01*
X1098478Y-2412346D01*
X1099139Y-2414194D01*
X1099616Y-2416098D01*
X1099904Y-2418040D01*
X1100000Y-2420000D01*
X1100000Y-2780000D01*
X1099904Y-2781960D01*
X1099616Y-2783902D01*
X1099139Y-2785806D01*
X1098478Y-2787654D01*
X1097638Y-2789428D01*
X1096629Y-2791111D01*
X1095460Y-2792688D01*
X1094142Y-2794142D01*
X1092688Y-2795460D01*
X1091111Y-2796629D01*
X1089428Y-2797638D01*
X1087654Y-2798478D01*
X1085806Y-2799139D01*
X1083902Y-2799616D01*
X1081960Y-2799904D01*
X1080000Y-2800000D01*
X670000Y-2800000D01*
X668040Y-2799904D01*
X666098Y-2799616D01*
X664194Y-2799139D01*
X662346Y-2798478D01*
X660572Y-2797638D01*
X658889Y-2796629D01*
X657312Y-2795460D01*
X655858Y-2794142D01*
X654540Y-2792688D01*
X653371Y-2791111D01*
X652362Y-2789428D01*
X651522Y-2787654D01*
X650861Y-2785806D01*
X650384Y-2783902D01*
X650096Y-2781960D01*
X650000Y-2780000D01*
X650000Y-2420000D01*
X650096Y-2418040D01*
X650384Y-2416098D01*
X650861Y-2414194D01*
X651522Y-2412346D01*
X652362Y-2410572D01*
X653371Y-2408889D01*
X654540Y-2407312D01*
X655858Y-2405858D01*
X657312Y-2404540D01*
X658889Y-2403371D01*
X660572Y-2402362D01*
X662346Y-2401522D01*
X664194Y-2400861D01*
X666098Y-2400384D01*
X668040Y-2400096D01*
X670000Y-2400000D01*
X1080000Y-2400000D01*
X1081960Y-2400096D01*
X1081960Y-2400096D01*
G37*
D14*
X875000Y-2600000D03*
D10*
G36*
X1681960Y-2400096D02*
X1683902Y-2400384D01*
X1685806Y-2400861D01*
X1687654Y-2401522D01*
X1689428Y-2402362D01*
X1691111Y-2403371D01*
X1692688Y-2404540D01*
X1694142Y-2405858D01*
X1695460Y-2407312D01*
X1696629Y-2408889D01*
X1697638Y-2410572D01*
X1698478Y-2412346D01*
X1699139Y-2414194D01*
X1699616Y-2416098D01*
X1699904Y-2418040D01*
X1700000Y-2420000D01*
X1700000Y-2780000D01*
X1699904Y-2781960D01*
X1699616Y-2783902D01*
X1699139Y-2785806D01*
X1698478Y-2787654D01*
X1697638Y-2789428D01*
X1696629Y-2791111D01*
X1695460Y-2792688D01*
X1694142Y-2794142D01*
X1692688Y-2795460D01*
X1691111Y-2796629D01*
X1689428Y-2797638D01*
X1687654Y-2798478D01*
X1685806Y-2799139D01*
X1683902Y-2799616D01*
X1681960Y-2799904D01*
X1680000Y-2800000D01*
X1270000Y-2800000D01*
X1268040Y-2799904D01*
X1266098Y-2799616D01*
X1264194Y-2799139D01*
X1262346Y-2798478D01*
X1260572Y-2797638D01*
X1258889Y-2796629D01*
X1257312Y-2795460D01*
X1255858Y-2794142D01*
X1254540Y-2792688D01*
X1253371Y-2791111D01*
X1252362Y-2789428D01*
X1251522Y-2787654D01*
X1250861Y-2785806D01*
X1250384Y-2783902D01*
X1250096Y-2781960D01*
X1250000Y-2780000D01*
X1250000Y-2420000D01*
X1250096Y-2418040D01*
X1250384Y-2416098D01*
X1250861Y-2414194D01*
X1251522Y-2412346D01*
X1252362Y-2410572D01*
X1253371Y-2408889D01*
X1254540Y-2407312D01*
X1255858Y-2405858D01*
X1257312Y-2404540D01*
X1258889Y-2403371D01*
X1260572Y-2402362D01*
X1262346Y-2401522D01*
X1264194Y-2400861D01*
X1266098Y-2400384D01*
X1268040Y-2400096D01*
X1270000Y-2400000D01*
X1680000Y-2400000D01*
X1681960Y-2400096D01*
X1681960Y-2400096D01*
G37*
D14*
X1475000Y-2600000D03*
D10*
G36*
X1106960Y-7500096D02*
X1108902Y-7500384D01*
X1110806Y-7500861D01*
X1112654Y-7501522D01*
X1114428Y-7502362D01*
X1116111Y-7503371D01*
X1117688Y-7504540D01*
X1119142Y-7505858D01*
X1120460Y-7507312D01*
X1121629Y-7508889D01*
X1122638Y-7510572D01*
X1123478Y-7512346D01*
X1124139Y-7514194D01*
X1124616Y-7516098D01*
X1124904Y-7518040D01*
X1125000Y-7520000D01*
X1125000Y-7930000D01*
X1124904Y-7931960D01*
X1124616Y-7933902D01*
X1124139Y-7935806D01*
X1123478Y-7937654D01*
X1122638Y-7939428D01*
X1121629Y-7941111D01*
X1120460Y-7942688D01*
X1119142Y-7944142D01*
X1117688Y-7945460D01*
X1116111Y-7946629D01*
X1114428Y-7947638D01*
X1112654Y-7948478D01*
X1110806Y-7949139D01*
X1108902Y-7949616D01*
X1106960Y-7949904D01*
X1105000Y-7950000D01*
X745000Y-7950000D01*
X743040Y-7949904D01*
X741098Y-7949616D01*
X739194Y-7949139D01*
X737346Y-7948478D01*
X735572Y-7947638D01*
X733889Y-7946629D01*
X732312Y-7945460D01*
X730858Y-7944142D01*
X729540Y-7942688D01*
X728371Y-7941111D01*
X727362Y-7939428D01*
X726522Y-7937654D01*
X725861Y-7935806D01*
X725384Y-7933902D01*
X725096Y-7931960D01*
X725000Y-7930000D01*
X725000Y-7520000D01*
X725096Y-7518040D01*
X725384Y-7516098D01*
X725861Y-7514194D01*
X726522Y-7512346D01*
X727362Y-7510572D01*
X728371Y-7508889D01*
X729540Y-7507312D01*
X730858Y-7505858D01*
X732312Y-7504540D01*
X733889Y-7503371D01*
X735572Y-7502362D01*
X737346Y-7501522D01*
X739194Y-7500861D01*
X741098Y-7500384D01*
X743040Y-7500096D01*
X745000Y-7500000D01*
X1105000Y-7500000D01*
X1106960Y-7500096D01*
X1106960Y-7500096D01*
G37*
D14*
X925000Y-7725000D03*
D10*
G36*
X1106960Y-6900096D02*
X1108902Y-6900384D01*
X1110806Y-6900861D01*
X1112654Y-6901522D01*
X1114428Y-6902362D01*
X1116111Y-6903371D01*
X1117688Y-6904540D01*
X1119142Y-6905858D01*
X1120460Y-6907312D01*
X1121629Y-6908889D01*
X1122638Y-6910572D01*
X1123478Y-6912346D01*
X1124139Y-6914194D01*
X1124616Y-6916098D01*
X1124904Y-6918040D01*
X1125000Y-6920000D01*
X1125000Y-7330000D01*
X1124904Y-7331960D01*
X1124616Y-7333902D01*
X1124139Y-7335806D01*
X1123478Y-7337654D01*
X1122638Y-7339428D01*
X1121629Y-7341111D01*
X1120460Y-7342688D01*
X1119142Y-7344142D01*
X1117688Y-7345460D01*
X1116111Y-7346629D01*
X1114428Y-7347638D01*
X1112654Y-7348478D01*
X1110806Y-7349139D01*
X1108902Y-7349616D01*
X1106960Y-7349904D01*
X1105000Y-7350000D01*
X745000Y-7350000D01*
X743040Y-7349904D01*
X741098Y-7349616D01*
X739194Y-7349139D01*
X737346Y-7348478D01*
X735572Y-7347638D01*
X733889Y-7346629D01*
X732312Y-7345460D01*
X730858Y-7344142D01*
X729540Y-7342688D01*
X728371Y-7341111D01*
X727362Y-7339428D01*
X726522Y-7337654D01*
X725861Y-7335806D01*
X725384Y-7333902D01*
X725096Y-7331960D01*
X725000Y-7330000D01*
X725000Y-6920000D01*
X725096Y-6918040D01*
X725384Y-6916098D01*
X725861Y-6914194D01*
X726522Y-6912346D01*
X727362Y-6910572D01*
X728371Y-6908889D01*
X729540Y-6907312D01*
X730858Y-6905858D01*
X732312Y-6904540D01*
X733889Y-6903371D01*
X735572Y-6902362D01*
X737346Y-6901522D01*
X739194Y-6900861D01*
X741098Y-6900384D01*
X743040Y-6900096D01*
X745000Y-6900000D01*
X1105000Y-6900000D01*
X1106960Y-6900096D01*
X1106960Y-6900096D01*
G37*
D14*
X925000Y-7125000D03*
D10*
G36*
X3531960Y-6925096D02*
X3533902Y-6925384D01*
X3535806Y-6925861D01*
X3537654Y-6926522D01*
X3539428Y-6927362D01*
X3541111Y-6928371D01*
X3542688Y-6929540D01*
X3544142Y-6930858D01*
X3545460Y-6932312D01*
X3546629Y-6933889D01*
X3547638Y-6935572D01*
X3548478Y-6937346D01*
X3549139Y-6939194D01*
X3549616Y-6941098D01*
X3549904Y-6943040D01*
X3550000Y-6945000D01*
X3550000Y-7305000D01*
X3549904Y-7306960D01*
X3549616Y-7308902D01*
X3549139Y-7310806D01*
X3548478Y-7312654D01*
X3547638Y-7314428D01*
X3546629Y-7316111D01*
X3545460Y-7317688D01*
X3544142Y-7319142D01*
X3542688Y-7320460D01*
X3541111Y-7321629D01*
X3539428Y-7322638D01*
X3537654Y-7323478D01*
X3535806Y-7324139D01*
X3533902Y-7324616D01*
X3531960Y-7324904D01*
X3530000Y-7325000D01*
X3120000Y-7325000D01*
X3118040Y-7324904D01*
X3116098Y-7324616D01*
X3114194Y-7324139D01*
X3112346Y-7323478D01*
X3110572Y-7322638D01*
X3108889Y-7321629D01*
X3107312Y-7320460D01*
X3105858Y-7319142D01*
X3104540Y-7317688D01*
X3103371Y-7316111D01*
X3102362Y-7314428D01*
X3101522Y-7312654D01*
X3100861Y-7310806D01*
X3100384Y-7308902D01*
X3100096Y-7306960D01*
X3100000Y-7305000D01*
X3100000Y-6945000D01*
X3100096Y-6943040D01*
X3100384Y-6941098D01*
X3100861Y-6939194D01*
X3101522Y-6937346D01*
X3102362Y-6935572D01*
X3103371Y-6933889D01*
X3104540Y-6932312D01*
X3105858Y-6930858D01*
X3107312Y-6929540D01*
X3108889Y-6928371D01*
X3110572Y-6927362D01*
X3112346Y-6926522D01*
X3114194Y-6925861D01*
X3116098Y-6925384D01*
X3118040Y-6925096D01*
X3120000Y-6925000D01*
X3530000Y-6925000D01*
X3531960Y-6925096D01*
X3531960Y-6925096D01*
G37*
D14*
X3325000Y-7125000D03*
D10*
G36*
X2931960Y-6925096D02*
X2933902Y-6925384D01*
X2935806Y-6925861D01*
X2937654Y-6926522D01*
X2939428Y-6927362D01*
X2941111Y-6928371D01*
X2942688Y-6929540D01*
X2944142Y-6930858D01*
X2945460Y-6932312D01*
X2946629Y-6933889D01*
X2947638Y-6935572D01*
X2948478Y-6937346D01*
X2949139Y-6939194D01*
X2949616Y-6941098D01*
X2949904Y-6943040D01*
X2950000Y-6945000D01*
X2950000Y-7305000D01*
X2949904Y-7306960D01*
X2949616Y-7308902D01*
X2949139Y-7310806D01*
X2948478Y-7312654D01*
X2947638Y-7314428D01*
X2946629Y-7316111D01*
X2945460Y-7317688D01*
X2944142Y-7319142D01*
X2942688Y-7320460D01*
X2941111Y-7321629D01*
X2939428Y-7322638D01*
X2937654Y-7323478D01*
X2935806Y-7324139D01*
X2933902Y-7324616D01*
X2931960Y-7324904D01*
X2930000Y-7325000D01*
X2520000Y-7325000D01*
X2518040Y-7324904D01*
X2516098Y-7324616D01*
X2514194Y-7324139D01*
X2512346Y-7323478D01*
X2510572Y-7322638D01*
X2508889Y-7321629D01*
X2507312Y-7320460D01*
X2505858Y-7319142D01*
X2504540Y-7317688D01*
X2503371Y-7316111D01*
X2502362Y-7314428D01*
X2501522Y-7312654D01*
X2500861Y-7310806D01*
X2500384Y-7308902D01*
X2500096Y-7306960D01*
X2500000Y-7305000D01*
X2500000Y-6945000D01*
X2500096Y-6943040D01*
X2500384Y-6941098D01*
X2500861Y-6939194D01*
X2501522Y-6937346D01*
X2502362Y-6935572D01*
X2503371Y-6933889D01*
X2504540Y-6932312D01*
X2505858Y-6930858D01*
X2507312Y-6929540D01*
X2508889Y-6928371D01*
X2510572Y-6927362D01*
X2512346Y-6926522D01*
X2514194Y-6925861D01*
X2516098Y-6925384D01*
X2518040Y-6925096D01*
X2520000Y-6925000D01*
X2930000Y-6925000D01*
X2931960Y-6925096D01*
X2931960Y-6925096D01*
G37*
D14*
X2725000Y-7125000D03*
D10*
G36*
X1656960Y-5375096D02*
X1658902Y-5375384D01*
X1660806Y-5375861D01*
X1662654Y-5376522D01*
X1664428Y-5377362D01*
X1666111Y-5378371D01*
X1667688Y-5379540D01*
X1669142Y-5380858D01*
X1670460Y-5382312D01*
X1671629Y-5383889D01*
X1672638Y-5385572D01*
X1673478Y-5387346D01*
X1674139Y-5389194D01*
X1674616Y-5391098D01*
X1674904Y-5393040D01*
X1675000Y-5395000D01*
X1675000Y-5805000D01*
X1674904Y-5806960D01*
X1674616Y-5808902D01*
X1674139Y-5810806D01*
X1673478Y-5812654D01*
X1672638Y-5814428D01*
X1671629Y-5816111D01*
X1670460Y-5817688D01*
X1669142Y-5819142D01*
X1667688Y-5820460D01*
X1666111Y-5821629D01*
X1664428Y-5822638D01*
X1662654Y-5823478D01*
X1660806Y-5824139D01*
X1658902Y-5824616D01*
X1656960Y-5824904D01*
X1655000Y-5825000D01*
X1295000Y-5825000D01*
X1293040Y-5824904D01*
X1291098Y-5824616D01*
X1289194Y-5824139D01*
X1287346Y-5823478D01*
X1285572Y-5822638D01*
X1283889Y-5821629D01*
X1282312Y-5820460D01*
X1280858Y-5819142D01*
X1279540Y-5817688D01*
X1278371Y-5816111D01*
X1277362Y-5814428D01*
X1276522Y-5812654D01*
X1275861Y-5810806D01*
X1275384Y-5808902D01*
X1275096Y-5806960D01*
X1275000Y-5805000D01*
X1275000Y-5395000D01*
X1275096Y-5393040D01*
X1275384Y-5391098D01*
X1275861Y-5389194D01*
X1276522Y-5387346D01*
X1277362Y-5385572D01*
X1278371Y-5383889D01*
X1279540Y-5382312D01*
X1280858Y-5380858D01*
X1282312Y-5379540D01*
X1283889Y-5378371D01*
X1285572Y-5377362D01*
X1287346Y-5376522D01*
X1289194Y-5375861D01*
X1291098Y-5375384D01*
X1293040Y-5375096D01*
X1295000Y-5375000D01*
X1655000Y-5375000D01*
X1656960Y-5375096D01*
X1656960Y-5375096D01*
G37*
D14*
X1475000Y-5600000D03*
D10*
G36*
X1656960Y-4775096D02*
X1658902Y-4775384D01*
X1660806Y-4775861D01*
X1662654Y-4776522D01*
X1664428Y-4777362D01*
X1666111Y-4778371D01*
X1667688Y-4779540D01*
X1669142Y-4780858D01*
X1670460Y-4782312D01*
X1671629Y-4783889D01*
X1672638Y-4785572D01*
X1673478Y-4787346D01*
X1674139Y-4789194D01*
X1674616Y-4791098D01*
X1674904Y-4793040D01*
X1675000Y-4795000D01*
X1675000Y-5205000D01*
X1674904Y-5206960D01*
X1674616Y-5208902D01*
X1674139Y-5210806D01*
X1673478Y-5212654D01*
X1672638Y-5214428D01*
X1671629Y-5216111D01*
X1670460Y-5217688D01*
X1669142Y-5219142D01*
X1667688Y-5220460D01*
X1666111Y-5221629D01*
X1664428Y-5222638D01*
X1662654Y-5223478D01*
X1660806Y-5224139D01*
X1658902Y-5224616D01*
X1656960Y-5224904D01*
X1655000Y-5225000D01*
X1295000Y-5225000D01*
X1293040Y-5224904D01*
X1291098Y-5224616D01*
X1289194Y-5224139D01*
X1287346Y-5223478D01*
X1285572Y-5222638D01*
X1283889Y-5221629D01*
X1282312Y-5220460D01*
X1280858Y-5219142D01*
X1279540Y-5217688D01*
X1278371Y-5216111D01*
X1277362Y-5214428D01*
X1276522Y-5212654D01*
X1275861Y-5210806D01*
X1275384Y-5208902D01*
X1275096Y-5206960D01*
X1275000Y-5205000D01*
X1275000Y-4795000D01*
X1275096Y-4793040D01*
X1275384Y-4791098D01*
X1275861Y-4789194D01*
X1276522Y-4787346D01*
X1277362Y-4785572D01*
X1278371Y-4783889D01*
X1279540Y-4782312D01*
X1280858Y-4780858D01*
X1282312Y-4779540D01*
X1283889Y-4778371D01*
X1285572Y-4777362D01*
X1287346Y-4776522D01*
X1289194Y-4775861D01*
X1291098Y-4775384D01*
X1293040Y-4775096D01*
X1295000Y-4775000D01*
X1655000Y-4775000D01*
X1656960Y-4775096D01*
X1656960Y-4775096D01*
G37*
D14*
X1475000Y-5000000D03*
D10*
G36*
X4081960Y-3600096D02*
X4083902Y-3600384D01*
X4085806Y-3600861D01*
X4087654Y-3601522D01*
X4089428Y-3602362D01*
X4091111Y-3603371D01*
X4092688Y-3604540D01*
X4094142Y-3605858D01*
X4095460Y-3607312D01*
X4096629Y-3608889D01*
X4097638Y-3610572D01*
X4098478Y-3612346D01*
X4099139Y-3614194D01*
X4099616Y-3616098D01*
X4099904Y-3618040D01*
X4100000Y-3620000D01*
X4100000Y-3980000D01*
X4099904Y-3981960D01*
X4099616Y-3983902D01*
X4099139Y-3985806D01*
X4098478Y-3987654D01*
X4097638Y-3989428D01*
X4096629Y-3991111D01*
X4095460Y-3992688D01*
X4094142Y-3994142D01*
X4092688Y-3995460D01*
X4091111Y-3996629D01*
X4089428Y-3997638D01*
X4087654Y-3998478D01*
X4085806Y-3999139D01*
X4083902Y-3999616D01*
X4081960Y-3999904D01*
X4080000Y-4000000D01*
X3670000Y-4000000D01*
X3668040Y-3999904D01*
X3666098Y-3999616D01*
X3664194Y-3999139D01*
X3662346Y-3998478D01*
X3660572Y-3997638D01*
X3658889Y-3996629D01*
X3657312Y-3995460D01*
X3655858Y-3994142D01*
X3654540Y-3992688D01*
X3653371Y-3991111D01*
X3652362Y-3989428D01*
X3651522Y-3987654D01*
X3650861Y-3985806D01*
X3650384Y-3983902D01*
X3650096Y-3981960D01*
X3650000Y-3980000D01*
X3650000Y-3620000D01*
X3650096Y-3618040D01*
X3650384Y-3616098D01*
X3650861Y-3614194D01*
X3651522Y-3612346D01*
X3652362Y-3610572D01*
X3653371Y-3608889D01*
X3654540Y-3607312D01*
X3655858Y-3605858D01*
X3657312Y-3604540D01*
X3658889Y-3603371D01*
X3660572Y-3602362D01*
X3662346Y-3601522D01*
X3664194Y-3600861D01*
X3666098Y-3600384D01*
X3668040Y-3600096D01*
X3670000Y-3600000D01*
X4080000Y-3600000D01*
X4081960Y-3600096D01*
X4081960Y-3600096D01*
G37*
D14*
X3875000Y-3800000D03*
D10*
G36*
X3481960Y-3600096D02*
X3483902Y-3600384D01*
X3485806Y-3600861D01*
X3487654Y-3601522D01*
X3489428Y-3602362D01*
X3491111Y-3603371D01*
X3492688Y-3604540D01*
X3494142Y-3605858D01*
X3495460Y-3607312D01*
X3496629Y-3608889D01*
X3497638Y-3610572D01*
X3498478Y-3612346D01*
X3499139Y-3614194D01*
X3499616Y-3616098D01*
X3499904Y-3618040D01*
X3500000Y-3620000D01*
X3500000Y-3980000D01*
X3499904Y-3981960D01*
X3499616Y-3983902D01*
X3499139Y-3985806D01*
X3498478Y-3987654D01*
X3497638Y-3989428D01*
X3496629Y-3991111D01*
X3495460Y-3992688D01*
X3494142Y-3994142D01*
X3492688Y-3995460D01*
X3491111Y-3996629D01*
X3489428Y-3997638D01*
X3487654Y-3998478D01*
X3485806Y-3999139D01*
X3483902Y-3999616D01*
X3481960Y-3999904D01*
X3480000Y-4000000D01*
X3070000Y-4000000D01*
X3068040Y-3999904D01*
X3066098Y-3999616D01*
X3064194Y-3999139D01*
X3062346Y-3998478D01*
X3060572Y-3997638D01*
X3058889Y-3996629D01*
X3057312Y-3995460D01*
X3055858Y-3994142D01*
X3054540Y-3992688D01*
X3053371Y-3991111D01*
X3052362Y-3989428D01*
X3051522Y-3987654D01*
X3050861Y-3985806D01*
X3050384Y-3983902D01*
X3050096Y-3981960D01*
X3050000Y-3980000D01*
X3050000Y-3620000D01*
X3050096Y-3618040D01*
X3050384Y-3616098D01*
X3050861Y-3614194D01*
X3051522Y-3612346D01*
X3052362Y-3610572D01*
X3053371Y-3608889D01*
X3054540Y-3607312D01*
X3055858Y-3605858D01*
X3057312Y-3604540D01*
X3058889Y-3603371D01*
X3060572Y-3602362D01*
X3062346Y-3601522D01*
X3064194Y-3600861D01*
X3066098Y-3600384D01*
X3068040Y-3600096D01*
X3070000Y-3600000D01*
X3480000Y-3600000D01*
X3481960Y-3600096D01*
X3481960Y-3600096D01*
G37*
D14*
X3275000Y-3800000D03*
D15*
X0Y-7650000D03*
X0Y-6650000D03*
X0Y-5650000D03*
X0Y-4650000D03*
X0Y-3650000D03*
X0Y-2650000D03*
X0Y-1650000D03*
X0Y-650000D03*
X5500000Y-7650000D03*
X5500000Y-6650000D03*
X5500000Y-5650000D03*
X5500000Y-4650000D03*
X5500000Y-3650000D03*
X5500000Y-2650000D03*
X5500000Y-1650000D03*
X5500000Y-650000D03*
D10*
G36*
X4656960Y-7375096D02*
X4658902Y-7375384D01*
X4660806Y-7375861D01*
X4662654Y-7376522D01*
X4664428Y-7377362D01*
X4666111Y-7378371D01*
X4667688Y-7379540D01*
X4669142Y-7380858D01*
X4670460Y-7382312D01*
X4671629Y-7383889D01*
X4672638Y-7385572D01*
X4673478Y-7387346D01*
X4674139Y-7389194D01*
X4674616Y-7391098D01*
X4674904Y-7393040D01*
X4675000Y-7395000D01*
X4675000Y-7805000D01*
X4674904Y-7806960D01*
X4674616Y-7808902D01*
X4674139Y-7810806D01*
X4673478Y-7812654D01*
X4672638Y-7814428D01*
X4671629Y-7816111D01*
X4670460Y-7817688D01*
X4669142Y-7819142D01*
X4667688Y-7820460D01*
X4666111Y-7821629D01*
X4664428Y-7822638D01*
X4662654Y-7823478D01*
X4660806Y-7824139D01*
X4658902Y-7824616D01*
X4656960Y-7824904D01*
X4655000Y-7825000D01*
X4295000Y-7825000D01*
X4293040Y-7824904D01*
X4291098Y-7824616D01*
X4289194Y-7824139D01*
X4287346Y-7823478D01*
X4285572Y-7822638D01*
X4283889Y-7821629D01*
X4282312Y-7820460D01*
X4280858Y-7819142D01*
X4279540Y-7817688D01*
X4278371Y-7816111D01*
X4277362Y-7814428D01*
X4276522Y-7812654D01*
X4275861Y-7810806D01*
X4275384Y-7808902D01*
X4275096Y-7806960D01*
X4275000Y-7805000D01*
X4275000Y-7395000D01*
X4275096Y-7393040D01*
X4275384Y-7391098D01*
X4275861Y-7389194D01*
X4276522Y-7387346D01*
X4277362Y-7385572D01*
X4278371Y-7383889D01*
X4279540Y-7382312D01*
X4280858Y-7380858D01*
X4282312Y-7379540D01*
X4283889Y-7378371D01*
X4285572Y-7377362D01*
X4287346Y-7376522D01*
X4289194Y-7375861D01*
X4291098Y-7375384D01*
X4293040Y-7375096D01*
X4295000Y-7375000D01*
X4655000Y-7375000D01*
X4656960Y-7375096D01*
X4656960Y-7375096D01*
G37*
D14*
X4475000Y-7600000D03*
D10*
G36*
X4656960Y-6775096D02*
X4658902Y-6775384D01*
X4660806Y-6775861D01*
X4662654Y-6776522D01*
X4664428Y-6777362D01*
X4666111Y-6778371D01*
X4667688Y-6779540D01*
X4669142Y-6780858D01*
X4670460Y-6782312D01*
X4671629Y-6783889D01*
X4672638Y-6785572D01*
X4673478Y-6787346D01*
X4674139Y-6789194D01*
X4674616Y-6791098D01*
X4674904Y-6793040D01*
X4675000Y-6795000D01*
X4675000Y-7205000D01*
X4674904Y-7206960D01*
X4674616Y-7208902D01*
X4674139Y-7210806D01*
X4673478Y-7212654D01*
X4672638Y-7214428D01*
X4671629Y-7216111D01*
X4670460Y-7217688D01*
X4669142Y-7219142D01*
X4667688Y-7220460D01*
X4666111Y-7221629D01*
X4664428Y-7222638D01*
X4662654Y-7223478D01*
X4660806Y-7224139D01*
X4658902Y-7224616D01*
X4656960Y-7224904D01*
X4655000Y-7225000D01*
X4295000Y-7225000D01*
X4293040Y-7224904D01*
X4291098Y-7224616D01*
X4289194Y-7224139D01*
X4287346Y-7223478D01*
X4285572Y-7222638D01*
X4283889Y-7221629D01*
X4282312Y-7220460D01*
X4280858Y-7219142D01*
X4279540Y-7217688D01*
X4278371Y-7216111D01*
X4277362Y-7214428D01*
X4276522Y-7212654D01*
X4275861Y-7210806D01*
X4275384Y-7208902D01*
X4275096Y-7206960D01*
X4275000Y-7205000D01*
X4275000Y-6795000D01*
X4275096Y-6793040D01*
X4275384Y-6791098D01*
X4275861Y-6789194D01*
X4276522Y-6787346D01*
X4277362Y-6785572D01*
X4278371Y-6783889D01*
X4279540Y-6782312D01*
X4280858Y-6780858D01*
X4282312Y-6779540D01*
X4283889Y-6778371D01*
X4285572Y-6777362D01*
X4287346Y-6776522D01*
X4289194Y-6775861D01*
X4291098Y-6775384D01*
X4293040Y-6775096D01*
X4295000Y-6775000D01*
X4655000Y-6775000D01*
X4656960Y-6775096D01*
X4656960Y-6775096D01*
G37*
D14*
X4475000Y-7000000D03*
D10*
G36*
X1656960Y-4175096D02*
X1658902Y-4175384D01*
X1660806Y-4175861D01*
X1662654Y-4176522D01*
X1664428Y-4177362D01*
X1666111Y-4178371D01*
X1667688Y-4179540D01*
X1669142Y-4180858D01*
X1670460Y-4182312D01*
X1671629Y-4183889D01*
X1672638Y-4185572D01*
X1673478Y-4187346D01*
X1674139Y-4189194D01*
X1674616Y-4191098D01*
X1674904Y-4193040D01*
X1675000Y-4195000D01*
X1675000Y-4605000D01*
X1674904Y-4606960D01*
X1674616Y-4608902D01*
X1674139Y-4610806D01*
X1673478Y-4612654D01*
X1672638Y-4614428D01*
X1671629Y-4616111D01*
X1670460Y-4617688D01*
X1669142Y-4619142D01*
X1667688Y-4620460D01*
X1666111Y-4621629D01*
X1664428Y-4622638D01*
X1662654Y-4623478D01*
X1660806Y-4624139D01*
X1658902Y-4624616D01*
X1656960Y-4624904D01*
X1655000Y-4625000D01*
X1295000Y-4625000D01*
X1293040Y-4624904D01*
X1291098Y-4624616D01*
X1289194Y-4624139D01*
X1287346Y-4623478D01*
X1285572Y-4622638D01*
X1283889Y-4621629D01*
X1282312Y-4620460D01*
X1280858Y-4619142D01*
X1279540Y-4617688D01*
X1278371Y-4616111D01*
X1277362Y-4614428D01*
X1276522Y-4612654D01*
X1275861Y-4610806D01*
X1275384Y-4608902D01*
X1275096Y-4606960D01*
X1275000Y-4605000D01*
X1275000Y-4195000D01*
X1275096Y-4193040D01*
X1275384Y-4191098D01*
X1275861Y-4189194D01*
X1276522Y-4187346D01*
X1277362Y-4185572D01*
X1278371Y-4183889D01*
X1279540Y-4182312D01*
X1280858Y-4180858D01*
X1282312Y-4179540D01*
X1283889Y-4178371D01*
X1285572Y-4177362D01*
X1287346Y-4176522D01*
X1289194Y-4175861D01*
X1291098Y-4175384D01*
X1293040Y-4175096D01*
X1295000Y-4175000D01*
X1655000Y-4175000D01*
X1656960Y-4175096D01*
X1656960Y-4175096D01*
G37*
D14*
X1475000Y-4400000D03*
D10*
G36*
X1656960Y-3575096D02*
X1658902Y-3575384D01*
X1660806Y-3575861D01*
X1662654Y-3576522D01*
X1664428Y-3577362D01*
X1666111Y-3578371D01*
X1667688Y-3579540D01*
X1669142Y-3580858D01*
X1670460Y-3582312D01*
X1671629Y-3583889D01*
X1672638Y-3585572D01*
X1673478Y-3587346D01*
X1674139Y-3589194D01*
X1674616Y-3591098D01*
X1674904Y-3593040D01*
X1675000Y-3595000D01*
X1675000Y-4005000D01*
X1674904Y-4006960D01*
X1674616Y-4008902D01*
X1674139Y-4010806D01*
X1673478Y-4012654D01*
X1672638Y-4014428D01*
X1671629Y-4016111D01*
X1670460Y-4017688D01*
X1669142Y-4019142D01*
X1667688Y-4020460D01*
X1666111Y-4021629D01*
X1664428Y-4022638D01*
X1662654Y-4023478D01*
X1660806Y-4024139D01*
X1658902Y-4024616D01*
X1656960Y-4024904D01*
X1655000Y-4025000D01*
X1295000Y-4025000D01*
X1293040Y-4024904D01*
X1291098Y-4024616D01*
X1289194Y-4024139D01*
X1287346Y-4023478D01*
X1285572Y-4022638D01*
X1283889Y-4021629D01*
X1282312Y-4020460D01*
X1280858Y-4019142D01*
X1279540Y-4017688D01*
X1278371Y-4016111D01*
X1277362Y-4014428D01*
X1276522Y-4012654D01*
X1275861Y-4010806D01*
X1275384Y-4008902D01*
X1275096Y-4006960D01*
X1275000Y-4005000D01*
X1275000Y-3595000D01*
X1275096Y-3593040D01*
X1275384Y-3591098D01*
X1275861Y-3589194D01*
X1276522Y-3587346D01*
X1277362Y-3585572D01*
X1278371Y-3583889D01*
X1279540Y-3582312D01*
X1280858Y-3580858D01*
X1282312Y-3579540D01*
X1283889Y-3578371D01*
X1285572Y-3577362D01*
X1287346Y-3576522D01*
X1289194Y-3575861D01*
X1291098Y-3575384D01*
X1293040Y-3575096D01*
X1295000Y-3575000D01*
X1655000Y-3575000D01*
X1656960Y-3575096D01*
X1656960Y-3575096D01*
G37*
D14*
X1475000Y-3800000D03*
D10*
G36*
X2281960Y-3600096D02*
X2283902Y-3600384D01*
X2285806Y-3600861D01*
X2287654Y-3601522D01*
X2289428Y-3602362D01*
X2291111Y-3603371D01*
X2292688Y-3604540D01*
X2294142Y-3605858D01*
X2295460Y-3607312D01*
X2296629Y-3608889D01*
X2297638Y-3610572D01*
X2298478Y-3612346D01*
X2299139Y-3614194D01*
X2299616Y-3616098D01*
X2299904Y-3618040D01*
X2300000Y-3620000D01*
X2300000Y-3980000D01*
X2299904Y-3981960D01*
X2299616Y-3983902D01*
X2299139Y-3985806D01*
X2298478Y-3987654D01*
X2297638Y-3989428D01*
X2296629Y-3991111D01*
X2295460Y-3992688D01*
X2294142Y-3994142D01*
X2292688Y-3995460D01*
X2291111Y-3996629D01*
X2289428Y-3997638D01*
X2287654Y-3998478D01*
X2285806Y-3999139D01*
X2283902Y-3999616D01*
X2281960Y-3999904D01*
X2280000Y-4000000D01*
X1870000Y-4000000D01*
X1868040Y-3999904D01*
X1866098Y-3999616D01*
X1864194Y-3999139D01*
X1862346Y-3998478D01*
X1860572Y-3997638D01*
X1858889Y-3996629D01*
X1857312Y-3995460D01*
X1855858Y-3994142D01*
X1854540Y-3992688D01*
X1853371Y-3991111D01*
X1852362Y-3989428D01*
X1851522Y-3987654D01*
X1850861Y-3985806D01*
X1850384Y-3983902D01*
X1850096Y-3981960D01*
X1850000Y-3980000D01*
X1850000Y-3620000D01*
X1850096Y-3618040D01*
X1850384Y-3616098D01*
X1850861Y-3614194D01*
X1851522Y-3612346D01*
X1852362Y-3610572D01*
X1853371Y-3608889D01*
X1854540Y-3607312D01*
X1855858Y-3605858D01*
X1857312Y-3604540D01*
X1858889Y-3603371D01*
X1860572Y-3602362D01*
X1862346Y-3601522D01*
X1864194Y-3600861D01*
X1866098Y-3600384D01*
X1868040Y-3600096D01*
X1870000Y-3600000D01*
X2280000Y-3600000D01*
X2281960Y-3600096D01*
X2281960Y-3600096D01*
G37*
D14*
X2075000Y-3800000D03*
D10*
G36*
X2881960Y-3600096D02*
X2883902Y-3600384D01*
X2885806Y-3600861D01*
X2887654Y-3601522D01*
X2889428Y-3602362D01*
X2891111Y-3603371D01*
X2892688Y-3604540D01*
X2894142Y-3605858D01*
X2895460Y-3607312D01*
X2896629Y-3608889D01*
X2897638Y-3610572D01*
X2898478Y-3612346D01*
X2899139Y-3614194D01*
X2899616Y-3616098D01*
X2899904Y-3618040D01*
X2900000Y-3620000D01*
X2900000Y-3980000D01*
X2899904Y-3981960D01*
X2899616Y-3983902D01*
X2899139Y-3985806D01*
X2898478Y-3987654D01*
X2897638Y-3989428D01*
X2896629Y-3991111D01*
X2895460Y-3992688D01*
X2894142Y-3994142D01*
X2892688Y-3995460D01*
X2891111Y-3996629D01*
X2889428Y-3997638D01*
X2887654Y-3998478D01*
X2885806Y-3999139D01*
X2883902Y-3999616D01*
X2881960Y-3999904D01*
X2880000Y-4000000D01*
X2470000Y-4000000D01*
X2468040Y-3999904D01*
X2466098Y-3999616D01*
X2464194Y-3999139D01*
X2462346Y-3998478D01*
X2460572Y-3997638D01*
X2458889Y-3996629D01*
X2457312Y-3995460D01*
X2455858Y-3994142D01*
X2454540Y-3992688D01*
X2453371Y-3991111D01*
X2452362Y-3989428D01*
X2451522Y-3987654D01*
X2450861Y-3985806D01*
X2450384Y-3983902D01*
X2450096Y-3981960D01*
X2450000Y-3980000D01*
X2450000Y-3620000D01*
X2450096Y-3618040D01*
X2450384Y-3616098D01*
X2450861Y-3614194D01*
X2451522Y-3612346D01*
X2452362Y-3610572D01*
X2453371Y-3608889D01*
X2454540Y-3607312D01*
X2455858Y-3605858D01*
X2457312Y-3604540D01*
X2458889Y-3603371D01*
X2460572Y-3602362D01*
X2462346Y-3601522D01*
X2464194Y-3600861D01*
X2466098Y-3600384D01*
X2468040Y-3600096D01*
X2470000Y-3600000D01*
X2880000Y-3600000D01*
X2881960Y-3600096D01*
X2881960Y-3600096D01*
G37*
D14*
X2675000Y-3800000D03*
M02*
