G04 #@! TF.GenerationSoftware,KiCad,Pcbnew,(2017-04-18 revision 68a7a52)-master*
G04 #@! TF.CreationDate,2017-12-22T10:09:43+08:00*
G04 #@! TF.ProjectId,cdctl_bx,636463746C5F62782E6B696361645F70,rev?*
G04 #@! TF.FileFunction,Copper,L2,Inr,Signal*
G04 #@! TF.FilePolarity,Positive*
%FSLAX46Y46*%
G04 Gerber Fmt 4.6, Leading zero omitted, Abs format (unit mm)*
G04 Created by KiCad (PCBNEW (2017-04-18 revision 68a7a52)-master) date Fri Dec 22 10:09:43 2017*
%MOMM*%
%LPD*%
G01*
G04 APERTURE LIST*
%ADD10C,0.100000*%
%ADD11O,0.900000X0.700000*%
%ADD12C,0.350000*%
%ADD13C,0.230000*%
%ADD14C,0.400000*%
%ADD15C,0.152000*%
%ADD16C,0.200000*%
G04 APERTURE END LIST*
D10*
D11*
X0Y-7650000D03*
X0Y-6650000D03*
X0Y-5650000D03*
X0Y-4650000D03*
X0Y-3650000D03*
X0Y-2650000D03*
X0Y-1650000D03*
X0Y-650000D03*
X5500000Y-7650000D03*
X5500000Y-6650000D03*
X5500000Y-5650000D03*
X5500000Y-4650000D03*
X5500000Y-3650000D03*
X5500000Y-2650000D03*
X5500000Y-1650000D03*
X5500000Y-650000D03*
D12*
X4075000Y-7600000D03*
X1725000Y-2000000D03*
D13*
X3325000Y-1350000D03*
X3325000Y-2550000D03*
D12*
X1411000Y-3025593D03*
X3550000Y-7325000D03*
X2375000Y-4175000D03*
X1775000Y-775000D03*
X4050000Y-4050000D03*
X3175000Y-5300000D03*
X1425000Y-1575000D03*
D13*
X3725000Y-1750000D03*
X3325000Y-1750000D03*
D14*
X2400000Y-7600000D03*
D12*
X2500000Y-6925000D03*
X1725000Y-2600000D03*
D13*
X3325000Y-2150000D03*
X3525000Y-3150000D03*
X3875000Y-3150000D03*
X4200000Y-3150000D03*
X4025000Y-2650000D03*
X4025000Y-1250000D03*
D12*
X3125000Y-700000D03*
D13*
X4025000Y-2050000D03*
D15*
X1075000Y-2650000D02*
X1725000Y-2000000D01*
X0Y-7650000D02*
X325000Y-7650000D01*
X1075000Y-6900000D02*
X1075000Y-2650000D01*
X325000Y-7650000D02*
X1075000Y-6900000D01*
D16*
X3325000Y-2550000D02*
X2275000Y-2550000D01*
X2275000Y-2550000D02*
X1725000Y-2000000D01*
D15*
X1725000Y-2600000D02*
X2000000Y-2875000D01*
X2000000Y-2875000D02*
X2000000Y-6425000D01*
X2000000Y-6425000D02*
X2500000Y-6925000D01*
D10*
X5500000Y-3650000D02*
X5500000Y-3500000D01*
X5500000Y-3500000D02*
X4900000Y-2900000D01*
X4900000Y-2900000D02*
X4900000Y-1754998D01*
X4900000Y-1754998D02*
X3845002Y-700000D01*
X3845002Y-700000D02*
X3125000Y-700000D01*
X4975442Y-285000D02*
X524855Y-285000D01*
X2910866Y-380000D02*
X590934Y-380000D01*
X4909217Y-380000D02*
X3339103Y-380000D01*
X2812438Y-475000D02*
X632653Y-475000D01*
X4867560Y-475000D02*
X3972958Y-475000D01*
X2761828Y-570000D02*
X655544Y-570000D01*
X4844819Y-570000D02*
X4082698Y-570000D01*
X2740435Y-665000D02*
X662013Y-665000D01*
X4838541Y-665000D02*
X4177698Y-665000D01*
X2744564Y-760000D02*
X652028Y-760000D01*
X4848217Y-760000D02*
X4272698Y-760000D01*
X2772273Y-855000D02*
X623153Y-855000D01*
X4876177Y-855000D02*
X4367698Y-855000D01*
X2831186Y-950000D02*
X574563Y-950000D01*
X4924750Y-950000D02*
X4462698Y-950000D01*
X2952971Y-1045000D02*
X499740Y-1045000D01*
X3771465Y-1045000D02*
X3438147Y-1045000D01*
X5000502Y-1045000D02*
X4557698Y-1045000D01*
X3074916Y-1140000D02*
X368773Y-1140000D01*
X3718538Y-1140000D02*
X3574505Y-1140000D01*
X5131240Y-1140000D02*
X4652698Y-1140000D01*
X3020681Y-1235000D02*
X475663Y-1235000D01*
X3700164Y-1235000D02*
X3629141Y-1235000D01*
X5023841Y-1235000D02*
X4747698Y-1235000D01*
X3000233Y-1330000D02*
X561036Y-1330000D01*
X3709239Y-1330000D02*
X3649848Y-1330000D01*
X4938215Y-1330000D02*
X4842698Y-1330000D01*
X3008321Y-1425000D02*
X614460Y-1425000D01*
X3751118Y-1425000D02*
X3641257Y-1425000D01*
X3047896Y-1520000D02*
X645897Y-1520000D01*
X3843991Y-1520000D02*
X3602822Y-1520000D01*
X4297307Y-1520000D02*
X4206113Y-1520000D01*
X1688518Y-1615000D02*
X659639Y-1615000D01*
X3136797Y-1615000D02*
X1728763Y-1615000D01*
X4392307Y-1615000D02*
X3513992Y-1615000D01*
X1470850Y-1710000D02*
X657283Y-1710000D01*
X4487307Y-1710000D02*
X1979623Y-1710000D01*
X1391897Y-1805000D02*
X638631Y-1805000D01*
X3810656Y-1805000D02*
X2057691Y-1805000D01*
X4582307Y-1805000D02*
X4239748Y-1805000D01*
X1352638Y-1900000D02*
X601597Y-1900000D01*
X3115762Y-1900000D02*
X2097691Y-1900000D01*
X3735682Y-1900000D02*
X3534783Y-1900000D01*
X4640000Y-1900000D02*
X4314715Y-1900000D01*
X1325535Y-1995000D02*
X541103Y-1995000D01*
X3037825Y-1995000D02*
X2158406Y-1995000D01*
X3704416Y-1995000D02*
X3612229Y-1995000D01*
X4640000Y-1995000D02*
X4345434Y-1995000D01*
X1230535Y-2090000D02*
X445505Y-2090000D01*
X3005478Y-2090000D02*
X2253406Y-2090000D01*
X3701898Y-2090000D02*
X3644445Y-2090000D01*
X4640000Y-2090000D02*
X4349010Y-2090000D01*
X1135535Y-2185000D02*
X414235Y-2185000D01*
X3000980Y-2185000D02*
X2348406Y-2185000D01*
X3728888Y-2185000D02*
X3649080Y-2185000D01*
X4640000Y-2185000D02*
X4320666Y-2185000D01*
X1040535Y-2280000D02*
X520835Y-2280000D01*
X3795285Y-2280000D02*
X3622892Y-2280000D01*
X4640000Y-2280000D02*
X4254771Y-2280000D01*
X945535Y-2375000D02*
X588320Y-2375000D01*
X3851679Y-2375000D02*
X3598941Y-2375000D01*
X4640000Y-2375000D02*
X4198516Y-2375000D01*
X854474Y-2470000D02*
X631181Y-2470000D01*
X3754347Y-2470000D02*
X3640485Y-2470000D01*
X4640000Y-2470000D02*
X4295619Y-2470000D01*
X803347Y-2565000D02*
X655089Y-2565000D01*
X3710793Y-2565000D02*
X3649359Y-2565000D01*
X4640000Y-2565000D02*
X4339495Y-2565000D01*
X789000Y-2660000D02*
X662538Y-2660000D01*
X3699814Y-2660000D02*
X3631797Y-2660000D01*
X4640000Y-2660000D02*
X4349429Y-2660000D01*
X789000Y-2755000D02*
X652554Y-2755000D01*
X3717010Y-2755000D02*
X3578132Y-2755000D01*
X4640000Y-2755000D02*
X4334023Y-2755000D01*
X789000Y-2850000D02*
X624701Y-2850000D01*
X1431186Y-2850000D02*
X1361000Y-2850000D01*
X3749911Y-2850000D02*
X3650041Y-2850000D01*
X4640000Y-2850000D02*
X4325041Y-2850000D01*
X789000Y-2945000D02*
X577266Y-2945000D01*
X1552971Y-2945000D02*
X1361000Y-2945000D01*
X3271465Y-2945000D02*
X2286000Y-2945000D01*
X4644189Y-2945000D02*
X4454009Y-2945000D01*
X789000Y-3040000D02*
X503876Y-3040000D01*
X1714000Y-3040000D02*
X1361000Y-3040000D01*
X3218538Y-3040000D02*
X2286000Y-3040000D01*
X4681113Y-3040000D02*
X4506202Y-3040000D01*
X789000Y-3135000D02*
X378177Y-3135000D01*
X1714000Y-3135000D02*
X1361000Y-3135000D01*
X3200164Y-3135000D02*
X2286000Y-3135000D01*
X4767304Y-3135000D02*
X4524778Y-3135000D01*
X789000Y-3230000D02*
X469705Y-3230000D01*
X1714000Y-3230000D02*
X1361000Y-3230000D01*
X3209239Y-3230000D02*
X2286000Y-3230000D01*
X4862304Y-3230000D02*
X4515121Y-3230000D01*
X789000Y-3325000D02*
X557016Y-3325000D01*
X1714000Y-3325000D02*
X1361000Y-3325000D01*
X3251118Y-3325000D02*
X2286000Y-3325000D01*
X4942352Y-3325000D02*
X4474295Y-3325000D01*
X789000Y-3420000D02*
X611846Y-3420000D01*
X1714000Y-3420000D02*
X1361000Y-3420000D01*
X3343991Y-3420000D02*
X2286000Y-3420000D01*
X4887589Y-3420000D02*
X4381113Y-3420000D01*
X789000Y-3515000D02*
X644426Y-3515000D01*
X1714000Y-3515000D02*
X1361000Y-3515000D01*
X4855178Y-3515000D02*
X2286000Y-3515000D01*
X789000Y-3610000D02*
X659184Y-3610000D01*
X1714000Y-3610000D02*
X1361000Y-3610000D01*
X4840615Y-3610000D02*
X2286000Y-3610000D01*
X789000Y-3705000D02*
X657809Y-3705000D01*
X1714000Y-3705000D02*
X1361000Y-3705000D01*
X4842181Y-3705000D02*
X2286000Y-3705000D01*
X789000Y-3800000D02*
X640178Y-3800000D01*
X1714000Y-3800000D02*
X1361000Y-3800000D01*
X4859989Y-3800000D02*
X2286000Y-3800000D01*
X789000Y-3895000D02*
X604301Y-3895000D01*
X1714000Y-3895000D02*
X1361000Y-3895000D01*
X4895996Y-3895000D02*
X2286000Y-3895000D01*
X789000Y-3990000D02*
X545240Y-3990000D01*
X1714000Y-3990000D02*
X1361000Y-3990000D01*
X4955045Y-3990000D02*
X2286000Y-3990000D01*
X789000Y-4085000D02*
X451636Y-4085000D01*
X1714000Y-4085000D02*
X1361000Y-4085000D01*
X5048171Y-4085000D02*
X2286000Y-4085000D01*
X789000Y-4180000D02*
X405140Y-4180000D01*
X1714000Y-4180000D02*
X1361000Y-4180000D01*
X5093612Y-4180000D02*
X2286000Y-4180000D01*
X789000Y-4275000D02*
X516815Y-4275000D01*
X1714000Y-4275000D02*
X1361000Y-4275000D01*
X4983715Y-4275000D02*
X2286000Y-4275000D01*
X789000Y-4370000D02*
X585706Y-4370000D01*
X1714000Y-4370000D02*
X1361000Y-4370000D01*
X4914623Y-4370000D02*
X2286000Y-4370000D01*
X789000Y-4465000D02*
X629710Y-4465000D01*
X1714000Y-4465000D02*
X1361000Y-4465000D01*
X4870656Y-4465000D02*
X2286000Y-4465000D01*
X789000Y-4560000D02*
X654634Y-4560000D01*
X1714000Y-4560000D02*
X1361000Y-4560000D01*
X4845870Y-4560000D02*
X2286000Y-4560000D01*
X789000Y-4655000D02*
X663064Y-4655000D01*
X1714000Y-4655000D02*
X1361000Y-4655000D01*
X4837631Y-4655000D02*
X2286000Y-4655000D01*
X789000Y-4750000D02*
X653079Y-4750000D01*
X1714000Y-4750000D02*
X1361000Y-4750000D01*
X4846276Y-4750000D02*
X2286000Y-4750000D01*
X789000Y-4845000D02*
X626248Y-4845000D01*
X1714000Y-4845000D02*
X1361000Y-4845000D01*
X4873233Y-4845000D02*
X2286000Y-4845000D01*
X789000Y-4940000D02*
X579970Y-4940000D01*
X1714000Y-4940000D02*
X1361000Y-4940000D01*
X4919522Y-4940000D02*
X2286000Y-4940000D01*
X789000Y-5035000D02*
X508013Y-5035000D01*
X1714000Y-5035000D02*
X1361000Y-5035000D01*
X4991225Y-5035000D02*
X2286000Y-5035000D01*
X789000Y-5130000D02*
X387581Y-5130000D01*
X1714000Y-5130000D02*
X1361000Y-5130000D01*
X5113050Y-5130000D02*
X2286000Y-5130000D01*
X789000Y-5225000D02*
X463746Y-5225000D01*
X1714000Y-5225000D02*
X1361000Y-5225000D01*
X5036103Y-5225000D02*
X2286000Y-5225000D01*
X789000Y-5320000D02*
X552996Y-5320000D01*
X1714000Y-5320000D02*
X1361000Y-5320000D01*
X4946488Y-5320000D02*
X2286000Y-5320000D01*
X789000Y-5415000D02*
X609232Y-5415000D01*
X1714000Y-5415000D02*
X1361000Y-5415000D01*
X4890292Y-5415000D02*
X2286000Y-5415000D01*
X789000Y-5510000D02*
X642954Y-5510000D01*
X1714000Y-5510000D02*
X1361000Y-5510000D01*
X4856726Y-5510000D02*
X2286000Y-5510000D01*
X789000Y-5605000D02*
X658729Y-5605000D01*
X1714000Y-5605000D02*
X1361000Y-5605000D01*
X4841140Y-5605000D02*
X2286000Y-5605000D01*
X789000Y-5700000D02*
X658334Y-5700000D01*
X1714000Y-5700000D02*
X1361000Y-5700000D01*
X4841726Y-5700000D02*
X2286000Y-5700000D01*
X789000Y-5795000D02*
X641726Y-5795000D01*
X1714000Y-5795000D02*
X1361000Y-5795000D01*
X4858518Y-5795000D02*
X2286000Y-5795000D01*
X789000Y-5890000D02*
X607004Y-5890000D01*
X1714000Y-5890000D02*
X1361000Y-5890000D01*
X4893382Y-5890000D02*
X2286000Y-5890000D01*
X789000Y-5985000D02*
X549376Y-5985000D01*
X1714000Y-5985000D02*
X1361000Y-5985000D01*
X4951024Y-5985000D02*
X2286000Y-5985000D01*
X789000Y-6080000D02*
X457767Y-6080000D01*
X1714000Y-6080000D02*
X1361000Y-6080000D01*
X5042213Y-6080000D02*
X2286000Y-6080000D01*
X789000Y-6175000D02*
X396045Y-6175000D01*
X1714000Y-6175000D02*
X1361000Y-6175000D01*
X5103015Y-6175000D02*
X2286000Y-6175000D01*
X789000Y-6270000D02*
X512795Y-6270000D01*
X1714000Y-6270000D02*
X1361000Y-6270000D01*
X4987851Y-6270000D02*
X2286000Y-6270000D01*
X789000Y-6365000D02*
X583092Y-6365000D01*
X1714000Y-6365000D02*
X1361000Y-6365000D01*
X4917327Y-6365000D02*
X2344466Y-6365000D01*
X789000Y-6460000D02*
X628238Y-6460000D01*
X1717340Y-6460000D02*
X1361000Y-6460000D01*
X4872204Y-6460000D02*
X2439466Y-6460000D01*
X789000Y-6555000D02*
X654179Y-6555000D01*
X1746753Y-6555000D02*
X1361000Y-6555000D01*
X4846395Y-6555000D02*
X2612266Y-6555000D01*
X789000Y-6650000D02*
X662824Y-6650000D01*
X1820534Y-6650000D02*
X1361000Y-6650000D01*
X4837176Y-6650000D02*
X2769519Y-6650000D01*
X789000Y-6745000D02*
X653605Y-6745000D01*
X1915534Y-6745000D02*
X1361000Y-6745000D01*
X4845821Y-6745000D02*
X2842249Y-6745000D01*
X730535Y-6840000D02*
X627796Y-6840000D01*
X2010534Y-6840000D02*
X1361000Y-6840000D01*
X4871762Y-6840000D02*
X2875661Y-6840000D01*
X635535Y-6935000D02*
X582673Y-6935000D01*
X2105534Y-6935000D02*
X1357544Y-6935000D01*
X4916908Y-6935000D02*
X2884349Y-6935000D01*
X540535Y-7030000D02*
X512149Y-7030000D01*
X2127823Y-7030000D02*
X1328343Y-7030000D01*
X4987205Y-7030000D02*
X2870972Y-7030000D01*
X445535Y-7125000D02*
X396985Y-7125000D01*
X2170847Y-7125000D02*
X1254465Y-7125000D01*
X5103955Y-7125000D02*
X2830088Y-7125000D01*
X2249825Y-7220000D02*
X1159465Y-7220000D01*
X4012307Y-7220000D02*
X2748522Y-7220000D01*
X5050542Y-7220000D02*
X4138549Y-7220000D01*
X3815744Y-7315000D02*
X1064465Y-7315000D01*
X4960753Y-7315000D02*
X4334588Y-7315000D01*
X3738473Y-7410000D02*
X969465Y-7410000D01*
X4902623Y-7410000D02*
X4411013Y-7410000D01*
X3701575Y-7505000D02*
X874465Y-7505000D01*
X4866813Y-7505000D02*
X4448681Y-7505000D01*
X3689946Y-7600000D02*
X779465Y-7600000D01*
X5215000Y-7600000D02*
X4459489Y-7600000D01*
X3700987Y-7695000D02*
X684465Y-7695000D01*
X5215000Y-7695000D02*
X4448244Y-7695000D01*
X3739402Y-7790000D02*
X643274Y-7790000D01*
X4865797Y-7790000D02*
X4411859Y-7790000D01*
X3814984Y-7885000D02*
X609708Y-7885000D01*
X4900505Y-7885000D02*
X4334023Y-7885000D01*
X4010355Y-7980000D02*
X553512Y-7980000D01*
X4957354Y-7980000D02*
X4137136Y-7980000D01*
X5215000Y-7700000D02*
X5215000Y-7600000D01*
X5120000Y-1165968D02*
X5120000Y-1133820D01*
X5120000Y-4165968D02*
X5120000Y-4133820D01*
X5120000Y-5165968D02*
X5120000Y-5133820D01*
X5120000Y-6165968D02*
X5120000Y-6133820D01*
X5120000Y-7173975D02*
X5120000Y-7133820D01*
X5120000Y-7700000D02*
X5120000Y-7600000D01*
X5025000Y-1234054D02*
X5025000Y-1065556D01*
X5025000Y-4234054D02*
X5025000Y-4065556D01*
X5025000Y-5234054D02*
X5025000Y-5065556D01*
X5025000Y-6234054D02*
X5025000Y-6065556D01*
X5025000Y-7245143D02*
X5025000Y-7065556D01*
X5025000Y-7700000D02*
X5025000Y-7600000D01*
X4930000Y-341560D02*
X4930000Y-285000D01*
X4930000Y-1341560D02*
X4930000Y-958850D01*
X4930000Y-3341560D02*
X4930000Y-3297696D01*
X4930000Y-4341560D02*
X4930000Y-3958850D01*
X4930000Y-5341560D02*
X4930000Y-4958850D01*
X4930000Y-6341560D02*
X4930000Y-5958850D01*
X4930000Y-7360252D02*
X4930000Y-6958850D01*
X4930000Y-7700000D02*
X4930000Y-7600000D01*
X4930000Y-8015000D02*
X4930000Y-7939747D01*
X4835000Y-1322303D02*
X4835000Y-285000D01*
X4835000Y-8015000D02*
X4835000Y-3202696D01*
X4740000Y-1227303D02*
X4740000Y-285000D01*
X4740000Y-8015000D02*
X4740000Y-3107696D01*
X4645000Y-1132303D02*
X4645000Y-285000D01*
X4645000Y-8015000D02*
X4645000Y-2950659D01*
X4550000Y-1037303D02*
X4550000Y-285000D01*
X4550000Y-8015000D02*
X4550000Y-1772693D01*
X4455000Y-942303D02*
X4455000Y-285000D01*
X4455000Y-2946492D02*
X4455000Y-1677693D01*
X4455000Y-7536913D02*
X4455000Y-3352353D01*
X4455000Y-8015000D02*
X4455000Y-7665266D01*
X4360000Y-847303D02*
X4360000Y-285000D01*
X4360000Y-2865884D02*
X4360000Y-1582693D01*
X4360000Y-7340591D02*
X4360000Y-3433399D01*
X4360000Y-8015000D02*
X4360000Y-7860263D01*
X4265000Y-752303D02*
X4265000Y-285000D01*
X4265000Y-1830429D02*
X4265000Y-1487693D01*
X4265000Y-2430429D02*
X4265000Y-2270260D01*
X4265000Y-7263744D02*
X4265000Y-3468568D01*
X4265000Y-8015000D02*
X4265000Y-7935426D01*
X4170000Y-657303D02*
X4170000Y-285000D01*
X4170000Y-1758391D02*
X4170000Y-1542365D01*
X4170000Y-2358391D02*
X4170000Y-2342365D01*
X4170000Y-7226456D02*
X4170000Y-3474457D01*
X4170000Y-8015000D02*
X4170000Y-7974206D01*
X4075000Y-562303D02*
X4075000Y-285000D01*
X4075000Y-1728473D02*
X4075000Y-1571213D01*
X4075000Y-7214974D02*
X4075000Y-3450067D01*
X4075000Y-8015000D02*
X4075000Y-7985101D01*
X3980000Y-478776D02*
X3980000Y-285000D01*
X3980000Y-1727709D02*
X3980000Y-1572883D01*
X3980000Y-7226163D02*
X3980000Y-3457880D01*
X3980000Y-8015000D02*
X3980000Y-7973326D01*
X3885000Y-443973D02*
X3885000Y-285000D01*
X3885000Y-1756024D02*
X3885000Y-1543514D01*
X3885000Y-2356024D02*
X3885000Y-2343514D01*
X3885000Y-7264207D02*
X3885000Y-3475295D01*
X3885000Y-8015000D02*
X3885000Y-7936821D01*
X3790000Y-440000D02*
X3790000Y-285000D01*
X3790000Y-1025228D02*
X3790000Y-1012694D01*
X3790000Y-1825228D02*
X3790000Y-1474526D01*
X3790000Y-2425228D02*
X3790000Y-2274526D01*
X3790000Y-7340210D02*
X3790000Y-3464088D01*
X3790000Y-8015000D02*
X3790000Y-7859127D01*
X3695000Y-440000D02*
X3695000Y-285000D01*
X3695000Y-2872630D02*
X3695000Y-960000D01*
X3695000Y-7535932D02*
X3695000Y-3427053D01*
X3695000Y-8015000D02*
X3695000Y-7662373D01*
X3600000Y-440000D02*
X3600000Y-285000D01*
X3600000Y-1176595D02*
X3600000Y-960000D01*
X3600000Y-1976595D02*
X3600000Y-1524002D01*
X3600000Y-2376595D02*
X3600000Y-2324001D01*
X3600000Y-2833605D02*
X3600000Y-2724002D01*
X3600000Y-7632372D02*
X3600000Y-3466804D01*
X3600000Y-8015000D02*
X3600000Y-7632372D01*
X3505000Y-440000D02*
X3505000Y-285000D01*
X3505000Y-1079374D02*
X3505000Y-960000D01*
X3505000Y-1879374D02*
X3505000Y-1620707D01*
X3505000Y-2824838D02*
X3505000Y-2820707D01*
X3505000Y-7632372D02*
X3505000Y-3474667D01*
X3505000Y-8015000D02*
X3505000Y-7632372D01*
X3410000Y-440000D02*
X3410000Y-285000D01*
X3410000Y-1035657D02*
X3410000Y-960263D01*
X3410000Y-1835657D02*
X3410000Y-1665041D01*
X3410000Y-7632372D02*
X3410000Y-3454436D01*
X3410000Y-8015000D02*
X3410000Y-7632372D01*
X3315000Y-363744D02*
X3315000Y-285000D01*
X3315000Y-1824908D02*
X3315000Y-1674876D01*
X3315000Y-2900745D02*
X3315000Y-2874876D01*
X3315000Y-7632372D02*
X3315000Y-3399850D01*
X3315000Y-8015000D02*
X3315000Y-7632372D01*
X3220000Y-326456D02*
X3220000Y-285000D01*
X3220000Y-1841883D02*
X3220000Y-1658805D01*
X3220000Y-3036587D02*
X3220000Y-2860000D01*
X3220000Y-7632372D02*
X3220000Y-3262550D01*
X3220000Y-8015000D02*
X3220000Y-7632372D01*
X3125000Y-314974D02*
X3125000Y-285000D01*
X3125000Y-1092458D02*
X3125000Y-1085101D01*
X3125000Y-1892457D02*
X3125000Y-1606800D01*
X3125000Y-7632372D02*
X3125000Y-2860000D01*
X3125000Y-8015000D02*
X3125000Y-7632372D01*
X3030000Y-326163D02*
X3030000Y-285000D01*
X3030000Y-1213255D02*
X3030000Y-1073326D01*
X3030000Y-2013255D02*
X3030000Y-1487806D01*
X3030000Y-7632372D02*
X3030000Y-2860000D01*
X3030000Y-8015000D02*
X3030000Y-7632372D01*
X2935000Y-364207D02*
X2935000Y-285000D01*
X2935000Y-2240000D02*
X2935000Y-1036821D01*
X2935000Y-7632372D02*
X2935000Y-2860000D01*
X2935000Y-8015000D02*
X2935000Y-7632372D01*
X2840000Y-440210D02*
X2840000Y-285000D01*
X2840000Y-2240000D02*
X2840000Y-959127D01*
X2840000Y-6741001D02*
X2840000Y-2860000D01*
X2840000Y-7632372D02*
X2840000Y-7107947D01*
X2840000Y-8015000D02*
X2840000Y-7632372D01*
X2745000Y-635932D02*
X2745000Y-285000D01*
X2745000Y-2240000D02*
X2745000Y-762373D01*
X2745000Y-6625841D02*
X2745000Y-2860000D01*
X2745000Y-7632372D02*
X2745000Y-7223355D01*
X2745000Y-8015000D02*
X2745000Y-7632372D01*
X2650000Y-2240000D02*
X2650000Y-285000D01*
X2650000Y-6570404D02*
X2650000Y-2860000D01*
X2650000Y-7632372D02*
X2650000Y-7279784D01*
X2650000Y-8015000D02*
X2650000Y-7632372D01*
X2555000Y-2240000D02*
X2555000Y-285000D01*
X2555000Y-6543246D02*
X2555000Y-2860000D01*
X2555000Y-7632372D02*
X2555000Y-7306259D01*
X2555000Y-8015000D02*
X2555000Y-7632372D01*
X2460000Y-2240000D02*
X2460000Y-285000D01*
X2460000Y-6480534D02*
X2460000Y-2860000D01*
X2460000Y-7632372D02*
X2460000Y-7309263D01*
X2460000Y-8015000D02*
X2460000Y-7632372D01*
X2365000Y-2201594D02*
X2365000Y-285000D01*
X2365000Y-6385534D02*
X2365000Y-2860000D01*
X2365000Y-7632372D02*
X2365000Y-7286177D01*
X2365000Y-8015000D02*
X2365000Y-7632372D01*
X2270000Y-2106594D02*
X2270000Y-285000D01*
X2270000Y-7632372D02*
X2270000Y-7234021D01*
X2270000Y-8015000D02*
X2270000Y-7632372D01*
X2175000Y-2011594D02*
X2175000Y-285000D01*
X2175000Y-7632372D02*
X2175000Y-7131443D01*
X2175000Y-8015000D02*
X2175000Y-7632372D01*
X2080000Y-1850939D02*
X2080000Y-285000D01*
X2080000Y-7632372D02*
X2080000Y-6909465D01*
X2080000Y-8015000D02*
X2080000Y-7632372D01*
X1985000Y-1715415D02*
X1985000Y-285000D01*
X1985000Y-7632372D02*
X1985000Y-6814465D01*
X1985000Y-8015000D02*
X1985000Y-7632372D01*
X1890000Y-1651710D02*
X1890000Y-285000D01*
X1890000Y-7632372D02*
X1890000Y-6719465D01*
X1890000Y-8015000D02*
X1890000Y-7632372D01*
X1795000Y-1621325D02*
X1795000Y-285000D01*
X1795000Y-7632372D02*
X1795000Y-6624425D01*
X1795000Y-8015000D02*
X1795000Y-7632372D01*
X1700000Y-1614800D02*
X1700000Y-285000D01*
X1700000Y-7632372D02*
X1700000Y-2984577D01*
X1700000Y-8015000D02*
X1700000Y-7632372D01*
X1605000Y-1633229D02*
X1605000Y-285000D01*
X1605000Y-7632372D02*
X1605000Y-2967731D01*
X1605000Y-8015000D02*
X1605000Y-7632372D01*
X1510000Y-1680566D02*
X1510000Y-285000D01*
X1510000Y-7632372D02*
X1510000Y-2919446D01*
X1510000Y-8015000D02*
X1510000Y-7632372D01*
X1415000Y-1771258D02*
X1415000Y-285000D01*
X1415000Y-7632372D02*
X1415000Y-2829719D01*
X1415000Y-8015000D02*
X1415000Y-7632372D01*
X1320000Y-2000534D02*
X1320000Y-285000D01*
X1320000Y-7632372D02*
X1320000Y-7045414D01*
X1320000Y-8015000D02*
X1320000Y-7632372D01*
X1225000Y-2095534D02*
X1225000Y-285000D01*
X1225000Y-7632372D02*
X1225000Y-7154465D01*
X1225000Y-8015000D02*
X1225000Y-7632372D01*
X1130000Y-2190534D02*
X1130000Y-285000D01*
X1130000Y-7632372D02*
X1130000Y-7249465D01*
X1130000Y-8015000D02*
X1130000Y-7632372D01*
X1035000Y-2285534D02*
X1035000Y-285000D01*
X1035000Y-7632372D02*
X1035000Y-7344465D01*
X1035000Y-8015000D02*
X1035000Y-7632372D01*
X940000Y-2380534D02*
X940000Y-285000D01*
X940000Y-7632372D02*
X940000Y-7439465D01*
X940000Y-8015000D02*
X940000Y-7632372D01*
X845000Y-2481289D02*
X845000Y-285000D01*
X845000Y-7632372D02*
X845000Y-7534465D01*
X845000Y-8015000D02*
X845000Y-7632372D01*
X750000Y-6820534D02*
X750000Y-285000D01*
X750000Y-7632372D02*
X750000Y-7629465D01*
X750000Y-8015000D02*
X750000Y-7632372D01*
X655000Y-564033D02*
X655000Y-285000D01*
X655000Y-1564033D02*
X655000Y-731730D01*
X655000Y-2564033D02*
X655000Y-1731730D01*
X655000Y-3564033D02*
X655000Y-2731730D01*
X655000Y-4564033D02*
X655000Y-3731730D01*
X655000Y-5564033D02*
X655000Y-4731730D01*
X655000Y-6564033D02*
X655000Y-5731730D01*
X655000Y-6915534D02*
X655000Y-6731730D01*
X655000Y-8015000D02*
X655000Y-7731729D01*
X560000Y-328713D02*
X560000Y-285000D01*
X560000Y-1328713D02*
X560000Y-972159D01*
X560000Y-2328713D02*
X560000Y-1972159D01*
X560000Y-3328713D02*
X560000Y-2972159D01*
X560000Y-4328713D02*
X560000Y-3972159D01*
X560000Y-5328713D02*
X560000Y-4972159D01*
X560000Y-6328713D02*
X560000Y-5972159D01*
X560000Y-7010534D02*
X560000Y-6972159D01*
X560000Y-8015000D02*
X560000Y-7972159D01*
X465000Y-1226053D02*
X465000Y-1074102D01*
X465000Y-2226053D02*
X465000Y-2074102D01*
X465000Y-3226053D02*
X465000Y-3074102D01*
X465000Y-4226053D02*
X465000Y-4074102D01*
X465000Y-5226053D02*
X465000Y-5074102D01*
X465000Y-6226053D02*
X465000Y-6074102D01*
X465000Y-7105534D02*
X465000Y-7074102D01*
X370000Y-1160682D02*
X370000Y-1139349D01*
X370000Y-2160682D02*
X370000Y-2139349D01*
X370000Y-3160682D02*
X370000Y-3139349D01*
X370000Y-4160682D02*
X370000Y-4139349D01*
X370000Y-5160682D02*
X370000Y-5139349D01*
X370000Y-6160682D02*
X370000Y-6139349D01*
X370000Y-7160683D02*
X370000Y-7139349D01*
X4932546Y-336852D02*
X4880564Y-432991D01*
X4848245Y-537396D01*
X4836821Y-646090D01*
X4846726Y-754934D01*
X4877584Y-859780D01*
X4928219Y-956635D01*
X4996702Y-1041811D01*
X5080425Y-1112064D01*
X5149727Y-1150163D01*
X5086908Y-1183564D01*
X5002212Y-1252640D01*
X4932546Y-1336852D01*
X4903419Y-1390722D01*
X4028850Y-516152D01*
X4010268Y-500889D01*
X3991893Y-485470D01*
X3990695Y-484811D01*
X3989639Y-483944D01*
X3968491Y-472605D01*
X3947427Y-461025D01*
X3946122Y-460611D01*
X3944919Y-459966D01*
X3921933Y-452938D01*
X3899059Y-445682D01*
X3897705Y-445530D01*
X3896393Y-445129D01*
X3872494Y-442702D01*
X3848632Y-440025D01*
X3845954Y-440007D01*
X3845909Y-440002D01*
X3845867Y-440006D01*
X3845002Y-440000D01*
X3409414Y-440000D01*
X3371596Y-401917D01*
X3309001Y-359697D01*
X3239399Y-330438D01*
X3165438Y-315256D01*
X3089938Y-314729D01*
X3015773Y-328877D01*
X2945768Y-357161D01*
X2882590Y-398503D01*
X2828646Y-451329D01*
X2785989Y-513627D01*
X2756246Y-583024D01*
X2740548Y-656877D01*
X2739494Y-732372D01*
X2753123Y-806634D01*
X2780918Y-876834D01*
X2821818Y-940299D01*
X2874266Y-994611D01*
X2936265Y-1037701D01*
X3005453Y-1067929D01*
X3079194Y-1084142D01*
X3135894Y-1085330D01*
X3120368Y-1095489D01*
X3074831Y-1140083D01*
X3038822Y-1192672D01*
X3013714Y-1251254D01*
X3000462Y-1313597D01*
X2999572Y-1377327D01*
X3011078Y-1440016D01*
X3034541Y-1499276D01*
X3069067Y-1552850D01*
X3113342Y-1598698D01*
X3165678Y-1635073D01*
X3224083Y-1660589D01*
X3286332Y-1674276D01*
X3350054Y-1675611D01*
X3412822Y-1664543D01*
X3472244Y-1641494D01*
X3526058Y-1607343D01*
X3572214Y-1563390D01*
X3608954Y-1511308D01*
X3634877Y-1453082D01*
X3648998Y-1390930D01*
X3650014Y-1318132D01*
X3637635Y-1255610D01*
X3613347Y-1196683D01*
X3578076Y-1143596D01*
X3533165Y-1098371D01*
X3480326Y-1062731D01*
X3421570Y-1038032D01*
X3359136Y-1025216D01*
X3331393Y-1025022D01*
X3363177Y-1004852D01*
X3410276Y-960000D01*
X3737306Y-960000D01*
X3796333Y-1019027D01*
X3774831Y-1040083D01*
X3738822Y-1092672D01*
X3713714Y-1151254D01*
X3700462Y-1213597D01*
X3699572Y-1277327D01*
X3711078Y-1340016D01*
X3734541Y-1399276D01*
X3769067Y-1452850D01*
X3813342Y-1498698D01*
X3865678Y-1535073D01*
X3924083Y-1560589D01*
X3986332Y-1574276D01*
X4050054Y-1575611D01*
X4112822Y-1564543D01*
X4172244Y-1541494D01*
X4226058Y-1507343D01*
X4256070Y-1478763D01*
X4640000Y-1862693D01*
X4640000Y-2900000D01*
X4642346Y-2923928D01*
X4644437Y-2947828D01*
X4644819Y-2949142D01*
X4644952Y-2950501D01*
X4651895Y-2973499D01*
X4658594Y-2996555D01*
X4659222Y-2997767D01*
X4659618Y-2999078D01*
X4670922Y-3020339D01*
X4681946Y-3041606D01*
X4682796Y-3042671D01*
X4683440Y-3043882D01*
X4698631Y-3062508D01*
X4713603Y-3081263D01*
X4715484Y-3083170D01*
X4715512Y-3083205D01*
X4715544Y-3083232D01*
X4716152Y-3083848D01*
X4949121Y-3316817D01*
X4932546Y-3336852D01*
X4880564Y-3432991D01*
X4848245Y-3537396D01*
X4836821Y-3646090D01*
X4846726Y-3754934D01*
X4877584Y-3859780D01*
X4928219Y-3956635D01*
X4996702Y-4041811D01*
X5080425Y-4112064D01*
X5149727Y-4150163D01*
X5086908Y-4183564D01*
X5002212Y-4252640D01*
X4932546Y-4336852D01*
X4880564Y-4432991D01*
X4848245Y-4537396D01*
X4836821Y-4646090D01*
X4846726Y-4754934D01*
X4877584Y-4859780D01*
X4928219Y-4956635D01*
X4996702Y-5041811D01*
X5080425Y-5112064D01*
X5149727Y-5150163D01*
X5086908Y-5183564D01*
X5002212Y-5252640D01*
X4932546Y-5336852D01*
X4880564Y-5432991D01*
X4848245Y-5537396D01*
X4836821Y-5646090D01*
X4846726Y-5754934D01*
X4877584Y-5859780D01*
X4928219Y-5956635D01*
X4996702Y-6041811D01*
X5080425Y-6112064D01*
X5149727Y-6150163D01*
X5086908Y-6183564D01*
X5002212Y-6252640D01*
X4932546Y-6336852D01*
X4880564Y-6432991D01*
X4848245Y-6537396D01*
X4836821Y-6646090D01*
X4846726Y-6754934D01*
X4877584Y-6859780D01*
X4928219Y-6956635D01*
X4996702Y-7041811D01*
X5080425Y-7112064D01*
X5156105Y-7153669D01*
X5142565Y-7159153D01*
X5051752Y-7218808D01*
X4974322Y-7295033D01*
X4913251Y-7384899D01*
X4870885Y-7484953D01*
X4864859Y-7514619D01*
X4900999Y-7600000D01*
X5215000Y-7600000D01*
X5215000Y-7700000D01*
X4900999Y-7700000D01*
X4864859Y-7785381D01*
X4870885Y-7815047D01*
X4913251Y-7915101D01*
X4974322Y-8004967D01*
X4984514Y-8015000D01*
X524558Y-8015000D01*
X567454Y-7963148D01*
X619436Y-7867009D01*
X651755Y-7762604D01*
X655853Y-7723613D01*
X747093Y-7632372D01*
X3689494Y-7632372D01*
X3703123Y-7706634D01*
X3730918Y-7776834D01*
X3771818Y-7840299D01*
X3824266Y-7894611D01*
X3886265Y-7937701D01*
X3955453Y-7967929D01*
X4029194Y-7984142D01*
X4104680Y-7985723D01*
X4179035Y-7972612D01*
X4249428Y-7945308D01*
X4313177Y-7904852D01*
X4367853Y-7852784D01*
X4411375Y-7791088D01*
X4442085Y-7722113D01*
X4458812Y-7648487D01*
X4460017Y-7562249D01*
X4445351Y-7488184D01*
X4416580Y-7418379D01*
X4374797Y-7355491D01*
X4321596Y-7301917D01*
X4259001Y-7259697D01*
X4189399Y-7230438D01*
X4115438Y-7215256D01*
X4039938Y-7214729D01*
X3965773Y-7228877D01*
X3895768Y-7257161D01*
X3832590Y-7298503D01*
X3778646Y-7351329D01*
X3735989Y-7413627D01*
X3706246Y-7483024D01*
X3690548Y-7556877D01*
X3689494Y-7632372D01*
X747093Y-7632372D01*
X1277232Y-7102233D01*
X1293992Y-7081829D01*
X1310982Y-7061581D01*
X1311707Y-7060263D01*
X1312661Y-7059101D01*
X1325144Y-7035820D01*
X1337873Y-7012667D01*
X1338328Y-7011234D01*
X1339038Y-7009909D01*
X1346755Y-6984666D01*
X1354750Y-6959463D01*
X1354918Y-6957966D01*
X1355357Y-6956530D01*
X1358025Y-6930268D01*
X1360972Y-6903993D01*
X1360993Y-6901052D01*
X1360998Y-6900999D01*
X1360993Y-6900950D01*
X1361000Y-6900000D01*
X1361000Y-2768466D01*
X1372895Y-2756571D01*
X1380918Y-2776834D01*
X1421818Y-2840299D01*
X1474266Y-2894611D01*
X1536265Y-2937701D01*
X1605453Y-2967929D01*
X1679194Y-2984142D01*
X1705222Y-2984687D01*
X1714000Y-2993465D01*
X1714000Y-6425000D01*
X1716582Y-6451329D01*
X1718881Y-6477609D01*
X1719300Y-6479051D01*
X1719447Y-6480551D01*
X1727084Y-6505846D01*
X1734453Y-6531212D01*
X1735146Y-6532549D01*
X1735580Y-6533986D01*
X1747964Y-6557277D01*
X1760140Y-6580766D01*
X1761079Y-6581942D01*
X1761785Y-6583270D01*
X1778482Y-6603743D01*
X1794964Y-6624389D01*
X1797033Y-6626488D01*
X1797063Y-6626525D01*
X1797097Y-6626553D01*
X1797767Y-6627233D01*
X2114679Y-6944144D01*
X2114494Y-6957372D01*
X2128123Y-7031634D01*
X2155918Y-7101834D01*
X2196818Y-7165299D01*
X2249266Y-7219611D01*
X2311265Y-7262701D01*
X2380453Y-7292929D01*
X2454194Y-7309142D01*
X2529680Y-7310723D01*
X2604035Y-7297612D01*
X2674428Y-7270308D01*
X2738177Y-7229852D01*
X2792853Y-7177784D01*
X2836375Y-7116088D01*
X2867085Y-7047113D01*
X2883812Y-6973487D01*
X2885017Y-6887249D01*
X2870351Y-6813184D01*
X2841580Y-6743379D01*
X2799797Y-6680491D01*
X2746596Y-6626917D01*
X2684001Y-6584697D01*
X2614399Y-6555438D01*
X2540438Y-6540256D01*
X2519576Y-6540110D01*
X2286000Y-6306534D01*
X2286000Y-2875000D01*
X2284529Y-2860000D01*
X3222735Y-2860000D01*
X3224083Y-2860589D01*
X3286332Y-2874276D01*
X3350054Y-2875611D01*
X3351000Y-2875444D01*
X3320368Y-2895489D01*
X3274831Y-2940083D01*
X3238822Y-2992672D01*
X3213714Y-3051254D01*
X3200462Y-3113597D01*
X3199572Y-3177327D01*
X3211078Y-3240016D01*
X3234541Y-3299276D01*
X3269067Y-3352850D01*
X3313342Y-3398698D01*
X3365678Y-3435073D01*
X3424083Y-3460589D01*
X3486332Y-3474276D01*
X3550054Y-3475611D01*
X3612822Y-3464543D01*
X3672244Y-3441494D01*
X3699777Y-3424021D01*
X3715678Y-3435073D01*
X3774083Y-3460589D01*
X3836332Y-3474276D01*
X3900054Y-3475611D01*
X3962822Y-3464543D01*
X4022244Y-3441494D01*
X4036709Y-3432314D01*
X4040678Y-3435073D01*
X4099083Y-3460589D01*
X4161332Y-3474276D01*
X4225054Y-3475611D01*
X4287822Y-3464543D01*
X4347244Y-3441494D01*
X4401058Y-3407343D01*
X4447214Y-3363390D01*
X4483954Y-3311308D01*
X4509877Y-3253082D01*
X4523998Y-3190930D01*
X4525014Y-3118132D01*
X4512635Y-3055610D01*
X4488347Y-2996683D01*
X4453076Y-2943596D01*
X4408165Y-2898371D01*
X4355326Y-2862731D01*
X4296570Y-2838032D01*
X4290920Y-2836872D01*
X4308954Y-2811308D01*
X4334877Y-2753082D01*
X4348998Y-2690930D01*
X4350014Y-2618132D01*
X4337635Y-2555610D01*
X4313347Y-2496683D01*
X4278076Y-2443596D01*
X4233165Y-2398371D01*
X4180326Y-2362731D01*
X4150172Y-2350055D01*
X4172244Y-2341494D01*
X4226058Y-2307343D01*
X4272214Y-2263390D01*
X4308954Y-2211308D01*
X4334877Y-2153082D01*
X4348998Y-2090930D01*
X4350014Y-2018132D01*
X4337635Y-1955610D01*
X4313347Y-1896683D01*
X4278076Y-1843596D01*
X4233165Y-1798371D01*
X4180326Y-1762731D01*
X4121570Y-1738032D01*
X4059136Y-1725216D01*
X3995402Y-1724771D01*
X3932795Y-1736714D01*
X3873700Y-1760590D01*
X3820368Y-1795489D01*
X3774831Y-1840083D01*
X3738822Y-1892672D01*
X3713714Y-1951254D01*
X3700462Y-2013597D01*
X3699572Y-2077327D01*
X3711078Y-2140016D01*
X3734541Y-2199276D01*
X3769067Y-2252850D01*
X3813342Y-2298698D01*
X3865678Y-2335073D01*
X3899877Y-2350014D01*
X3873700Y-2360590D01*
X3820368Y-2395489D01*
X3774831Y-2440083D01*
X3738822Y-2492672D01*
X3713714Y-2551254D01*
X3700462Y-2613597D01*
X3699572Y-2677327D01*
X3711078Y-2740016D01*
X3734541Y-2799276D01*
X3763652Y-2844448D01*
X3723700Y-2860590D01*
X3700073Y-2876051D01*
X3680326Y-2862731D01*
X3621570Y-2838032D01*
X3559136Y-2825216D01*
X3498561Y-2824793D01*
X3526058Y-2807343D01*
X3572214Y-2763390D01*
X3608954Y-2711308D01*
X3634877Y-2653082D01*
X3648998Y-2590930D01*
X3650014Y-2518132D01*
X3637635Y-2455610D01*
X3613347Y-2396683D01*
X3582005Y-2349510D01*
X3608954Y-2311308D01*
X3634877Y-2253082D01*
X3648998Y-2190930D01*
X3650014Y-2118132D01*
X3637635Y-2055610D01*
X3613347Y-1996683D01*
X3578076Y-1943596D01*
X3533165Y-1898371D01*
X3480326Y-1862731D01*
X3421570Y-1838032D01*
X3359136Y-1825216D01*
X3295402Y-1824771D01*
X3232795Y-1836714D01*
X3173700Y-1860590D01*
X3120368Y-1895489D01*
X3074831Y-1940083D01*
X3038822Y-1992672D01*
X3013714Y-2051254D01*
X3000462Y-2113597D01*
X2999572Y-2177327D01*
X3011075Y-2240000D01*
X2403406Y-2240000D01*
X2106156Y-1942750D01*
X2095351Y-1888184D01*
X2066580Y-1818379D01*
X2024797Y-1755491D01*
X1971596Y-1701917D01*
X1909001Y-1659697D01*
X1839399Y-1630438D01*
X1765438Y-1615256D01*
X1689938Y-1614729D01*
X1615773Y-1628877D01*
X1545768Y-1657161D01*
X1482590Y-1698503D01*
X1428646Y-1751329D01*
X1385989Y-1813627D01*
X1356246Y-1883024D01*
X1340548Y-1956877D01*
X1340221Y-1980314D01*
X872767Y-2447767D01*
X856001Y-2468179D01*
X839018Y-2488419D01*
X838292Y-2489740D01*
X837339Y-2490900D01*
X824877Y-2514141D01*
X812127Y-2537333D01*
X811672Y-2538769D01*
X810962Y-2540092D01*
X803249Y-2565320D01*
X795250Y-2590537D01*
X795082Y-2592034D01*
X794643Y-2593470D01*
X791976Y-2619728D01*
X789028Y-2646007D01*
X789007Y-2648949D01*
X789002Y-2649002D01*
X789007Y-2649051D01*
X789000Y-2650000D01*
X789000Y-6781535D01*
X395715Y-7174819D01*
X350273Y-7149837D01*
X413092Y-7116436D01*
X497788Y-7047360D01*
X567454Y-6963148D01*
X619436Y-6867009D01*
X651755Y-6762604D01*
X663179Y-6653910D01*
X653274Y-6545066D01*
X622416Y-6440220D01*
X571781Y-6343365D01*
X503298Y-6258189D01*
X419575Y-6187936D01*
X350273Y-6149837D01*
X413092Y-6116436D01*
X497788Y-6047360D01*
X567454Y-5963148D01*
X619436Y-5867009D01*
X651755Y-5762604D01*
X663179Y-5653910D01*
X653274Y-5545066D01*
X622416Y-5440220D01*
X571781Y-5343365D01*
X503298Y-5258189D01*
X419575Y-5187936D01*
X350273Y-5149837D01*
X413092Y-5116436D01*
X497788Y-5047360D01*
X567454Y-4963148D01*
X619436Y-4867009D01*
X651755Y-4762604D01*
X663179Y-4653910D01*
X653274Y-4545066D01*
X622416Y-4440220D01*
X571781Y-4343365D01*
X503298Y-4258189D01*
X419575Y-4187936D01*
X350273Y-4149837D01*
X413092Y-4116436D01*
X497788Y-4047360D01*
X567454Y-3963148D01*
X619436Y-3867009D01*
X651755Y-3762604D01*
X663179Y-3653910D01*
X653274Y-3545066D01*
X622416Y-3440220D01*
X571781Y-3343365D01*
X503298Y-3258189D01*
X419575Y-3187936D01*
X350273Y-3149837D01*
X413092Y-3116436D01*
X497788Y-3047360D01*
X567454Y-2963148D01*
X619436Y-2867009D01*
X651755Y-2762604D01*
X663179Y-2653910D01*
X653274Y-2545066D01*
X622416Y-2440220D01*
X571781Y-2343365D01*
X503298Y-2258189D01*
X419575Y-2187936D01*
X350273Y-2149837D01*
X413092Y-2116436D01*
X497788Y-2047360D01*
X567454Y-1963148D01*
X619436Y-1867009D01*
X651755Y-1762604D01*
X663179Y-1653910D01*
X653274Y-1545066D01*
X622416Y-1440220D01*
X571781Y-1343365D01*
X503298Y-1258189D01*
X419575Y-1187936D01*
X350273Y-1149837D01*
X413092Y-1116436D01*
X497788Y-1047360D01*
X567454Y-963148D01*
X619436Y-867009D01*
X651755Y-762604D01*
X663179Y-653910D01*
X653274Y-545066D01*
X622416Y-440220D01*
X571781Y-343365D01*
X524855Y-285000D01*
X4975442Y-285000D01*
X4932546Y-336852D01*
M02*
