G04 #@! TF.GenerationSoftware,KiCad,Pcbnew,(2017-04-18 revision 68a7a52)-master*
G04 #@! TF.CreationDate,2017-12-22T10:09:43+08:00*
G04 #@! TF.ProjectId,cdctl_bx,636463746C5F62782E6B696361645F70,rev?*
G04 #@! TF.FileFunction,Copper,L4,Bot,Signal*
G04 #@! TF.FilePolarity,Positive*
%FSLAX46Y46*%
G04 Gerber Fmt 4.6, Leading zero omitted, Abs format (unit mm)*
G04 Created by KiCad (PCBNEW (2017-04-18 revision 68a7a52)-master) date Fri Dec 22 10:09:43 2017*
%MOMM*%
%LPD*%
G01*
G04 APERTURE LIST*
%ADD10C,0.100000*%
%ADD11R,1.150000X0.700000*%
%ADD12O,0.900000X0.700000*%
%ADD13C,0.350000*%
%ADD14C,0.230000*%
%ADD15C,0.400000*%
%ADD16C,0.152000*%
G04 APERTURE END LIST*
D10*
D11*
X575000Y-7650000D03*
D12*
X0Y-7650000D03*
D11*
X575000Y-6650000D03*
X575000Y-5650000D03*
X575000Y-4650000D03*
X575000Y-3650000D03*
X575000Y-2650000D03*
X575000Y-1650000D03*
D12*
X0Y-6650000D03*
X0Y-5650000D03*
X0Y-4650000D03*
X0Y-3650000D03*
X0Y-2650000D03*
X0Y-1650000D03*
X0Y-650000D03*
D11*
X575000Y-650000D03*
X4925000Y-7650000D03*
D12*
X5500000Y-7650000D03*
X5500000Y-6650000D03*
X5500000Y-5650000D03*
X5500000Y-4650000D03*
X5500000Y-3650000D03*
X5500000Y-2650000D03*
X5500000Y-1650000D03*
D11*
X4925000Y-6650000D03*
X4925000Y-5650000D03*
X4925000Y-4650000D03*
X4925000Y-3650000D03*
X4925000Y-2650000D03*
X4925000Y-1650000D03*
D12*
X5500000Y-650000D03*
D11*
X4925000Y-650000D03*
D13*
X4075000Y-7600000D03*
X1725000Y-2000000D03*
D14*
X3325000Y-1350000D03*
X3325000Y-2550000D03*
D13*
X1411000Y-3025593D03*
X3550000Y-7325000D03*
X2375000Y-4175000D03*
X1775000Y-775000D03*
X4050000Y-4050000D03*
X3175000Y-5300000D03*
X1425000Y-1575000D03*
D14*
X3725000Y-1750000D03*
X3325000Y-1750000D03*
D15*
X2400000Y-7600000D03*
D13*
X2500000Y-6925000D03*
X1725000Y-2600000D03*
D14*
X3325000Y-2150000D03*
X3525000Y-3150000D03*
X3875000Y-3150000D03*
X4200000Y-3150000D03*
X4025000Y-2650000D03*
X4025000Y-1250000D03*
D13*
X3125000Y-700000D03*
D14*
X4025000Y-2050000D03*
D10*
X4075000Y-7600000D02*
X3733802Y-7600000D01*
X925000Y-7650000D02*
X575000Y-7650000D01*
X3733802Y-7600000D02*
X3358802Y-7975000D01*
X3358802Y-7975000D02*
X1250000Y-7975000D01*
X1250000Y-7975000D02*
X925000Y-7650000D01*
D16*
X4925000Y-7650000D02*
X4622282Y-7650000D01*
X4622282Y-7650000D02*
X4072282Y-7100000D01*
D10*
X800000Y-6650000D02*
X575000Y-6650000D01*
X3760001Y-3689999D02*
X800000Y-6650000D01*
X3760001Y-3264999D02*
X3760001Y-3689999D01*
X3875000Y-3150000D02*
X3760001Y-3264999D01*
X3612367Y-2899999D02*
X3150000Y-2899999D01*
X575000Y-4650000D02*
X1250000Y-4650000D01*
X1250000Y-4650000D02*
X3000001Y-2899999D01*
X3000001Y-2899999D02*
X3150000Y-2899999D01*
X4025000Y-2650000D02*
X3862366Y-2650000D01*
X3862366Y-2650000D02*
X3612367Y-2899999D01*
X4025000Y-2050000D02*
X4425000Y-1650000D01*
X4425000Y-1650000D02*
X4925000Y-1650000D01*
X4892533Y-7580000D02*
X4875000Y-7580000D01*
X4995000Y-7675000D02*
X4855000Y-7675000D01*
X4995000Y-7700000D02*
X4995000Y-7600000D01*
X4900000Y-7702360D02*
X4900000Y-7597639D01*
X4036709Y-3432314D02*
X4036709Y-3432314D01*
X4138984Y-3527314D02*
X4020001Y-3527314D01*
X4138984Y-3622314D02*
X4020001Y-3622314D01*
X4138984Y-3717314D02*
X4017318Y-3717314D01*
X4138984Y-3812314D02*
X3988041Y-3812314D01*
X4138984Y-3907314D02*
X3910381Y-3907314D01*
X4139211Y-4002314D02*
X3815381Y-4002314D01*
X4163899Y-4097314D02*
X3720381Y-4097314D01*
X4169444Y-4192314D02*
X3625381Y-4192314D01*
X4140234Y-4287314D02*
X3530381Y-4287314D01*
X4138984Y-4382314D02*
X3435381Y-4382314D01*
X4138984Y-4477314D02*
X3340381Y-4477314D01*
X4138984Y-4572314D02*
X3245381Y-4572314D01*
X4138984Y-4667314D02*
X3150381Y-4667314D01*
X4138984Y-4762314D02*
X3055381Y-4762314D01*
X4138984Y-4857314D02*
X2960381Y-4857314D01*
X4138984Y-4952314D02*
X2865381Y-4952314D01*
X4144903Y-5047314D02*
X2770381Y-5047314D01*
X4195128Y-5142314D02*
X2675381Y-5142314D01*
X4149567Y-5237314D02*
X2580381Y-5237314D01*
X4138984Y-5332314D02*
X2485381Y-5332314D01*
X4138984Y-5427314D02*
X2390381Y-5427314D01*
X4138984Y-5522314D02*
X2295381Y-5522314D01*
X4138984Y-5617314D02*
X2200381Y-5617314D01*
X4138984Y-5712314D02*
X2105381Y-5712314D01*
X4138984Y-5807314D02*
X2010381Y-5807314D01*
X4138984Y-5902314D02*
X1915381Y-5902314D01*
X4138984Y-5997314D02*
X1820381Y-5997314D01*
X4161227Y-6092314D02*
X1725381Y-6092314D01*
X4172117Y-6187314D02*
X1630381Y-6187314D01*
X4140727Y-6282314D02*
X1535381Y-6282314D01*
X4138984Y-6377314D02*
X1440381Y-6377314D01*
X4138984Y-6472314D02*
X1361016Y-6472314D01*
X2357516Y-6567314D02*
X1361016Y-6567314D01*
X4138984Y-6567314D02*
X2642650Y-6567314D01*
X2217958Y-6662314D02*
X1361016Y-6662314D01*
X4138984Y-6662314D02*
X2781747Y-6662314D01*
X2152980Y-6757314D02*
X1361016Y-6757314D01*
X4138984Y-6757314D02*
X2847324Y-6757314D01*
X2121832Y-6852314D02*
X1361016Y-6852314D01*
X4138984Y-6852314D02*
X2878100Y-6852314D01*
X2114635Y-6947314D02*
X1361016Y-6947314D01*
X4138984Y-6947314D02*
X2884177Y-6947314D01*
X2132351Y-7042314D02*
X1356613Y-7042314D01*
X4143386Y-7042314D02*
X2868175Y-7042314D01*
X2178783Y-7137314D02*
X1308974Y-7137314D01*
X4191025Y-7137314D02*
X2821401Y-7137314D01*
X2267543Y-7232314D02*
X1348917Y-7232314D01*
X3957267Y-7232314D02*
X2734297Y-7232314D01*
X3803170Y-7327314D02*
X1361016Y-7327314D01*
X3543792Y-7422314D02*
X1361016Y-7422314D01*
X3448792Y-7517314D02*
X1361016Y-7517314D01*
X3353792Y-7612314D02*
X1361016Y-7612314D01*
X3258792Y-7707314D02*
X1361016Y-7707314D01*
X4208659Y-7155670D02*
X4208659Y-7155670D01*
X4113659Y-7215244D02*
X4113659Y-3463793D01*
X4018659Y-7218788D02*
X4018659Y-3705369D01*
X3923659Y-7245892D02*
X3923659Y-3894037D01*
X3828659Y-7302352D02*
X3828659Y-3989037D01*
X3733659Y-7340014D02*
X3733659Y-4084037D01*
X3638659Y-7358183D02*
X3638659Y-4179037D01*
X3543659Y-7422447D02*
X3543659Y-4274037D01*
X3448659Y-7517447D02*
X3448659Y-4369037D01*
X3353659Y-7612447D02*
X3353659Y-4464037D01*
X3258659Y-7707447D02*
X3258659Y-4559037D01*
X3163659Y-7715000D02*
X3163659Y-4654037D01*
X3068659Y-7715000D02*
X3068659Y-4749037D01*
X2973659Y-7715000D02*
X2973659Y-4844037D01*
X2878659Y-6855141D02*
X2878659Y-4939037D01*
X2878659Y-7715000D02*
X2878659Y-6996169D01*
X2783659Y-6664240D02*
X2783659Y-5034037D01*
X2783659Y-7715000D02*
X2783659Y-7186540D01*
X2688659Y-6587839D02*
X2688659Y-5129037D01*
X2688659Y-7715000D02*
X2688659Y-7261277D01*
X2593659Y-6551181D02*
X2593659Y-5224037D01*
X2593659Y-7715000D02*
X2593659Y-7299442D01*
X2498659Y-6539965D02*
X2498659Y-5319037D01*
X2498659Y-7715000D02*
X2498659Y-7310073D01*
X2403659Y-6551418D02*
X2403659Y-5414037D01*
X2403659Y-7715000D02*
X2403659Y-7298031D01*
X2308659Y-6590084D02*
X2308659Y-5509037D01*
X2308659Y-7715000D02*
X2308659Y-7260889D01*
X2213659Y-6666523D02*
X2213659Y-5604037D01*
X2213659Y-7715000D02*
X2213659Y-7182738D01*
X2118659Y-6867240D02*
X2118659Y-5699037D01*
X2118659Y-7715000D02*
X2118659Y-6980066D01*
X2023659Y-6957372D02*
X2023659Y-5794037D01*
X2023659Y-7715000D02*
X2023659Y-6957372D01*
X1928659Y-6957372D02*
X1928659Y-5889037D01*
X1928659Y-7715000D02*
X1928659Y-6957372D01*
X1833659Y-6957372D02*
X1833659Y-5984037D01*
X1833659Y-7715000D02*
X1833659Y-6957372D01*
X1738659Y-6957372D02*
X1738659Y-6079037D01*
X1738659Y-7715000D02*
X1738659Y-6957372D01*
X1643659Y-6957372D02*
X1643659Y-6174037D01*
X1643659Y-7715000D02*
X1643659Y-6957372D01*
X1548659Y-6957372D02*
X1548659Y-6269037D01*
X1548659Y-7715000D02*
X1548659Y-6957372D01*
X1453659Y-6957372D02*
X1453659Y-6364037D01*
X1453659Y-7715000D02*
X1453659Y-6957372D01*
X1358659Y-7276072D02*
X1358659Y-7023929D01*
X3199814Y-3159999D02*
X3107697Y-3159999D01*
X3217010Y-3254999D02*
X3012697Y-3254999D01*
X3267229Y-3349999D02*
X2917697Y-3349999D01*
X3388398Y-3444999D02*
X2822697Y-3444999D01*
X3500001Y-3539999D02*
X2727697Y-3539999D01*
X3447306Y-3634999D02*
X2632697Y-3634999D01*
X3352306Y-3729999D02*
X2537697Y-3729999D01*
X3257306Y-3824999D02*
X2442697Y-3824999D01*
X3162306Y-3919999D02*
X2347697Y-3919999D01*
X3067306Y-4014999D02*
X2252697Y-4014999D01*
X2972306Y-4109999D02*
X2157697Y-4109999D01*
X2877306Y-4204999D02*
X2062697Y-4204999D01*
X2782306Y-4299999D02*
X1967697Y-4299999D01*
X2687306Y-4394999D02*
X1872697Y-4394999D01*
X2592306Y-4489999D02*
X1777697Y-4489999D01*
X2497306Y-4584999D02*
X1682697Y-4584999D01*
X2402306Y-4679999D02*
X1587697Y-4679999D01*
X2307306Y-4774999D02*
X1492697Y-4774999D01*
X2212306Y-4869999D02*
X1387853Y-4869999D01*
X2117306Y-4964999D02*
X1361016Y-4964999D01*
X2022306Y-5059999D02*
X1351248Y-5059999D01*
X1927306Y-5154999D02*
X1302666Y-5154999D01*
X1832306Y-5249999D02*
X1354282Y-5249999D01*
X1737306Y-5344999D02*
X1361016Y-5344999D01*
X1642306Y-5439999D02*
X1361016Y-5439999D01*
X1547306Y-5534999D02*
X1361016Y-5534999D01*
X1452306Y-5629999D02*
X1361016Y-5629999D01*
X3500001Y-3582304D02*
X3500001Y-3474562D01*
X3405001Y-3677303D02*
X3405001Y-3452252D01*
X3310001Y-3772303D02*
X3310001Y-3395238D01*
X3215001Y-3867303D02*
X3215001Y-3249924D01*
X3120001Y-3962303D02*
X3120001Y-3159999D01*
X3025001Y-4057303D02*
X3025001Y-3242695D01*
X2930001Y-4152303D02*
X2930001Y-3337695D01*
X2835001Y-4247303D02*
X2835001Y-3432695D01*
X2740001Y-4342303D02*
X2740001Y-3527695D01*
X2645001Y-4437303D02*
X2645001Y-3622695D01*
X2550001Y-4532303D02*
X2550001Y-3717695D01*
X2455001Y-4627303D02*
X2455001Y-3812695D01*
X2360001Y-4722303D02*
X2360001Y-3907695D01*
X2265001Y-4817303D02*
X2265001Y-4002695D01*
X2170001Y-4912303D02*
X2170001Y-4097695D01*
X2075001Y-5007303D02*
X2075001Y-4192695D01*
X1980001Y-5102303D02*
X1980001Y-4287695D01*
X1885001Y-5197303D02*
X1885001Y-4382695D01*
X1790001Y-5292303D02*
X1790001Y-4477695D01*
X1695001Y-5387303D02*
X1695001Y-4572695D01*
X1600001Y-5482303D02*
X1600001Y-4667695D01*
X1505001Y-5577303D02*
X1505001Y-4762695D01*
X1410001Y-5672303D02*
X1410001Y-4853414D01*
X1315001Y-5170030D02*
X1315001Y-5129971D01*
X4140462Y-285000D02*
X1359538Y-285000D01*
X2910866Y-380000D02*
X1361016Y-380000D01*
X4138984Y-380000D02*
X3339103Y-380000D01*
X2812438Y-475000D02*
X1361016Y-475000D01*
X4138984Y-475000D02*
X3437759Y-475000D01*
X2761828Y-570000D02*
X1361016Y-570000D01*
X4138984Y-570000D02*
X3487857Y-570000D01*
X2740435Y-665000D02*
X1361016Y-665000D01*
X4138984Y-665000D02*
X3509978Y-665000D01*
X2744564Y-760000D02*
X1361016Y-760000D01*
X4138984Y-760000D02*
X3506196Y-760000D01*
X2772273Y-855000D02*
X1361016Y-855000D01*
X4138984Y-855000D02*
X3477442Y-855000D01*
X2831186Y-950000D02*
X1361016Y-950000D01*
X3899912Y-950000D02*
X3419816Y-950000D01*
X2952971Y-1045000D02*
X1355798Y-1045000D01*
X3771465Y-1045000D02*
X3438147Y-1045000D01*
X3074916Y-1140000D02*
X1306770Y-1140000D01*
X3718538Y-1140000D02*
X3574505Y-1140000D01*
X3020681Y-1235000D02*
X1349732Y-1235000D01*
X3700164Y-1235000D02*
X3629141Y-1235000D01*
X3000233Y-1330000D02*
X1361016Y-1330000D01*
X3709239Y-1330000D02*
X3649848Y-1330000D01*
X3008321Y-1425000D02*
X1361016Y-1425000D01*
X3751118Y-1425000D02*
X3641257Y-1425000D01*
X3047896Y-1520000D02*
X1361016Y-1520000D01*
X3843991Y-1520000D02*
X3602822Y-1520000D01*
X1688518Y-1615000D02*
X1361016Y-1615000D01*
X3136797Y-1615000D02*
X1728763Y-1615000D01*
X4092305Y-1615000D02*
X3513992Y-1615000D01*
X1470850Y-1710000D02*
X1361016Y-1710000D01*
X3997305Y-1710000D02*
X1979623Y-1710000D01*
X1391897Y-1805000D02*
X1361016Y-1805000D01*
X3810656Y-1805000D02*
X2057691Y-1805000D01*
X3115762Y-1900000D02*
X2097691Y-1900000D01*
X3735682Y-1900000D02*
X3534783Y-1900000D01*
X3037825Y-1995000D02*
X2109559Y-1995000D01*
X3704416Y-1995000D02*
X3612229Y-1995000D01*
X3005478Y-2090000D02*
X2099380Y-2090000D01*
X3701898Y-2090000D02*
X3644445Y-2090000D01*
X3000980Y-2185000D02*
X2064085Y-2185000D01*
X3728888Y-2185000D02*
X3649080Y-2185000D01*
X3026908Y-2280000D02*
X1989274Y-2280000D01*
X3795285Y-2280000D02*
X3622892Y-2280000D01*
X3050923Y-2375000D02*
X2037759Y-2375000D01*
X3851680Y-2375000D02*
X3598941Y-2375000D01*
X3009730Y-2470000D02*
X2087857Y-2470000D01*
X3674670Y-2470000D02*
X3640485Y-2470000D01*
X2999745Y-2565000D02*
X2109978Y-2565000D01*
X2900203Y-2660000D02*
X2106196Y-2660000D01*
X1372273Y-2755000D02*
X1361016Y-2755000D01*
X2777304Y-2755000D02*
X2077442Y-2755000D01*
X1431186Y-2850000D02*
X1361016Y-2850000D01*
X2682304Y-2850000D02*
X2019816Y-2850000D01*
X1552971Y-2945000D02*
X1361016Y-2945000D01*
X2587304Y-2945000D02*
X1899913Y-2945000D01*
X2492304Y-3040000D02*
X1357075Y-3040000D01*
X2397304Y-3135000D02*
X1310873Y-3135000D01*
X2302304Y-3230000D02*
X1348215Y-3230000D01*
X2207304Y-3325000D02*
X1361016Y-3325000D01*
X2112304Y-3420000D02*
X1361016Y-3420000D01*
X2017304Y-3515000D02*
X1361016Y-3515000D01*
X1922304Y-3610000D02*
X1361016Y-3610000D01*
X1827304Y-3705000D02*
X1361016Y-3705000D01*
X1732304Y-3800000D02*
X1361016Y-3800000D01*
X1637304Y-3895000D02*
X1361016Y-3895000D01*
X1542304Y-3990000D02*
X1361016Y-3990000D01*
X1447304Y-4085000D02*
X1342682Y-4085000D01*
X1352304Y-4180000D02*
X1323184Y-4180000D01*
X4140462Y-285000D02*
X4140462Y-285000D01*
X4045462Y-925121D02*
X4045462Y-285000D01*
X4045462Y-1661843D02*
X4045462Y-1575514D01*
X3950462Y-933343D02*
X3950462Y-285000D01*
X3950462Y-1733344D02*
X3950462Y-1566389D01*
X3855462Y-972524D02*
X3855462Y-285000D01*
X3855462Y-1772524D02*
X3855462Y-1527972D01*
X3855462Y-2372524D02*
X3855462Y-2327972D01*
X3760462Y-1061068D02*
X3760462Y-285000D01*
X3760462Y-1861068D02*
X3760462Y-1439497D01*
X3760462Y-2411120D02*
X3760462Y-2239497D01*
X3665462Y-2479208D02*
X3665462Y-285000D01*
X3570462Y-1135929D02*
X3570462Y-285000D01*
X3570462Y-1935929D02*
X3570462Y-1565059D01*
X3475462Y-539929D02*
X3475462Y-285000D01*
X3475462Y-1060687D02*
X3475462Y-859449D01*
X3475462Y-1860687D02*
X3475462Y-1639452D01*
X3380462Y-410846D02*
X3380462Y-285000D01*
X3380462Y-1029594D02*
X3380462Y-988392D01*
X3380462Y-1829594D02*
X3380462Y-1670250D01*
X3285462Y-349802D02*
X3285462Y-285000D01*
X3285462Y-1826667D02*
X3285462Y-1674084D01*
X3190462Y-320393D02*
X3190462Y-285000D01*
X3190462Y-1853817D02*
X3190462Y-1645900D01*
X3095462Y-314768D02*
X3095462Y-285000D01*
X3095462Y-1119879D02*
X3095462Y-1084482D01*
X3095462Y-1919879D02*
X3095462Y-1580182D01*
X3000462Y-335063D02*
X3000462Y-285000D01*
X3000462Y-1313597D02*
X3000462Y-1065748D01*
X3000462Y-2113597D02*
X3000462Y-1382176D01*
X3000462Y-2513597D02*
X3000462Y-2182176D01*
X3000462Y-2639999D02*
X3000462Y-2582176D01*
X2905462Y-383536D02*
X2905462Y-285000D01*
X2905462Y-2658006D02*
X2905462Y-1016292D01*
X2810462Y-477885D02*
X2810462Y-285000D01*
X2810462Y-2721842D02*
X2810462Y-922677D01*
X2715462Y-732372D02*
X2715462Y-285000D01*
X2715462Y-2816842D02*
X2715462Y-732372D01*
X2620462Y-732372D02*
X2620462Y-285000D01*
X2620462Y-2911842D02*
X2620462Y-732372D01*
X2525462Y-732372D02*
X2525462Y-285000D01*
X2525462Y-3006842D02*
X2525462Y-732372D01*
X2430462Y-732372D02*
X2430462Y-285000D01*
X2430462Y-3101842D02*
X2430462Y-732372D01*
X2335462Y-732372D02*
X2335462Y-285000D01*
X2335462Y-3196842D02*
X2335462Y-732372D01*
X2240462Y-732372D02*
X2240462Y-285000D01*
X2240462Y-3291842D02*
X2240462Y-732372D01*
X2145462Y-732372D02*
X2145462Y-285000D01*
X2145462Y-3386842D02*
X2145462Y-732372D01*
X2050462Y-732372D02*
X2050462Y-285000D01*
X2050462Y-1794120D02*
X2050462Y-732372D01*
X2050462Y-2394120D02*
X2050462Y-2206559D01*
X2050462Y-3481842D02*
X2050462Y-2806559D01*
X1955462Y-732372D02*
X1955462Y-285000D01*
X1955462Y-1691035D02*
X1955462Y-732372D01*
X1955462Y-3576842D02*
X1955462Y-2909749D01*
X1860462Y-732372D02*
X1860462Y-285000D01*
X1860462Y-1639293D02*
X1860462Y-732372D01*
X1860462Y-3671842D02*
X1860462Y-2960423D01*
X1765462Y-732372D02*
X1765462Y-285000D01*
X1765462Y-1615261D02*
X1765462Y-732372D01*
X1765462Y-3766842D02*
X1765462Y-2983822D01*
X1670462Y-732372D02*
X1670462Y-285000D01*
X1670462Y-1618444D02*
X1670462Y-732372D01*
X1670462Y-3861842D02*
X1670462Y-2982222D01*
X1575462Y-732372D02*
X1575462Y-285000D01*
X1575462Y-1645163D02*
X1575462Y-732372D01*
X1575462Y-3956842D02*
X1575462Y-2954826D01*
X1480462Y-732372D02*
X1480462Y-285000D01*
X1480462Y-1700586D02*
X1480462Y-732372D01*
X1480462Y-4051842D02*
X1480462Y-2898917D01*
X1385462Y-732372D02*
X1385462Y-285000D01*
X1385462Y-1814856D02*
X1385462Y-732372D01*
X1385462Y-4146842D02*
X1385462Y-2783884D01*
X4900999Y-7600000D02*
X4995000Y-7600000D01*
X4995000Y-7700000D01*
X4900999Y-7700000D01*
X4892533Y-7720000D01*
X4875000Y-7720000D01*
X4875000Y-7700000D01*
X4855000Y-7700000D01*
X4855000Y-7600000D01*
X4875000Y-7600000D01*
X4875000Y-7580000D01*
X4892533Y-7580000D01*
X4900999Y-7600000D01*
X4892533Y-7580000D02*
X4875000Y-7580000D01*
X4995000Y-7675000D02*
X4855000Y-7675000D01*
X4995000Y-7700000D02*
X4995000Y-7600000D01*
X4900000Y-7702360D02*
X4900000Y-7597639D01*
X4036709Y-3432314D02*
X4036709Y-3432314D01*
X4138984Y-3527314D02*
X4020001Y-3527314D01*
X4138984Y-3622314D02*
X4020001Y-3622314D01*
X4138984Y-3717314D02*
X4017318Y-3717314D01*
X4138984Y-3812314D02*
X3988041Y-3812314D01*
X4138984Y-3907314D02*
X3910381Y-3907314D01*
X4139211Y-4002314D02*
X3815381Y-4002314D01*
X4163899Y-4097314D02*
X3720381Y-4097314D01*
X4169444Y-4192314D02*
X3625381Y-4192314D01*
X4140234Y-4287314D02*
X3530381Y-4287314D01*
X4138984Y-4382314D02*
X3435381Y-4382314D01*
X4138984Y-4477314D02*
X3340381Y-4477314D01*
X4138984Y-4572314D02*
X3245381Y-4572314D01*
X4138984Y-4667314D02*
X3150381Y-4667314D01*
X4138984Y-4762314D02*
X3055381Y-4762314D01*
X4138984Y-4857314D02*
X2960381Y-4857314D01*
X4138984Y-4952314D02*
X2865381Y-4952314D01*
X4144903Y-5047314D02*
X2770381Y-5047314D01*
X4195128Y-5142314D02*
X2675381Y-5142314D01*
X4149567Y-5237314D02*
X2580381Y-5237314D01*
X4138984Y-5332314D02*
X2485381Y-5332314D01*
X4138984Y-5427314D02*
X2390381Y-5427314D01*
X4138984Y-5522314D02*
X2295381Y-5522314D01*
X4138984Y-5617314D02*
X2200381Y-5617314D01*
X4138984Y-5712314D02*
X2105381Y-5712314D01*
X4138984Y-5807314D02*
X2010381Y-5807314D01*
X4138984Y-5902314D02*
X1915381Y-5902314D01*
X4138984Y-5997314D02*
X1820381Y-5997314D01*
X4161227Y-6092314D02*
X1725381Y-6092314D01*
X4172117Y-6187314D02*
X1630381Y-6187314D01*
X4140727Y-6282314D02*
X1535381Y-6282314D01*
X4138984Y-6377314D02*
X1440381Y-6377314D01*
X4138984Y-6472314D02*
X1361016Y-6472314D01*
X2357516Y-6567314D02*
X1361016Y-6567314D01*
X4138984Y-6567314D02*
X2642650Y-6567314D01*
X2217958Y-6662314D02*
X1361016Y-6662314D01*
X4138984Y-6662314D02*
X2781747Y-6662314D01*
X2152980Y-6757314D02*
X1361016Y-6757314D01*
X4138984Y-6757314D02*
X2847324Y-6757314D01*
X2121832Y-6852314D02*
X1361016Y-6852314D01*
X4138984Y-6852314D02*
X2878100Y-6852314D01*
X2114635Y-6947314D02*
X1361016Y-6947314D01*
X4138984Y-6947314D02*
X2884177Y-6947314D01*
X2132351Y-7042314D02*
X1356613Y-7042314D01*
X4143386Y-7042314D02*
X2868175Y-7042314D01*
X2178783Y-7137314D02*
X1308974Y-7137314D01*
X4191025Y-7137314D02*
X2821401Y-7137314D01*
X2267543Y-7232314D02*
X1348917Y-7232314D01*
X3957267Y-7232314D02*
X2734297Y-7232314D01*
X3803170Y-7327314D02*
X1361016Y-7327314D01*
X3543792Y-7422314D02*
X1361016Y-7422314D01*
X3448792Y-7517314D02*
X1361016Y-7517314D01*
X3353792Y-7612314D02*
X1361016Y-7612314D01*
X3258792Y-7707314D02*
X1361016Y-7707314D01*
X4208659Y-7155670D02*
X4208659Y-7155670D01*
X4113659Y-7215244D02*
X4113659Y-3463793D01*
X4018659Y-7218788D02*
X4018659Y-3705369D01*
X3923659Y-7245892D02*
X3923659Y-3894037D01*
X3828659Y-7302352D02*
X3828659Y-3989037D01*
X3733659Y-7340014D02*
X3733659Y-4084037D01*
X3638659Y-7358183D02*
X3638659Y-4179037D01*
X3543659Y-7422447D02*
X3543659Y-4274037D01*
X3448659Y-7517447D02*
X3448659Y-4369037D01*
X3353659Y-7612447D02*
X3353659Y-4464037D01*
X3258659Y-7707447D02*
X3258659Y-4559037D01*
X3163659Y-7715000D02*
X3163659Y-4654037D01*
X3068659Y-7715000D02*
X3068659Y-4749037D01*
X2973659Y-7715000D02*
X2973659Y-4844037D01*
X2878659Y-6855141D02*
X2878659Y-4939037D01*
X2878659Y-7715000D02*
X2878659Y-6996169D01*
X2783659Y-6664240D02*
X2783659Y-5034037D01*
X2783659Y-7715000D02*
X2783659Y-7186540D01*
X2688659Y-6587839D02*
X2688659Y-5129037D01*
X2688659Y-7715000D02*
X2688659Y-7261277D01*
X2593659Y-6551181D02*
X2593659Y-5224037D01*
X2593659Y-7715000D02*
X2593659Y-7299442D01*
X2498659Y-6539965D02*
X2498659Y-5319037D01*
X2498659Y-7715000D02*
X2498659Y-7310073D01*
X2403659Y-6551418D02*
X2403659Y-5414037D01*
X2403659Y-7715000D02*
X2403659Y-7298031D01*
X2308659Y-6590084D02*
X2308659Y-5509037D01*
X2308659Y-7715000D02*
X2308659Y-7260889D01*
X2213659Y-6666523D02*
X2213659Y-5604037D01*
X2213659Y-7715000D02*
X2213659Y-7182738D01*
X2118659Y-6867240D02*
X2118659Y-5699037D01*
X2118659Y-7715000D02*
X2118659Y-6980066D01*
X2023659Y-6957372D02*
X2023659Y-5794037D01*
X2023659Y-7715000D02*
X2023659Y-6957372D01*
X1928659Y-6957372D02*
X1928659Y-5889037D01*
X1928659Y-7715000D02*
X1928659Y-6957372D01*
X1833659Y-6957372D02*
X1833659Y-5984037D01*
X1833659Y-7715000D02*
X1833659Y-6957372D01*
X1738659Y-6957372D02*
X1738659Y-6079037D01*
X1738659Y-7715000D02*
X1738659Y-6957372D01*
X1643659Y-6957372D02*
X1643659Y-6174037D01*
X1643659Y-7715000D02*
X1643659Y-6957372D01*
X1548659Y-6957372D02*
X1548659Y-6269037D01*
X1548659Y-7715000D02*
X1548659Y-6957372D01*
X1453659Y-6957372D02*
X1453659Y-6364037D01*
X1453659Y-7715000D02*
X1453659Y-6957372D01*
X1358659Y-7276072D02*
X1358659Y-7023929D01*
X3199814Y-3159999D02*
X3107697Y-3159999D01*
X3217010Y-3254999D02*
X3012697Y-3254999D01*
X3267229Y-3349999D02*
X2917697Y-3349999D01*
X3388398Y-3444999D02*
X2822697Y-3444999D01*
X3500001Y-3539999D02*
X2727697Y-3539999D01*
X3447306Y-3634999D02*
X2632697Y-3634999D01*
X3352306Y-3729999D02*
X2537697Y-3729999D01*
X3257306Y-3824999D02*
X2442697Y-3824999D01*
X3162306Y-3919999D02*
X2347697Y-3919999D01*
X3067306Y-4014999D02*
X2252697Y-4014999D01*
X2972306Y-4109999D02*
X2157697Y-4109999D01*
X2877306Y-4204999D02*
X2062697Y-4204999D01*
X2782306Y-4299999D02*
X1967697Y-4299999D01*
X2687306Y-4394999D02*
X1872697Y-4394999D01*
X2592306Y-4489999D02*
X1777697Y-4489999D01*
X2497306Y-4584999D02*
X1682697Y-4584999D01*
X2402306Y-4679999D02*
X1587697Y-4679999D01*
X2307306Y-4774999D02*
X1492697Y-4774999D01*
X2212306Y-4869999D02*
X1387853Y-4869999D01*
X2117306Y-4964999D02*
X1361016Y-4964999D01*
X2022306Y-5059999D02*
X1351248Y-5059999D01*
X1927306Y-5154999D02*
X1302666Y-5154999D01*
X1832306Y-5249999D02*
X1354282Y-5249999D01*
X1737306Y-5344999D02*
X1361016Y-5344999D01*
X1642306Y-5439999D02*
X1361016Y-5439999D01*
X1547306Y-5534999D02*
X1361016Y-5534999D01*
X1452306Y-5629999D02*
X1361016Y-5629999D01*
X3500001Y-3582304D02*
X3500001Y-3474562D01*
X3405001Y-3677303D02*
X3405001Y-3452252D01*
X3310001Y-3772303D02*
X3310001Y-3395238D01*
X3215001Y-3867303D02*
X3215001Y-3249924D01*
X3120001Y-3962303D02*
X3120001Y-3159999D01*
X3025001Y-4057303D02*
X3025001Y-3242695D01*
X2930001Y-4152303D02*
X2930001Y-3337695D01*
X2835001Y-4247303D02*
X2835001Y-3432695D01*
X2740001Y-4342303D02*
X2740001Y-3527695D01*
X2645001Y-4437303D02*
X2645001Y-3622695D01*
X2550001Y-4532303D02*
X2550001Y-3717695D01*
X2455001Y-4627303D02*
X2455001Y-3812695D01*
X2360001Y-4722303D02*
X2360001Y-3907695D01*
X2265001Y-4817303D02*
X2265001Y-4002695D01*
X2170001Y-4912303D02*
X2170001Y-4097695D01*
X2075001Y-5007303D02*
X2075001Y-4192695D01*
X1980001Y-5102303D02*
X1980001Y-4287695D01*
X1885001Y-5197303D02*
X1885001Y-4382695D01*
X1790001Y-5292303D02*
X1790001Y-4477695D01*
X1695001Y-5387303D02*
X1695001Y-4572695D01*
X1600001Y-5482303D02*
X1600001Y-4667695D01*
X1505001Y-5577303D02*
X1505001Y-4762695D01*
X1410001Y-5672303D02*
X1410001Y-4853414D01*
X1315001Y-5170030D02*
X1315001Y-5129971D01*
X4140462Y-285000D02*
X1359538Y-285000D01*
X2910866Y-380000D02*
X1361016Y-380000D01*
X4138984Y-380000D02*
X3339103Y-380000D01*
X2812438Y-475000D02*
X1361016Y-475000D01*
X4138984Y-475000D02*
X3437759Y-475000D01*
X2761828Y-570000D02*
X1361016Y-570000D01*
X4138984Y-570000D02*
X3487857Y-570000D01*
X2740435Y-665000D02*
X1361016Y-665000D01*
X4138984Y-665000D02*
X3509978Y-665000D01*
X2744564Y-760000D02*
X1361016Y-760000D01*
X4138984Y-760000D02*
X3506196Y-760000D01*
X2772273Y-855000D02*
X1361016Y-855000D01*
X4138984Y-855000D02*
X3477442Y-855000D01*
X2831186Y-950000D02*
X1361016Y-950000D01*
X3899912Y-950000D02*
X3419816Y-950000D01*
X2952971Y-1045000D02*
X1355798Y-1045000D01*
X3771465Y-1045000D02*
X3438147Y-1045000D01*
X3074916Y-1140000D02*
X1306770Y-1140000D01*
X3718538Y-1140000D02*
X3574505Y-1140000D01*
X3020681Y-1235000D02*
X1349732Y-1235000D01*
X3700164Y-1235000D02*
X3629141Y-1235000D01*
X3000233Y-1330000D02*
X1361016Y-1330000D01*
X3709239Y-1330000D02*
X3649848Y-1330000D01*
X3008321Y-1425000D02*
X1361016Y-1425000D01*
X3751118Y-1425000D02*
X3641257Y-1425000D01*
X3047896Y-1520000D02*
X1361016Y-1520000D01*
X3843991Y-1520000D02*
X3602822Y-1520000D01*
X1688518Y-1615000D02*
X1361016Y-1615000D01*
X3136797Y-1615000D02*
X1728763Y-1615000D01*
X4092305Y-1615000D02*
X3513992Y-1615000D01*
X1470850Y-1710000D02*
X1361016Y-1710000D01*
X3997305Y-1710000D02*
X1979623Y-1710000D01*
X1391897Y-1805000D02*
X1361016Y-1805000D01*
X3810656Y-1805000D02*
X2057691Y-1805000D01*
X3115762Y-1900000D02*
X2097691Y-1900000D01*
X3735682Y-1900000D02*
X3534783Y-1900000D01*
X3037825Y-1995000D02*
X2109559Y-1995000D01*
X3704416Y-1995000D02*
X3612229Y-1995000D01*
X3005478Y-2090000D02*
X2099380Y-2090000D01*
X3701898Y-2090000D02*
X3644445Y-2090000D01*
X3000980Y-2185000D02*
X2064085Y-2185000D01*
X3728888Y-2185000D02*
X3649080Y-2185000D01*
X3026908Y-2280000D02*
X1989274Y-2280000D01*
X3795285Y-2280000D02*
X3622892Y-2280000D01*
X3050923Y-2375000D02*
X2037759Y-2375000D01*
X3851680Y-2375000D02*
X3598941Y-2375000D01*
X3009730Y-2470000D02*
X2087857Y-2470000D01*
X3674670Y-2470000D02*
X3640485Y-2470000D01*
X2999745Y-2565000D02*
X2109978Y-2565000D01*
X2900203Y-2660000D02*
X2106196Y-2660000D01*
X1372273Y-2755000D02*
X1361016Y-2755000D01*
X2777304Y-2755000D02*
X2077442Y-2755000D01*
X1431186Y-2850000D02*
X1361016Y-2850000D01*
X2682304Y-2850000D02*
X2019816Y-2850000D01*
X1552971Y-2945000D02*
X1361016Y-2945000D01*
X2587304Y-2945000D02*
X1899913Y-2945000D01*
X2492304Y-3040000D02*
X1357075Y-3040000D01*
X2397304Y-3135000D02*
X1310873Y-3135000D01*
X2302304Y-3230000D02*
X1348215Y-3230000D01*
X2207304Y-3325000D02*
X1361016Y-3325000D01*
X2112304Y-3420000D02*
X1361016Y-3420000D01*
X2017304Y-3515000D02*
X1361016Y-3515000D01*
X1922304Y-3610000D02*
X1361016Y-3610000D01*
X1827304Y-3705000D02*
X1361016Y-3705000D01*
X1732304Y-3800000D02*
X1361016Y-3800000D01*
X1637304Y-3895000D02*
X1361016Y-3895000D01*
X1542304Y-3990000D02*
X1361016Y-3990000D01*
X1447304Y-4085000D02*
X1342682Y-4085000D01*
X1352304Y-4180000D02*
X1323184Y-4180000D01*
X4140462Y-285000D02*
X4140462Y-285000D01*
X4045462Y-925121D02*
X4045462Y-285000D01*
X4045462Y-1661843D02*
X4045462Y-1575514D01*
X3950462Y-933343D02*
X3950462Y-285000D01*
X3950462Y-1733344D02*
X3950462Y-1566389D01*
X3855462Y-972524D02*
X3855462Y-285000D01*
X3855462Y-1772524D02*
X3855462Y-1527972D01*
X3855462Y-2372524D02*
X3855462Y-2327972D01*
X3760462Y-1061068D02*
X3760462Y-285000D01*
X3760462Y-1861068D02*
X3760462Y-1439497D01*
X3760462Y-2411120D02*
X3760462Y-2239497D01*
X3665462Y-2479208D02*
X3665462Y-285000D01*
X3570462Y-1135929D02*
X3570462Y-285000D01*
X3570462Y-1935929D02*
X3570462Y-1565059D01*
X3475462Y-539929D02*
X3475462Y-285000D01*
X3475462Y-1060687D02*
X3475462Y-859449D01*
X3475462Y-1860687D02*
X3475462Y-1639452D01*
X3380462Y-410846D02*
X3380462Y-285000D01*
X3380462Y-1029594D02*
X3380462Y-988392D01*
X3380462Y-1829594D02*
X3380462Y-1670250D01*
X3285462Y-349802D02*
X3285462Y-285000D01*
X3285462Y-1826667D02*
X3285462Y-1674084D01*
X3190462Y-320393D02*
X3190462Y-285000D01*
X3190462Y-1853817D02*
X3190462Y-1645900D01*
X3095462Y-314768D02*
X3095462Y-285000D01*
X3095462Y-1119879D02*
X3095462Y-1084482D01*
X3095462Y-1919879D02*
X3095462Y-1580182D01*
X3000462Y-335063D02*
X3000462Y-285000D01*
X3000462Y-1313597D02*
X3000462Y-1065748D01*
X3000462Y-2113597D02*
X3000462Y-1382176D01*
X3000462Y-2513597D02*
X3000462Y-2182176D01*
X3000462Y-2639999D02*
X3000462Y-2582176D01*
X2905462Y-383536D02*
X2905462Y-285000D01*
X2905462Y-2658006D02*
X2905462Y-1016292D01*
X2810462Y-477885D02*
X2810462Y-285000D01*
X2810462Y-2721842D02*
X2810462Y-922677D01*
X2715462Y-732372D02*
X2715462Y-285000D01*
X2715462Y-2816842D02*
X2715462Y-732372D01*
X2620462Y-732372D02*
X2620462Y-285000D01*
X2620462Y-2911842D02*
X2620462Y-732372D01*
X2525462Y-732372D02*
X2525462Y-285000D01*
X2525462Y-3006842D02*
X2525462Y-732372D01*
X2430462Y-732372D02*
X2430462Y-285000D01*
X2430462Y-3101842D02*
X2430462Y-732372D01*
X2335462Y-732372D02*
X2335462Y-285000D01*
X2335462Y-3196842D02*
X2335462Y-732372D01*
X2240462Y-732372D02*
X2240462Y-285000D01*
X2240462Y-3291842D02*
X2240462Y-732372D01*
X2145462Y-732372D02*
X2145462Y-285000D01*
X2145462Y-3386842D02*
X2145462Y-732372D01*
X2050462Y-732372D02*
X2050462Y-285000D01*
X2050462Y-1794120D02*
X2050462Y-732372D01*
X2050462Y-2394120D02*
X2050462Y-2206559D01*
X2050462Y-3481842D02*
X2050462Y-2806559D01*
X1955462Y-732372D02*
X1955462Y-285000D01*
X1955462Y-1691035D02*
X1955462Y-732372D01*
X1955462Y-3576842D02*
X1955462Y-2909749D01*
X1860462Y-732372D02*
X1860462Y-285000D01*
X1860462Y-1639293D02*
X1860462Y-732372D01*
X1860462Y-3671842D02*
X1860462Y-2960423D01*
X1765462Y-732372D02*
X1765462Y-285000D01*
X1765462Y-1615261D02*
X1765462Y-732372D01*
X1765462Y-3766842D02*
X1765462Y-2983822D01*
X1670462Y-732372D02*
X1670462Y-285000D01*
X1670462Y-1618444D02*
X1670462Y-732372D01*
X1670462Y-3861842D02*
X1670462Y-2982222D01*
X1575462Y-732372D02*
X1575462Y-285000D01*
X1575462Y-1645163D02*
X1575462Y-732372D01*
X1575462Y-3956842D02*
X1575462Y-2954826D01*
X1480462Y-732372D02*
X1480462Y-285000D01*
X1480462Y-1700586D02*
X1480462Y-732372D01*
X1480462Y-4051842D02*
X1480462Y-2898917D01*
X1385462Y-732372D02*
X1385462Y-285000D01*
X1385462Y-1814856D02*
X1385462Y-732372D01*
X1385462Y-4146842D02*
X1385462Y-2783884D01*
X4040678Y-3435073D02*
X4099083Y-3460589D01*
X4138984Y-3469362D01*
X4138984Y-4000000D01*
X4143039Y-4041167D01*
X4155047Y-4080752D01*
X4174547Y-4117234D01*
X4200789Y-4149211D01*
X4201750Y-4150000D01*
X4200789Y-4150789D01*
X4174547Y-4182766D01*
X4155047Y-4219248D01*
X4143039Y-4258833D01*
X4138984Y-4300000D01*
X4138984Y-5000000D01*
X4143039Y-5041167D01*
X4155047Y-5080752D01*
X4174547Y-5117234D01*
X4200789Y-5149211D01*
X4201750Y-5150000D01*
X4200789Y-5150789D01*
X4174547Y-5182766D01*
X4155047Y-5219248D01*
X4143039Y-5258833D01*
X4138984Y-5300000D01*
X4138984Y-6000000D01*
X4143039Y-6041167D01*
X4155047Y-6080752D01*
X4174547Y-6117234D01*
X4200789Y-6149211D01*
X4201750Y-6150000D01*
X4200789Y-6150789D01*
X4174547Y-6182766D01*
X4155047Y-6219248D01*
X4143039Y-6258833D01*
X4138984Y-6300000D01*
X4138984Y-7000000D01*
X4143039Y-7041167D01*
X4155047Y-7080752D01*
X4174547Y-7117234D01*
X4200789Y-7149211D01*
X4208659Y-7155670D01*
X4193097Y-7171232D01*
X4170990Y-7204317D01*
X4162461Y-7224908D01*
X4115438Y-7215256D01*
X4039938Y-7214729D01*
X3965773Y-7228877D01*
X3895768Y-7257161D01*
X3832590Y-7298503D01*
X3790215Y-7340000D01*
X3733802Y-7340000D01*
X3709874Y-7342346D01*
X3685974Y-7344437D01*
X3684660Y-7344819D01*
X3683301Y-7344952D01*
X3660303Y-7351895D01*
X3637247Y-7358594D01*
X3636035Y-7359222D01*
X3634724Y-7359618D01*
X3613463Y-7370922D01*
X3592196Y-7381946D01*
X3591131Y-7382796D01*
X3589920Y-7383440D01*
X3571294Y-7398631D01*
X3552539Y-7413603D01*
X3550632Y-7415484D01*
X3550597Y-7415512D01*
X3550570Y-7415544D01*
X3549954Y-7416152D01*
X3251106Y-7715000D01*
X1361016Y-7715000D01*
X1361016Y-7300000D01*
X1356961Y-7258833D01*
X1344953Y-7219248D01*
X1325453Y-7182766D01*
X1299211Y-7150789D01*
X1298250Y-7150000D01*
X1299211Y-7149211D01*
X1325453Y-7117234D01*
X1344953Y-7080752D01*
X1356961Y-7041167D01*
X1361016Y-7000000D01*
X1361016Y-6957372D01*
X2114494Y-6957372D01*
X2128123Y-7031634D01*
X2155918Y-7101834D01*
X2196818Y-7165299D01*
X2249266Y-7219611D01*
X2311265Y-7262701D01*
X2380453Y-7292929D01*
X2454194Y-7309142D01*
X2529680Y-7310723D01*
X2604035Y-7297612D01*
X2674428Y-7270308D01*
X2738177Y-7229852D01*
X2792853Y-7177784D01*
X2836375Y-7116088D01*
X2867085Y-7047113D01*
X2883812Y-6973487D01*
X2885017Y-6887249D01*
X2870351Y-6813184D01*
X2841580Y-6743379D01*
X2799797Y-6680491D01*
X2746596Y-6626917D01*
X2684001Y-6584697D01*
X2614399Y-6555438D01*
X2540438Y-6540256D01*
X2464938Y-6539729D01*
X2390773Y-6553877D01*
X2320768Y-6582161D01*
X2257590Y-6623503D01*
X2203646Y-6676329D01*
X2160989Y-6738627D01*
X2131246Y-6808024D01*
X2115548Y-6881877D01*
X2114494Y-6957372D01*
X1361016Y-6957372D01*
X1361016Y-6456680D01*
X3943849Y-3873846D01*
X3959073Y-3855312D01*
X3974531Y-3836890D01*
X3975191Y-3835689D01*
X3976057Y-3834635D01*
X3987404Y-3813474D01*
X3998976Y-3792424D01*
X3999389Y-3791123D01*
X4000036Y-3789916D01*
X4007078Y-3766884D01*
X4014319Y-3744056D01*
X4014471Y-3742702D01*
X4014872Y-3741390D01*
X4017304Y-3717447D01*
X4019976Y-3693629D01*
X4019994Y-3690961D01*
X4020000Y-3690906D01*
X4019995Y-3690854D01*
X4020001Y-3689999D01*
X4020001Y-3442364D01*
X4022244Y-3441494D01*
X4036709Y-3432314D01*
X4040678Y-3435073D01*
X4892533Y-7580000D02*
X4875000Y-7580000D01*
X4995000Y-7675000D02*
X4855000Y-7675000D01*
X4995000Y-7700000D02*
X4995000Y-7600000D01*
X4900000Y-7702360D02*
X4900000Y-7597639D01*
X4036709Y-3432314D02*
X4036709Y-3432314D01*
X4138984Y-3527314D02*
X4020001Y-3527314D01*
X4138984Y-3622314D02*
X4020001Y-3622314D01*
X4138984Y-3717314D02*
X4017318Y-3717314D01*
X4138984Y-3812314D02*
X3988041Y-3812314D01*
X4138984Y-3907314D02*
X3910381Y-3907314D01*
X4139211Y-4002314D02*
X3815381Y-4002314D01*
X4163899Y-4097314D02*
X3720381Y-4097314D01*
X4169444Y-4192314D02*
X3625381Y-4192314D01*
X4140234Y-4287314D02*
X3530381Y-4287314D01*
X4138984Y-4382314D02*
X3435381Y-4382314D01*
X4138984Y-4477314D02*
X3340381Y-4477314D01*
X4138984Y-4572314D02*
X3245381Y-4572314D01*
X4138984Y-4667314D02*
X3150381Y-4667314D01*
X4138984Y-4762314D02*
X3055381Y-4762314D01*
X4138984Y-4857314D02*
X2960381Y-4857314D01*
X4138984Y-4952314D02*
X2865381Y-4952314D01*
X4144903Y-5047314D02*
X2770381Y-5047314D01*
X4195128Y-5142314D02*
X2675381Y-5142314D01*
X4149567Y-5237314D02*
X2580381Y-5237314D01*
X4138984Y-5332314D02*
X2485381Y-5332314D01*
X4138984Y-5427314D02*
X2390381Y-5427314D01*
X4138984Y-5522314D02*
X2295381Y-5522314D01*
X4138984Y-5617314D02*
X2200381Y-5617314D01*
X4138984Y-5712314D02*
X2105381Y-5712314D01*
X4138984Y-5807314D02*
X2010381Y-5807314D01*
X4138984Y-5902314D02*
X1915381Y-5902314D01*
X4138984Y-5997314D02*
X1820381Y-5997314D01*
X4161227Y-6092314D02*
X1725381Y-6092314D01*
X4172117Y-6187314D02*
X1630381Y-6187314D01*
X4140727Y-6282314D02*
X1535381Y-6282314D01*
X4138984Y-6377314D02*
X1440381Y-6377314D01*
X4138984Y-6472314D02*
X1361016Y-6472314D01*
X2357516Y-6567314D02*
X1361016Y-6567314D01*
X4138984Y-6567314D02*
X2642650Y-6567314D01*
X2217958Y-6662314D02*
X1361016Y-6662314D01*
X4138984Y-6662314D02*
X2781747Y-6662314D01*
X2152980Y-6757314D02*
X1361016Y-6757314D01*
X4138984Y-6757314D02*
X2847324Y-6757314D01*
X2121832Y-6852314D02*
X1361016Y-6852314D01*
X4138984Y-6852314D02*
X2878100Y-6852314D01*
X2114635Y-6947314D02*
X1361016Y-6947314D01*
X4138984Y-6947314D02*
X2884177Y-6947314D01*
X2132351Y-7042314D02*
X1356613Y-7042314D01*
X4143386Y-7042314D02*
X2868175Y-7042314D01*
X2178783Y-7137314D02*
X1308974Y-7137314D01*
X4191025Y-7137314D02*
X2821401Y-7137314D01*
X2267543Y-7232314D02*
X1348917Y-7232314D01*
X3957267Y-7232314D02*
X2734297Y-7232314D01*
X3803170Y-7327314D02*
X1361016Y-7327314D01*
X3543792Y-7422314D02*
X1361016Y-7422314D01*
X3448792Y-7517314D02*
X1361016Y-7517314D01*
X3353792Y-7612314D02*
X1361016Y-7612314D01*
X3258792Y-7707314D02*
X1361016Y-7707314D01*
X4208659Y-7155670D02*
X4208659Y-7155670D01*
X4113659Y-7215244D02*
X4113659Y-3463793D01*
X4018659Y-7218788D02*
X4018659Y-3705369D01*
X3923659Y-7245892D02*
X3923659Y-3894037D01*
X3828659Y-7302352D02*
X3828659Y-3989037D01*
X3733659Y-7340014D02*
X3733659Y-4084037D01*
X3638659Y-7358183D02*
X3638659Y-4179037D01*
X3543659Y-7422447D02*
X3543659Y-4274037D01*
X3448659Y-7517447D02*
X3448659Y-4369037D01*
X3353659Y-7612447D02*
X3353659Y-4464037D01*
X3258659Y-7707447D02*
X3258659Y-4559037D01*
X3163659Y-7715000D02*
X3163659Y-4654037D01*
X3068659Y-7715000D02*
X3068659Y-4749037D01*
X2973659Y-7715000D02*
X2973659Y-4844037D01*
X2878659Y-6855141D02*
X2878659Y-4939037D01*
X2878659Y-7715000D02*
X2878659Y-6996169D01*
X2783659Y-6664240D02*
X2783659Y-5034037D01*
X2783659Y-7715000D02*
X2783659Y-7186540D01*
X2688659Y-6587839D02*
X2688659Y-5129037D01*
X2688659Y-7715000D02*
X2688659Y-7261277D01*
X2593659Y-6551181D02*
X2593659Y-5224037D01*
X2593659Y-7715000D02*
X2593659Y-7299442D01*
X2498659Y-6539965D02*
X2498659Y-5319037D01*
X2498659Y-7715000D02*
X2498659Y-7310073D01*
X2403659Y-6551418D02*
X2403659Y-5414037D01*
X2403659Y-7715000D02*
X2403659Y-7298031D01*
X2308659Y-6590084D02*
X2308659Y-5509037D01*
X2308659Y-7715000D02*
X2308659Y-7260889D01*
X2213659Y-6666523D02*
X2213659Y-5604037D01*
X2213659Y-7715000D02*
X2213659Y-7182738D01*
X2118659Y-6867240D02*
X2118659Y-5699037D01*
X2118659Y-7715000D02*
X2118659Y-6980066D01*
X2023659Y-6957372D02*
X2023659Y-5794037D01*
X2023659Y-7715000D02*
X2023659Y-6957372D01*
X1928659Y-6957372D02*
X1928659Y-5889037D01*
X1928659Y-7715000D02*
X1928659Y-6957372D01*
X1833659Y-6957372D02*
X1833659Y-5984037D01*
X1833659Y-7715000D02*
X1833659Y-6957372D01*
X1738659Y-6957372D02*
X1738659Y-6079037D01*
X1738659Y-7715000D02*
X1738659Y-6957372D01*
X1643659Y-6957372D02*
X1643659Y-6174037D01*
X1643659Y-7715000D02*
X1643659Y-6957372D01*
X1548659Y-6957372D02*
X1548659Y-6269037D01*
X1548659Y-7715000D02*
X1548659Y-6957372D01*
X1453659Y-6957372D02*
X1453659Y-6364037D01*
X1453659Y-7715000D02*
X1453659Y-6957372D01*
X1358659Y-7276072D02*
X1358659Y-7023929D01*
X3199814Y-3159999D02*
X3107697Y-3159999D01*
X3217010Y-3254999D02*
X3012697Y-3254999D01*
X3267229Y-3349999D02*
X2917697Y-3349999D01*
X3388398Y-3444999D02*
X2822697Y-3444999D01*
X3500001Y-3539999D02*
X2727697Y-3539999D01*
X3447306Y-3634999D02*
X2632697Y-3634999D01*
X3352306Y-3729999D02*
X2537697Y-3729999D01*
X3257306Y-3824999D02*
X2442697Y-3824999D01*
X3162306Y-3919999D02*
X2347697Y-3919999D01*
X3067306Y-4014999D02*
X2252697Y-4014999D01*
X2972306Y-4109999D02*
X2157697Y-4109999D01*
X2877306Y-4204999D02*
X2062697Y-4204999D01*
X2782306Y-4299999D02*
X1967697Y-4299999D01*
X2687306Y-4394999D02*
X1872697Y-4394999D01*
X2592306Y-4489999D02*
X1777697Y-4489999D01*
X2497306Y-4584999D02*
X1682697Y-4584999D01*
X2402306Y-4679999D02*
X1587697Y-4679999D01*
X2307306Y-4774999D02*
X1492697Y-4774999D01*
X2212306Y-4869999D02*
X1387853Y-4869999D01*
X2117306Y-4964999D02*
X1361016Y-4964999D01*
X2022306Y-5059999D02*
X1351248Y-5059999D01*
X1927306Y-5154999D02*
X1302666Y-5154999D01*
X1832306Y-5249999D02*
X1354282Y-5249999D01*
X1737306Y-5344999D02*
X1361016Y-5344999D01*
X1642306Y-5439999D02*
X1361016Y-5439999D01*
X1547306Y-5534999D02*
X1361016Y-5534999D01*
X1452306Y-5629999D02*
X1361016Y-5629999D01*
X3500001Y-3582304D02*
X3500001Y-3474562D01*
X3405001Y-3677303D02*
X3405001Y-3452252D01*
X3310001Y-3772303D02*
X3310001Y-3395238D01*
X3215001Y-3867303D02*
X3215001Y-3249924D01*
X3120001Y-3962303D02*
X3120001Y-3159999D01*
X3025001Y-4057303D02*
X3025001Y-3242695D01*
X2930001Y-4152303D02*
X2930001Y-3337695D01*
X2835001Y-4247303D02*
X2835001Y-3432695D01*
X2740001Y-4342303D02*
X2740001Y-3527695D01*
X2645001Y-4437303D02*
X2645001Y-3622695D01*
X2550001Y-4532303D02*
X2550001Y-3717695D01*
X2455001Y-4627303D02*
X2455001Y-3812695D01*
X2360001Y-4722303D02*
X2360001Y-3907695D01*
X2265001Y-4817303D02*
X2265001Y-4002695D01*
X2170001Y-4912303D02*
X2170001Y-4097695D01*
X2075001Y-5007303D02*
X2075001Y-4192695D01*
X1980001Y-5102303D02*
X1980001Y-4287695D01*
X1885001Y-5197303D02*
X1885001Y-4382695D01*
X1790001Y-5292303D02*
X1790001Y-4477695D01*
X1695001Y-5387303D02*
X1695001Y-4572695D01*
X1600001Y-5482303D02*
X1600001Y-4667695D01*
X1505001Y-5577303D02*
X1505001Y-4762695D01*
X1410001Y-5672303D02*
X1410001Y-4853414D01*
X1315001Y-5170030D02*
X1315001Y-5129971D01*
X4140462Y-285000D02*
X1359538Y-285000D01*
X2910866Y-380000D02*
X1361016Y-380000D01*
X4138984Y-380000D02*
X3339103Y-380000D01*
X2812438Y-475000D02*
X1361016Y-475000D01*
X4138984Y-475000D02*
X3437759Y-475000D01*
X2761828Y-570000D02*
X1361016Y-570000D01*
X4138984Y-570000D02*
X3487857Y-570000D01*
X2740435Y-665000D02*
X1361016Y-665000D01*
X4138984Y-665000D02*
X3509978Y-665000D01*
X2744564Y-760000D02*
X1361016Y-760000D01*
X4138984Y-760000D02*
X3506196Y-760000D01*
X2772273Y-855000D02*
X1361016Y-855000D01*
X4138984Y-855000D02*
X3477442Y-855000D01*
X2831186Y-950000D02*
X1361016Y-950000D01*
X3899912Y-950000D02*
X3419816Y-950000D01*
X2952971Y-1045000D02*
X1355798Y-1045000D01*
X3771465Y-1045000D02*
X3438147Y-1045000D01*
X3074916Y-1140000D02*
X1306770Y-1140000D01*
X3718538Y-1140000D02*
X3574505Y-1140000D01*
X3020681Y-1235000D02*
X1349732Y-1235000D01*
X3700164Y-1235000D02*
X3629141Y-1235000D01*
X3000233Y-1330000D02*
X1361016Y-1330000D01*
X3709239Y-1330000D02*
X3649848Y-1330000D01*
X3008321Y-1425000D02*
X1361016Y-1425000D01*
X3751118Y-1425000D02*
X3641257Y-1425000D01*
X3047896Y-1520000D02*
X1361016Y-1520000D01*
X3843991Y-1520000D02*
X3602822Y-1520000D01*
X1688518Y-1615000D02*
X1361016Y-1615000D01*
X3136797Y-1615000D02*
X1728763Y-1615000D01*
X4092305Y-1615000D02*
X3513992Y-1615000D01*
X1470850Y-1710000D02*
X1361016Y-1710000D01*
X3997305Y-1710000D02*
X1979623Y-1710000D01*
X1391897Y-1805000D02*
X1361016Y-1805000D01*
X3810656Y-1805000D02*
X2057691Y-1805000D01*
X3115762Y-1900000D02*
X2097691Y-1900000D01*
X3735682Y-1900000D02*
X3534783Y-1900000D01*
X3037825Y-1995000D02*
X2109559Y-1995000D01*
X3704416Y-1995000D02*
X3612229Y-1995000D01*
X3005478Y-2090000D02*
X2099380Y-2090000D01*
X3701898Y-2090000D02*
X3644445Y-2090000D01*
X3000980Y-2185000D02*
X2064085Y-2185000D01*
X3728888Y-2185000D02*
X3649080Y-2185000D01*
X3026908Y-2280000D02*
X1989274Y-2280000D01*
X3795285Y-2280000D02*
X3622892Y-2280000D01*
X3050923Y-2375000D02*
X2037759Y-2375000D01*
X3851680Y-2375000D02*
X3598941Y-2375000D01*
X3009730Y-2470000D02*
X2087857Y-2470000D01*
X3674670Y-2470000D02*
X3640485Y-2470000D01*
X2999745Y-2565000D02*
X2109978Y-2565000D01*
X2900203Y-2660000D02*
X2106196Y-2660000D01*
X1372273Y-2755000D02*
X1361016Y-2755000D01*
X2777304Y-2755000D02*
X2077442Y-2755000D01*
X1431186Y-2850000D02*
X1361016Y-2850000D01*
X2682304Y-2850000D02*
X2019816Y-2850000D01*
X1552971Y-2945000D02*
X1361016Y-2945000D01*
X2587304Y-2945000D02*
X1899913Y-2945000D01*
X2492304Y-3040000D02*
X1357075Y-3040000D01*
X2397304Y-3135000D02*
X1310873Y-3135000D01*
X2302304Y-3230000D02*
X1348215Y-3230000D01*
X2207304Y-3325000D02*
X1361016Y-3325000D01*
X2112304Y-3420000D02*
X1361016Y-3420000D01*
X2017304Y-3515000D02*
X1361016Y-3515000D01*
X1922304Y-3610000D02*
X1361016Y-3610000D01*
X1827304Y-3705000D02*
X1361016Y-3705000D01*
X1732304Y-3800000D02*
X1361016Y-3800000D01*
X1637304Y-3895000D02*
X1361016Y-3895000D01*
X1542304Y-3990000D02*
X1361016Y-3990000D01*
X1447304Y-4085000D02*
X1342682Y-4085000D01*
X1352304Y-4180000D02*
X1323184Y-4180000D01*
X4140462Y-285000D02*
X4140462Y-285000D01*
X4045462Y-925121D02*
X4045462Y-285000D01*
X4045462Y-1661843D02*
X4045462Y-1575514D01*
X3950462Y-933343D02*
X3950462Y-285000D01*
X3950462Y-1733344D02*
X3950462Y-1566389D01*
X3855462Y-972524D02*
X3855462Y-285000D01*
X3855462Y-1772524D02*
X3855462Y-1527972D01*
X3855462Y-2372524D02*
X3855462Y-2327972D01*
X3760462Y-1061068D02*
X3760462Y-285000D01*
X3760462Y-1861068D02*
X3760462Y-1439497D01*
X3760462Y-2411120D02*
X3760462Y-2239497D01*
X3665462Y-2479208D02*
X3665462Y-285000D01*
X3570462Y-1135929D02*
X3570462Y-285000D01*
X3570462Y-1935929D02*
X3570462Y-1565059D01*
X3475462Y-539929D02*
X3475462Y-285000D01*
X3475462Y-1060687D02*
X3475462Y-859449D01*
X3475462Y-1860687D02*
X3475462Y-1639452D01*
X3380462Y-410846D02*
X3380462Y-285000D01*
X3380462Y-1029594D02*
X3380462Y-988392D01*
X3380462Y-1829594D02*
X3380462Y-1670250D01*
X3285462Y-349802D02*
X3285462Y-285000D01*
X3285462Y-1826667D02*
X3285462Y-1674084D01*
X3190462Y-320393D02*
X3190462Y-285000D01*
X3190462Y-1853817D02*
X3190462Y-1645900D01*
X3095462Y-314768D02*
X3095462Y-285000D01*
X3095462Y-1119879D02*
X3095462Y-1084482D01*
X3095462Y-1919879D02*
X3095462Y-1580182D01*
X3000462Y-335063D02*
X3000462Y-285000D01*
X3000462Y-1313597D02*
X3000462Y-1065748D01*
X3000462Y-2113597D02*
X3000462Y-1382176D01*
X3000462Y-2513597D02*
X3000462Y-2182176D01*
X3000462Y-2639999D02*
X3000462Y-2582176D01*
X2905462Y-383536D02*
X2905462Y-285000D01*
X2905462Y-2658006D02*
X2905462Y-1016292D01*
X2810462Y-477885D02*
X2810462Y-285000D01*
X2810462Y-2721842D02*
X2810462Y-922677D01*
X2715462Y-732372D02*
X2715462Y-285000D01*
X2715462Y-2816842D02*
X2715462Y-732372D01*
X2620462Y-732372D02*
X2620462Y-285000D01*
X2620462Y-2911842D02*
X2620462Y-732372D01*
X2525462Y-732372D02*
X2525462Y-285000D01*
X2525462Y-3006842D02*
X2525462Y-732372D01*
X2430462Y-732372D02*
X2430462Y-285000D01*
X2430462Y-3101842D02*
X2430462Y-732372D01*
X2335462Y-732372D02*
X2335462Y-285000D01*
X2335462Y-3196842D02*
X2335462Y-732372D01*
X2240462Y-732372D02*
X2240462Y-285000D01*
X2240462Y-3291842D02*
X2240462Y-732372D01*
X2145462Y-732372D02*
X2145462Y-285000D01*
X2145462Y-3386842D02*
X2145462Y-732372D01*
X2050462Y-732372D02*
X2050462Y-285000D01*
X2050462Y-1794120D02*
X2050462Y-732372D01*
X2050462Y-2394120D02*
X2050462Y-2206559D01*
X2050462Y-3481842D02*
X2050462Y-2806559D01*
X1955462Y-732372D02*
X1955462Y-285000D01*
X1955462Y-1691035D02*
X1955462Y-732372D01*
X1955462Y-3576842D02*
X1955462Y-2909749D01*
X1860462Y-732372D02*
X1860462Y-285000D01*
X1860462Y-1639293D02*
X1860462Y-732372D01*
X1860462Y-3671842D02*
X1860462Y-2960423D01*
X1765462Y-732372D02*
X1765462Y-285000D01*
X1765462Y-1615261D02*
X1765462Y-732372D01*
X1765462Y-3766842D02*
X1765462Y-2983822D01*
X1670462Y-732372D02*
X1670462Y-285000D01*
X1670462Y-1618444D02*
X1670462Y-732372D01*
X1670462Y-3861842D02*
X1670462Y-2982222D01*
X1575462Y-732372D02*
X1575462Y-285000D01*
X1575462Y-1645163D02*
X1575462Y-732372D01*
X1575462Y-3956842D02*
X1575462Y-2954826D01*
X1480462Y-732372D02*
X1480462Y-285000D01*
X1480462Y-1700586D02*
X1480462Y-732372D01*
X1480462Y-4051842D02*
X1480462Y-2898917D01*
X1385462Y-732372D02*
X1385462Y-285000D01*
X1385462Y-1814856D02*
X1385462Y-732372D01*
X1385462Y-4146842D02*
X1385462Y-2783884D01*
X3199572Y-3177327D02*
X3211078Y-3240016D01*
X3234541Y-3299276D01*
X3269067Y-3352850D01*
X3313342Y-3398698D01*
X3365678Y-3435073D01*
X3424083Y-3460589D01*
X3486332Y-3474276D01*
X3500001Y-3474562D01*
X3500001Y-3582304D01*
X1361016Y-5721288D01*
X1361016Y-5300000D01*
X1356961Y-5258833D01*
X1344953Y-5219248D01*
X1325453Y-5182766D01*
X1299211Y-5150789D01*
X1298250Y-5150000D01*
X1299211Y-5149211D01*
X1325453Y-5117234D01*
X1344953Y-5080752D01*
X1356961Y-5041167D01*
X1361016Y-5000000D01*
X1361016Y-4884035D01*
X1370339Y-4879078D01*
X1391606Y-4868054D01*
X1392671Y-4867204D01*
X1393882Y-4866560D01*
X1412508Y-4851369D01*
X1431263Y-4836397D01*
X1433170Y-4834516D01*
X1433205Y-4834488D01*
X1433232Y-4834456D01*
X1433848Y-4833848D01*
X3107697Y-3159999D01*
X3199814Y-3159999D01*
X3199572Y-3177327D01*
X4892533Y-7580000D02*
X4875000Y-7580000D01*
X4995000Y-7675000D02*
X4855000Y-7675000D01*
X4995000Y-7700000D02*
X4995000Y-7600000D01*
X4900000Y-7702360D02*
X4900000Y-7597639D01*
X4036709Y-3432314D02*
X4036709Y-3432314D01*
X4138984Y-3527314D02*
X4020001Y-3527314D01*
X4138984Y-3622314D02*
X4020001Y-3622314D01*
X4138984Y-3717314D02*
X4017318Y-3717314D01*
X4138984Y-3812314D02*
X3988041Y-3812314D01*
X4138984Y-3907314D02*
X3910381Y-3907314D01*
X4139211Y-4002314D02*
X3815381Y-4002314D01*
X4163899Y-4097314D02*
X3720381Y-4097314D01*
X4169444Y-4192314D02*
X3625381Y-4192314D01*
X4140234Y-4287314D02*
X3530381Y-4287314D01*
X4138984Y-4382314D02*
X3435381Y-4382314D01*
X4138984Y-4477314D02*
X3340381Y-4477314D01*
X4138984Y-4572314D02*
X3245381Y-4572314D01*
X4138984Y-4667314D02*
X3150381Y-4667314D01*
X4138984Y-4762314D02*
X3055381Y-4762314D01*
X4138984Y-4857314D02*
X2960381Y-4857314D01*
X4138984Y-4952314D02*
X2865381Y-4952314D01*
X4144903Y-5047314D02*
X2770381Y-5047314D01*
X4195128Y-5142314D02*
X2675381Y-5142314D01*
X4149567Y-5237314D02*
X2580381Y-5237314D01*
X4138984Y-5332314D02*
X2485381Y-5332314D01*
X4138984Y-5427314D02*
X2390381Y-5427314D01*
X4138984Y-5522314D02*
X2295381Y-5522314D01*
X4138984Y-5617314D02*
X2200381Y-5617314D01*
X4138984Y-5712314D02*
X2105381Y-5712314D01*
X4138984Y-5807314D02*
X2010381Y-5807314D01*
X4138984Y-5902314D02*
X1915381Y-5902314D01*
X4138984Y-5997314D02*
X1820381Y-5997314D01*
X4161227Y-6092314D02*
X1725381Y-6092314D01*
X4172117Y-6187314D02*
X1630381Y-6187314D01*
X4140727Y-6282314D02*
X1535381Y-6282314D01*
X4138984Y-6377314D02*
X1440381Y-6377314D01*
X4138984Y-6472314D02*
X1361016Y-6472314D01*
X2357516Y-6567314D02*
X1361016Y-6567314D01*
X4138984Y-6567314D02*
X2642650Y-6567314D01*
X2217958Y-6662314D02*
X1361016Y-6662314D01*
X4138984Y-6662314D02*
X2781747Y-6662314D01*
X2152980Y-6757314D02*
X1361016Y-6757314D01*
X4138984Y-6757314D02*
X2847324Y-6757314D01*
X2121832Y-6852314D02*
X1361016Y-6852314D01*
X4138984Y-6852314D02*
X2878100Y-6852314D01*
X2114635Y-6947314D02*
X1361016Y-6947314D01*
X4138984Y-6947314D02*
X2884177Y-6947314D01*
X2132351Y-7042314D02*
X1356613Y-7042314D01*
X4143386Y-7042314D02*
X2868175Y-7042314D01*
X2178783Y-7137314D02*
X1308974Y-7137314D01*
X4191025Y-7137314D02*
X2821401Y-7137314D01*
X2267543Y-7232314D02*
X1348917Y-7232314D01*
X3957267Y-7232314D02*
X2734297Y-7232314D01*
X3803170Y-7327314D02*
X1361016Y-7327314D01*
X3543792Y-7422314D02*
X1361016Y-7422314D01*
X3448792Y-7517314D02*
X1361016Y-7517314D01*
X3353792Y-7612314D02*
X1361016Y-7612314D01*
X3258792Y-7707314D02*
X1361016Y-7707314D01*
X4208659Y-7155670D02*
X4208659Y-7155670D01*
X4113659Y-7215244D02*
X4113659Y-3463793D01*
X4018659Y-7218788D02*
X4018659Y-3705369D01*
X3923659Y-7245892D02*
X3923659Y-3894037D01*
X3828659Y-7302352D02*
X3828659Y-3989037D01*
X3733659Y-7340014D02*
X3733659Y-4084037D01*
X3638659Y-7358183D02*
X3638659Y-4179037D01*
X3543659Y-7422447D02*
X3543659Y-4274037D01*
X3448659Y-7517447D02*
X3448659Y-4369037D01*
X3353659Y-7612447D02*
X3353659Y-4464037D01*
X3258659Y-7707447D02*
X3258659Y-4559037D01*
X3163659Y-7715000D02*
X3163659Y-4654037D01*
X3068659Y-7715000D02*
X3068659Y-4749037D01*
X2973659Y-7715000D02*
X2973659Y-4844037D01*
X2878659Y-6855141D02*
X2878659Y-4939037D01*
X2878659Y-7715000D02*
X2878659Y-6996169D01*
X2783659Y-6664240D02*
X2783659Y-5034037D01*
X2783659Y-7715000D02*
X2783659Y-7186540D01*
X2688659Y-6587839D02*
X2688659Y-5129037D01*
X2688659Y-7715000D02*
X2688659Y-7261277D01*
X2593659Y-6551181D02*
X2593659Y-5224037D01*
X2593659Y-7715000D02*
X2593659Y-7299442D01*
X2498659Y-6539965D02*
X2498659Y-5319037D01*
X2498659Y-7715000D02*
X2498659Y-7310073D01*
X2403659Y-6551418D02*
X2403659Y-5414037D01*
X2403659Y-7715000D02*
X2403659Y-7298031D01*
X2308659Y-6590084D02*
X2308659Y-5509037D01*
X2308659Y-7715000D02*
X2308659Y-7260889D01*
X2213659Y-6666523D02*
X2213659Y-5604037D01*
X2213659Y-7715000D02*
X2213659Y-7182738D01*
X2118659Y-6867240D02*
X2118659Y-5699037D01*
X2118659Y-7715000D02*
X2118659Y-6980066D01*
X2023659Y-6957372D02*
X2023659Y-5794037D01*
X2023659Y-7715000D02*
X2023659Y-6957372D01*
X1928659Y-6957372D02*
X1928659Y-5889037D01*
X1928659Y-7715000D02*
X1928659Y-6957372D01*
X1833659Y-6957372D02*
X1833659Y-5984037D01*
X1833659Y-7715000D02*
X1833659Y-6957372D01*
X1738659Y-6957372D02*
X1738659Y-6079037D01*
X1738659Y-7715000D02*
X1738659Y-6957372D01*
X1643659Y-6957372D02*
X1643659Y-6174037D01*
X1643659Y-7715000D02*
X1643659Y-6957372D01*
X1548659Y-6957372D02*
X1548659Y-6269037D01*
X1548659Y-7715000D02*
X1548659Y-6957372D01*
X1453659Y-6957372D02*
X1453659Y-6364037D01*
X1453659Y-7715000D02*
X1453659Y-6957372D01*
X1358659Y-7276072D02*
X1358659Y-7023929D01*
X3199814Y-3159999D02*
X3107697Y-3159999D01*
X3217010Y-3254999D02*
X3012697Y-3254999D01*
X3267229Y-3349999D02*
X2917697Y-3349999D01*
X3388398Y-3444999D02*
X2822697Y-3444999D01*
X3500001Y-3539999D02*
X2727697Y-3539999D01*
X3447306Y-3634999D02*
X2632697Y-3634999D01*
X3352306Y-3729999D02*
X2537697Y-3729999D01*
X3257306Y-3824999D02*
X2442697Y-3824999D01*
X3162306Y-3919999D02*
X2347697Y-3919999D01*
X3067306Y-4014999D02*
X2252697Y-4014999D01*
X2972306Y-4109999D02*
X2157697Y-4109999D01*
X2877306Y-4204999D02*
X2062697Y-4204999D01*
X2782306Y-4299999D02*
X1967697Y-4299999D01*
X2687306Y-4394999D02*
X1872697Y-4394999D01*
X2592306Y-4489999D02*
X1777697Y-4489999D01*
X2497306Y-4584999D02*
X1682697Y-4584999D01*
X2402306Y-4679999D02*
X1587697Y-4679999D01*
X2307306Y-4774999D02*
X1492697Y-4774999D01*
X2212306Y-4869999D02*
X1387853Y-4869999D01*
X2117306Y-4964999D02*
X1361016Y-4964999D01*
X2022306Y-5059999D02*
X1351248Y-5059999D01*
X1927306Y-5154999D02*
X1302666Y-5154999D01*
X1832306Y-5249999D02*
X1354282Y-5249999D01*
X1737306Y-5344999D02*
X1361016Y-5344999D01*
X1642306Y-5439999D02*
X1361016Y-5439999D01*
X1547306Y-5534999D02*
X1361016Y-5534999D01*
X1452306Y-5629999D02*
X1361016Y-5629999D01*
X3500001Y-3582304D02*
X3500001Y-3474562D01*
X3405001Y-3677303D02*
X3405001Y-3452252D01*
X3310001Y-3772303D02*
X3310001Y-3395238D01*
X3215001Y-3867303D02*
X3215001Y-3249924D01*
X3120001Y-3962303D02*
X3120001Y-3159999D01*
X3025001Y-4057303D02*
X3025001Y-3242695D01*
X2930001Y-4152303D02*
X2930001Y-3337695D01*
X2835001Y-4247303D02*
X2835001Y-3432695D01*
X2740001Y-4342303D02*
X2740001Y-3527695D01*
X2645001Y-4437303D02*
X2645001Y-3622695D01*
X2550001Y-4532303D02*
X2550001Y-3717695D01*
X2455001Y-4627303D02*
X2455001Y-3812695D01*
X2360001Y-4722303D02*
X2360001Y-3907695D01*
X2265001Y-4817303D02*
X2265001Y-4002695D01*
X2170001Y-4912303D02*
X2170001Y-4097695D01*
X2075001Y-5007303D02*
X2075001Y-4192695D01*
X1980001Y-5102303D02*
X1980001Y-4287695D01*
X1885001Y-5197303D02*
X1885001Y-4382695D01*
X1790001Y-5292303D02*
X1790001Y-4477695D01*
X1695001Y-5387303D02*
X1695001Y-4572695D01*
X1600001Y-5482303D02*
X1600001Y-4667695D01*
X1505001Y-5577303D02*
X1505001Y-4762695D01*
X1410001Y-5672303D02*
X1410001Y-4853414D01*
X1315001Y-5170030D02*
X1315001Y-5129971D01*
X4140462Y-285000D02*
X1359538Y-285000D01*
X2910866Y-380000D02*
X1361016Y-380000D01*
X4138984Y-380000D02*
X3339103Y-380000D01*
X2812438Y-475000D02*
X1361016Y-475000D01*
X4138984Y-475000D02*
X3437759Y-475000D01*
X2761828Y-570000D02*
X1361016Y-570000D01*
X4138984Y-570000D02*
X3487857Y-570000D01*
X2740435Y-665000D02*
X1361016Y-665000D01*
X4138984Y-665000D02*
X3509978Y-665000D01*
X2744564Y-760000D02*
X1361016Y-760000D01*
X4138984Y-760000D02*
X3506196Y-760000D01*
X2772273Y-855000D02*
X1361016Y-855000D01*
X4138984Y-855000D02*
X3477442Y-855000D01*
X2831186Y-950000D02*
X1361016Y-950000D01*
X3899912Y-950000D02*
X3419816Y-950000D01*
X2952971Y-1045000D02*
X1355798Y-1045000D01*
X3771465Y-1045000D02*
X3438147Y-1045000D01*
X3074916Y-1140000D02*
X1306770Y-1140000D01*
X3718538Y-1140000D02*
X3574505Y-1140000D01*
X3020681Y-1235000D02*
X1349732Y-1235000D01*
X3700164Y-1235000D02*
X3629141Y-1235000D01*
X3000233Y-1330000D02*
X1361016Y-1330000D01*
X3709239Y-1330000D02*
X3649848Y-1330000D01*
X3008321Y-1425000D02*
X1361016Y-1425000D01*
X3751118Y-1425000D02*
X3641257Y-1425000D01*
X3047896Y-1520000D02*
X1361016Y-1520000D01*
X3843991Y-1520000D02*
X3602822Y-1520000D01*
X1688518Y-1615000D02*
X1361016Y-1615000D01*
X3136797Y-1615000D02*
X1728763Y-1615000D01*
X4092305Y-1615000D02*
X3513992Y-1615000D01*
X1470850Y-1710000D02*
X1361016Y-1710000D01*
X3997305Y-1710000D02*
X1979623Y-1710000D01*
X1391897Y-1805000D02*
X1361016Y-1805000D01*
X3810656Y-1805000D02*
X2057691Y-1805000D01*
X3115762Y-1900000D02*
X2097691Y-1900000D01*
X3735682Y-1900000D02*
X3534783Y-1900000D01*
X3037825Y-1995000D02*
X2109559Y-1995000D01*
X3704416Y-1995000D02*
X3612229Y-1995000D01*
X3005478Y-2090000D02*
X2099380Y-2090000D01*
X3701898Y-2090000D02*
X3644445Y-2090000D01*
X3000980Y-2185000D02*
X2064085Y-2185000D01*
X3728888Y-2185000D02*
X3649080Y-2185000D01*
X3026908Y-2280000D02*
X1989274Y-2280000D01*
X3795285Y-2280000D02*
X3622892Y-2280000D01*
X3050923Y-2375000D02*
X2037759Y-2375000D01*
X3851680Y-2375000D02*
X3598941Y-2375000D01*
X3009730Y-2470000D02*
X2087857Y-2470000D01*
X3674670Y-2470000D02*
X3640485Y-2470000D01*
X2999745Y-2565000D02*
X2109978Y-2565000D01*
X2900203Y-2660000D02*
X2106196Y-2660000D01*
X1372273Y-2755000D02*
X1361016Y-2755000D01*
X2777304Y-2755000D02*
X2077442Y-2755000D01*
X1431186Y-2850000D02*
X1361016Y-2850000D01*
X2682304Y-2850000D02*
X2019816Y-2850000D01*
X1552971Y-2945000D02*
X1361016Y-2945000D01*
X2587304Y-2945000D02*
X1899913Y-2945000D01*
X2492304Y-3040000D02*
X1357075Y-3040000D01*
X2397304Y-3135000D02*
X1310873Y-3135000D01*
X2302304Y-3230000D02*
X1348215Y-3230000D01*
X2207304Y-3325000D02*
X1361016Y-3325000D01*
X2112304Y-3420000D02*
X1361016Y-3420000D01*
X2017304Y-3515000D02*
X1361016Y-3515000D01*
X1922304Y-3610000D02*
X1361016Y-3610000D01*
X1827304Y-3705000D02*
X1361016Y-3705000D01*
X1732304Y-3800000D02*
X1361016Y-3800000D01*
X1637304Y-3895000D02*
X1361016Y-3895000D01*
X1542304Y-3990000D02*
X1361016Y-3990000D01*
X1447304Y-4085000D02*
X1342682Y-4085000D01*
X1352304Y-4180000D02*
X1323184Y-4180000D01*
X4140462Y-285000D02*
X4140462Y-285000D01*
X4045462Y-925121D02*
X4045462Y-285000D01*
X4045462Y-1661843D02*
X4045462Y-1575514D01*
X3950462Y-933343D02*
X3950462Y-285000D01*
X3950462Y-1733344D02*
X3950462Y-1566389D01*
X3855462Y-972524D02*
X3855462Y-285000D01*
X3855462Y-1772524D02*
X3855462Y-1527972D01*
X3855462Y-2372524D02*
X3855462Y-2327972D01*
X3760462Y-1061068D02*
X3760462Y-285000D01*
X3760462Y-1861068D02*
X3760462Y-1439497D01*
X3760462Y-2411120D02*
X3760462Y-2239497D01*
X3665462Y-2479208D02*
X3665462Y-285000D01*
X3570462Y-1135929D02*
X3570462Y-285000D01*
X3570462Y-1935929D02*
X3570462Y-1565059D01*
X3475462Y-539929D02*
X3475462Y-285000D01*
X3475462Y-1060687D02*
X3475462Y-859449D01*
X3475462Y-1860687D02*
X3475462Y-1639452D01*
X3380462Y-410846D02*
X3380462Y-285000D01*
X3380462Y-1029594D02*
X3380462Y-988392D01*
X3380462Y-1829594D02*
X3380462Y-1670250D01*
X3285462Y-349802D02*
X3285462Y-285000D01*
X3285462Y-1826667D02*
X3285462Y-1674084D01*
X3190462Y-320393D02*
X3190462Y-285000D01*
X3190462Y-1853817D02*
X3190462Y-1645900D01*
X3095462Y-314768D02*
X3095462Y-285000D01*
X3095462Y-1119879D02*
X3095462Y-1084482D01*
X3095462Y-1919879D02*
X3095462Y-1580182D01*
X3000462Y-335063D02*
X3000462Y-285000D01*
X3000462Y-1313597D02*
X3000462Y-1065748D01*
X3000462Y-2113597D02*
X3000462Y-1382176D01*
X3000462Y-2513597D02*
X3000462Y-2182176D01*
X3000462Y-2639999D02*
X3000462Y-2582176D01*
X2905462Y-383536D02*
X2905462Y-285000D01*
X2905462Y-2658006D02*
X2905462Y-1016292D01*
X2810462Y-477885D02*
X2810462Y-285000D01*
X2810462Y-2721842D02*
X2810462Y-922677D01*
X2715462Y-732372D02*
X2715462Y-285000D01*
X2715462Y-2816842D02*
X2715462Y-732372D01*
X2620462Y-732372D02*
X2620462Y-285000D01*
X2620462Y-2911842D02*
X2620462Y-732372D01*
X2525462Y-732372D02*
X2525462Y-285000D01*
X2525462Y-3006842D02*
X2525462Y-732372D01*
X2430462Y-732372D02*
X2430462Y-285000D01*
X2430462Y-3101842D02*
X2430462Y-732372D01*
X2335462Y-732372D02*
X2335462Y-285000D01*
X2335462Y-3196842D02*
X2335462Y-732372D01*
X2240462Y-732372D02*
X2240462Y-285000D01*
X2240462Y-3291842D02*
X2240462Y-732372D01*
X2145462Y-732372D02*
X2145462Y-285000D01*
X2145462Y-3386842D02*
X2145462Y-732372D01*
X2050462Y-732372D02*
X2050462Y-285000D01*
X2050462Y-1794120D02*
X2050462Y-732372D01*
X2050462Y-2394120D02*
X2050462Y-2206559D01*
X2050462Y-3481842D02*
X2050462Y-2806559D01*
X1955462Y-732372D02*
X1955462Y-285000D01*
X1955462Y-1691035D02*
X1955462Y-732372D01*
X1955462Y-3576842D02*
X1955462Y-2909749D01*
X1860462Y-732372D02*
X1860462Y-285000D01*
X1860462Y-1639293D02*
X1860462Y-732372D01*
X1860462Y-3671842D02*
X1860462Y-2960423D01*
X1765462Y-732372D02*
X1765462Y-285000D01*
X1765462Y-1615261D02*
X1765462Y-732372D01*
X1765462Y-3766842D02*
X1765462Y-2983822D01*
X1670462Y-732372D02*
X1670462Y-285000D01*
X1670462Y-1618444D02*
X1670462Y-732372D01*
X1670462Y-3861842D02*
X1670462Y-2982222D01*
X1575462Y-732372D02*
X1575462Y-285000D01*
X1575462Y-1645163D02*
X1575462Y-732372D01*
X1575462Y-3956842D02*
X1575462Y-2954826D01*
X1480462Y-732372D02*
X1480462Y-285000D01*
X1480462Y-1700586D02*
X1480462Y-732372D01*
X1480462Y-4051842D02*
X1480462Y-2898917D01*
X1385462Y-732372D02*
X1385462Y-285000D01*
X1385462Y-1814856D02*
X1385462Y-732372D01*
X1385462Y-4146842D02*
X1385462Y-2783884D01*
X4138984Y-300000D02*
X4138984Y-945352D01*
X4121570Y-938032D01*
X4059136Y-925216D01*
X3995402Y-924771D01*
X3932795Y-936714D01*
X3873700Y-960590D01*
X3820368Y-995489D01*
X3774831Y-1040083D01*
X3738822Y-1092672D01*
X3713714Y-1151254D01*
X3700462Y-1213597D01*
X3699572Y-1277327D01*
X3711078Y-1340016D01*
X3734541Y-1399276D01*
X3769067Y-1452850D01*
X3813342Y-1498698D01*
X3865678Y-1535073D01*
X3924083Y-1560589D01*
X3986332Y-1574276D01*
X4050054Y-1575611D01*
X4112822Y-1564543D01*
X4138984Y-1554395D01*
X4138984Y-1568321D01*
X3979500Y-1727805D01*
X3932795Y-1736714D01*
X3873700Y-1760590D01*
X3820368Y-1795489D01*
X3774831Y-1840083D01*
X3738822Y-1892672D01*
X3713714Y-1951254D01*
X3700462Y-2013597D01*
X3699572Y-2077327D01*
X3711078Y-2140016D01*
X3734541Y-2199276D01*
X3769067Y-2252850D01*
X3813342Y-2298698D01*
X3865678Y-2335073D01*
X3899877Y-2350014D01*
X3873700Y-2360590D01*
X3823124Y-2393686D01*
X3814538Y-2394437D01*
X3813224Y-2394819D01*
X3811865Y-2394952D01*
X3788867Y-2401895D01*
X3765811Y-2408594D01*
X3764599Y-2409222D01*
X3763288Y-2409618D01*
X3742027Y-2420922D01*
X3720760Y-2431946D01*
X3719695Y-2432796D01*
X3718484Y-2433440D01*
X3699858Y-2448631D01*
X3681103Y-2463603D01*
X3679196Y-2465484D01*
X3679161Y-2465512D01*
X3679134Y-2465544D01*
X3678518Y-2466152D01*
X3646134Y-2498536D01*
X3637635Y-2455610D01*
X3613347Y-2396683D01*
X3582005Y-2349510D01*
X3608954Y-2311308D01*
X3634877Y-2253082D01*
X3648998Y-2190930D01*
X3650014Y-2118132D01*
X3637635Y-2055610D01*
X3613347Y-1996683D01*
X3578076Y-1943596D01*
X3533165Y-1898371D01*
X3480326Y-1862731D01*
X3421570Y-1838032D01*
X3359136Y-1825216D01*
X3295402Y-1824771D01*
X3232795Y-1836714D01*
X3173700Y-1860590D01*
X3120368Y-1895489D01*
X3074831Y-1940083D01*
X3038822Y-1992672D01*
X3013714Y-2051254D01*
X3000462Y-2113597D01*
X2999572Y-2177327D01*
X3011078Y-2240016D01*
X3034541Y-2299276D01*
X3067623Y-2350610D01*
X3038822Y-2392672D01*
X3013714Y-2451254D01*
X3000462Y-2513597D01*
X2999572Y-2577327D01*
X3011075Y-2639999D01*
X3000001Y-2639999D01*
X2976073Y-2642345D01*
X2952173Y-2644436D01*
X2950859Y-2644818D01*
X2949500Y-2644951D01*
X2926516Y-2651890D01*
X2903445Y-2658593D01*
X2902232Y-2659222D01*
X2900923Y-2659617D01*
X2879680Y-2670912D01*
X2858395Y-2681945D01*
X2857330Y-2682795D01*
X2856119Y-2683439D01*
X2837493Y-2698630D01*
X2818738Y-2713602D01*
X2816831Y-2715483D01*
X2816796Y-2715511D01*
X2816769Y-2715543D01*
X2816153Y-2716151D01*
X1333842Y-4198462D01*
X1325453Y-4182766D01*
X1299211Y-4150789D01*
X1298250Y-4150000D01*
X1299211Y-4149211D01*
X1325453Y-4117234D01*
X1344953Y-4080752D01*
X1356961Y-4041167D01*
X1361016Y-4000000D01*
X1361016Y-3300000D01*
X1356961Y-3258833D01*
X1344953Y-3219248D01*
X1325453Y-3182766D01*
X1299211Y-3150789D01*
X1298250Y-3150000D01*
X1299211Y-3149211D01*
X1325453Y-3117234D01*
X1344953Y-3080752D01*
X1356961Y-3041167D01*
X1361016Y-3000000D01*
X1361016Y-2726569D01*
X1380918Y-2776834D01*
X1421818Y-2840299D01*
X1474266Y-2894611D01*
X1536265Y-2937701D01*
X1605453Y-2967929D01*
X1679194Y-2984142D01*
X1754680Y-2985723D01*
X1829035Y-2972612D01*
X1899428Y-2945308D01*
X1963177Y-2904852D01*
X2017853Y-2852784D01*
X2061375Y-2791088D01*
X2092085Y-2722113D01*
X2108812Y-2648487D01*
X2110017Y-2562249D01*
X2095351Y-2488184D01*
X2066580Y-2418379D01*
X2024797Y-2355491D01*
X1971596Y-2301917D01*
X1968472Y-2299810D01*
X2017853Y-2252784D01*
X2061375Y-2191088D01*
X2092085Y-2122113D01*
X2108812Y-2048487D01*
X2110017Y-1962249D01*
X2095351Y-1888184D01*
X2066580Y-1818379D01*
X2024797Y-1755491D01*
X1971596Y-1701917D01*
X1909001Y-1659697D01*
X1839399Y-1630438D01*
X1765438Y-1615256D01*
X1689938Y-1614729D01*
X1615773Y-1628877D01*
X1545768Y-1657161D01*
X1482590Y-1698503D01*
X1428646Y-1751329D01*
X1385989Y-1813627D01*
X1361016Y-1871895D01*
X1361016Y-1300000D01*
X1356961Y-1258833D01*
X1344953Y-1219248D01*
X1325453Y-1182766D01*
X1299211Y-1150789D01*
X1298250Y-1150000D01*
X1299211Y-1149211D01*
X1325453Y-1117234D01*
X1344953Y-1080752D01*
X1356961Y-1041167D01*
X1361016Y-1000000D01*
X1361016Y-732372D01*
X2739494Y-732372D01*
X2753123Y-806634D01*
X2780918Y-876834D01*
X2821818Y-940299D01*
X2874266Y-994611D01*
X2936265Y-1037701D01*
X3005453Y-1067929D01*
X3079194Y-1084142D01*
X3135894Y-1085330D01*
X3120368Y-1095489D01*
X3074831Y-1140083D01*
X3038822Y-1192672D01*
X3013714Y-1251254D01*
X3000462Y-1313597D01*
X2999572Y-1377327D01*
X3011078Y-1440016D01*
X3034541Y-1499276D01*
X3069067Y-1552850D01*
X3113342Y-1598698D01*
X3165678Y-1635073D01*
X3224083Y-1660589D01*
X3286332Y-1674276D01*
X3350054Y-1675611D01*
X3412822Y-1664543D01*
X3472244Y-1641494D01*
X3526058Y-1607343D01*
X3572214Y-1563390D01*
X3608954Y-1511308D01*
X3634877Y-1453082D01*
X3648998Y-1390930D01*
X3650014Y-1318132D01*
X3637635Y-1255610D01*
X3613347Y-1196683D01*
X3578076Y-1143596D01*
X3533165Y-1098371D01*
X3480326Y-1062731D01*
X3421570Y-1038032D01*
X3359136Y-1025216D01*
X3331393Y-1025022D01*
X3363177Y-1004852D01*
X3417853Y-952784D01*
X3461375Y-891088D01*
X3492085Y-822113D01*
X3508812Y-748487D01*
X3510017Y-662249D01*
X3495351Y-588184D01*
X3466580Y-518379D01*
X3424797Y-455491D01*
X3371596Y-401917D01*
X3309001Y-359697D01*
X3239399Y-330438D01*
X3165438Y-315256D01*
X3089938Y-314729D01*
X3015773Y-328877D01*
X2945768Y-357161D01*
X2882590Y-398503D01*
X2828646Y-451329D01*
X2785989Y-513627D01*
X2756246Y-583024D01*
X2740548Y-656877D01*
X2739494Y-732372D01*
X1361016Y-732372D01*
X1361016Y-300000D01*
X1359538Y-285000D01*
X4140462Y-285000D01*
X4138984Y-300000D01*
M02*
