G04 #@! TF.GenerationSoftware,KiCad,Pcbnew,(2017-04-18 revision 68a7a52)-master*
G04 #@! TF.CreationDate,2017-12-22T10:09:43+08:00*
G04 #@! TF.ProjectId,cdctl_bx,636463746C5F62782E6B696361645F70,rev?*
G04 #@! TF.FileFunction,Legend,Bot*
G04 #@! TF.FilePolarity,Positive*
%FSLAX46Y46*%
G04 Gerber Fmt 4.6, Leading zero omitted, Abs format (unit mm)*
G04 Created by KiCad (PCBNEW (2017-04-18 revision 68a7a52)-master) date Fri Dec 22 10:09:43 2017*
%MOMM*%
%LPD*%
G01*
G04 APERTURE LIST*
%ADD10C,0.100000*%
%ADD11C,0.200000*%
G04 APERTURE END LIST*
D10*
D11*
X3285714Y-1245238D02*
X3357142Y-1192857D01*
X3428571Y-1035714D01*
X3428571Y-930952D01*
X3357142Y-773809D01*
X3214285Y-669047D01*
X3071428Y-616666D01*
X2785714Y-564285D01*
X2571428Y-564285D01*
X2285714Y-616666D01*
X2142857Y-669047D01*
X2000000Y-773809D01*
X1928571Y-930952D01*
X1928571Y-1035714D01*
X2000000Y-1192857D01*
X2071428Y-1245238D01*
X3428571Y-1716666D02*
X1928571Y-1716666D01*
X1928571Y-1978571D01*
X2000000Y-2135714D01*
X2142857Y-2240476D01*
X2285714Y-2292857D01*
X2571428Y-2345238D01*
X2785714Y-2345238D01*
X3071428Y-2292857D01*
X3214285Y-2240476D01*
X3357142Y-2135714D01*
X3428571Y-1978571D01*
X3428571Y-1716666D01*
X2428571Y-3288095D02*
X3428571Y-3288095D01*
X1857142Y-3026190D02*
X2928571Y-2764285D01*
X2928571Y-3445238D01*
X2571428Y-4021428D02*
X2500000Y-3916666D01*
X2428571Y-3864285D01*
X2285714Y-3811904D01*
X2214285Y-3811904D01*
X2071428Y-3864285D01*
X2000000Y-3916666D01*
X1928571Y-4021428D01*
X1928571Y-4230952D01*
X2000000Y-4335714D01*
X2071428Y-4388095D01*
X2214285Y-4440476D01*
X2285714Y-4440476D01*
X2428571Y-4388095D01*
X2500000Y-4335714D01*
X2571428Y-4230952D01*
X2571428Y-4021428D01*
X2642857Y-3916666D01*
X2714285Y-3864285D01*
X2857142Y-3811904D01*
X3142857Y-3811904D01*
X3285714Y-3864285D01*
X3357142Y-3916666D01*
X3428571Y-4021428D01*
X3428571Y-4230952D01*
X3357142Y-4335714D01*
X3285714Y-4388095D01*
X3142857Y-4440476D01*
X2857142Y-4440476D01*
X2714285Y-4388095D01*
X2642857Y-4335714D01*
X2571428Y-4230952D01*
X1928571Y-5435714D02*
X1928571Y-4911904D01*
X2642857Y-4859523D01*
X2571428Y-4911904D01*
X2500000Y-5016666D01*
X2500000Y-5278571D01*
X2571428Y-5383333D01*
X2642857Y-5435714D01*
X2785714Y-5488095D01*
X3142857Y-5488095D01*
X3285714Y-5435714D01*
X3357142Y-5383333D01*
X3428571Y-5278571D01*
X3428571Y-5016666D01*
X3357142Y-4911904D01*
X3285714Y-4859523D01*
X2642857Y-6326190D02*
X2714285Y-6483333D01*
X2785714Y-6535714D01*
X2928571Y-6588095D01*
X3142857Y-6588095D01*
X3285714Y-6535714D01*
X3357142Y-6483333D01*
X3428571Y-6378571D01*
X3428571Y-5959523D01*
X1928571Y-5959523D01*
X1928571Y-6326190D01*
X2000000Y-6430952D01*
X2071428Y-6483333D01*
X2214285Y-6535714D01*
X2357142Y-6535714D01*
X2500000Y-6483333D01*
X2571428Y-6430952D01*
X2642857Y-6326190D01*
X2642857Y-5959523D01*
X3428571Y-7635714D02*
X3428571Y-7007142D01*
X3428571Y-7321428D02*
X1928571Y-7321428D01*
X2142857Y-7216666D01*
X2285714Y-7111904D01*
X2357142Y-7007142D01*
M02*
