G04 #@! TF.GenerationSoftware,KiCad,Pcbnew,(2017-04-18 revision 68a7a52)-master*
G04 #@! TF.CreationDate,2017-12-22T10:09:43+08:00*
G04 #@! TF.ProjectId,cdctl_bx,636463746C5F62782E6B696361645F70,rev?*
G04 #@! TF.FileFunction,Paste,Top*
G04 #@! TF.FilePolarity,Positive*
%FSLAX46Y46*%
G04 Gerber Fmt 4.6, Leading zero omitted, Abs format (unit mm)*
G04 Created by KiCad (PCBNEW (2017-04-18 revision 68a7a52)-master) date Fri Dec 22 10:09:43 2017*
%MOMM*%
%LPD*%
G01*
G04 APERTURE LIST*
%ADD10C,0.100000*%
%ADD11C,0.230000*%
%ADD12R,0.900000X0.800000*%
%ADD13C,0.200000*%
%ADD14C,0.300000*%
G04 APERTURE END LIST*
D10*
D11*
X4325000Y-2950000D03*
X3925000Y-2950000D03*
X3525000Y-2950000D03*
X3125000Y-2950000D03*
X2725000Y-2950000D03*
X2325000Y-2950000D03*
X4325000Y-2550000D03*
X3925000Y-2550000D03*
X3525000Y-2550000D03*
X3125000Y-2550000D03*
X2725000Y-2550000D03*
X2325000Y-2550000D03*
X4325000Y-2150000D03*
X3925000Y-2150000D03*
X3525000Y-2150000D03*
X3125000Y-2150000D03*
X2725000Y-2150000D03*
X2325000Y-2150000D03*
X4325000Y-1750000D03*
X3925000Y-1750000D03*
X3525000Y-1750000D03*
X3125000Y-1750000D03*
X2725000Y-1750000D03*
X2325000Y-1750000D03*
X4325000Y-1350000D03*
X3925000Y-1350000D03*
X3525000Y-1350000D03*
X3125000Y-1350000D03*
X2725000Y-1350000D03*
X2325000Y-1350000D03*
X4325000Y-950000D03*
X3925000Y-950000D03*
X3525000Y-950000D03*
X3125000Y-950000D03*
X2725000Y-950000D03*
X2325000Y-950000D03*
D12*
X2475000Y-4750000D03*
X2475000Y-5850000D03*
X3875000Y-4750000D03*
X3875000Y-5850000D03*
D13*
X2000000Y-7600000D03*
X2000000Y-7250000D03*
X1650000Y-7600000D03*
X1650000Y-7250000D03*
D10*
G36*
X1036470Y-625072D02*
X1037926Y-625288D01*
X1039354Y-625646D01*
X1040740Y-626142D01*
X1042071Y-626771D01*
X1043334Y-627528D01*
X1044516Y-628405D01*
X1045607Y-629393D01*
X1046595Y-630484D01*
X1047472Y-631666D01*
X1048229Y-632929D01*
X1048858Y-634260D01*
X1049354Y-635646D01*
X1049712Y-637074D01*
X1049928Y-638530D01*
X1050000Y-640000D01*
X1050000Y-910000D01*
X1049928Y-911470D01*
X1049712Y-912926D01*
X1049354Y-914354D01*
X1048858Y-915740D01*
X1048229Y-917071D01*
X1047472Y-918334D01*
X1046595Y-919516D01*
X1045607Y-920607D01*
X1044516Y-921595D01*
X1043334Y-922472D01*
X1042071Y-923229D01*
X1040740Y-923858D01*
X1039354Y-924354D01*
X1037926Y-924712D01*
X1036470Y-924928D01*
X1035000Y-925000D01*
X715000Y-925000D01*
X713530Y-924928D01*
X712074Y-924712D01*
X710646Y-924354D01*
X709260Y-923858D01*
X707929Y-923229D01*
X706666Y-922472D01*
X705484Y-921595D01*
X704393Y-920607D01*
X703405Y-919516D01*
X702528Y-918334D01*
X701771Y-917071D01*
X701142Y-915740D01*
X700646Y-914354D01*
X700288Y-912926D01*
X700072Y-911470D01*
X700000Y-910000D01*
X700000Y-640000D01*
X700072Y-638530D01*
X700288Y-637074D01*
X700646Y-635646D01*
X701142Y-634260D01*
X701771Y-632929D01*
X702528Y-631666D01*
X703405Y-630484D01*
X704393Y-629393D01*
X705484Y-628405D01*
X706666Y-627528D01*
X707929Y-626771D01*
X709260Y-626142D01*
X710646Y-625646D01*
X712074Y-625288D01*
X713530Y-625072D01*
X715000Y-625000D01*
X1035000Y-625000D01*
X1036470Y-625072D01*
X1036470Y-625072D01*
G37*
D14*
X875000Y-775000D03*
D10*
G36*
X1636470Y-625072D02*
X1637926Y-625288D01*
X1639354Y-625646D01*
X1640740Y-626142D01*
X1642071Y-626771D01*
X1643334Y-627528D01*
X1644516Y-628405D01*
X1645607Y-629393D01*
X1646595Y-630484D01*
X1647472Y-631666D01*
X1648229Y-632929D01*
X1648858Y-634260D01*
X1649354Y-635646D01*
X1649712Y-637074D01*
X1649928Y-638530D01*
X1650000Y-640000D01*
X1650000Y-910000D01*
X1649928Y-911470D01*
X1649712Y-912926D01*
X1649354Y-914354D01*
X1648858Y-915740D01*
X1648229Y-917071D01*
X1647472Y-918334D01*
X1646595Y-919516D01*
X1645607Y-920607D01*
X1644516Y-921595D01*
X1643334Y-922472D01*
X1642071Y-923229D01*
X1640740Y-923858D01*
X1639354Y-924354D01*
X1637926Y-924712D01*
X1636470Y-924928D01*
X1635000Y-925000D01*
X1315000Y-925000D01*
X1313530Y-924928D01*
X1312074Y-924712D01*
X1310646Y-924354D01*
X1309260Y-923858D01*
X1307929Y-923229D01*
X1306666Y-922472D01*
X1305484Y-921595D01*
X1304393Y-920607D01*
X1303405Y-919516D01*
X1302528Y-918334D01*
X1301771Y-917071D01*
X1301142Y-915740D01*
X1300646Y-914354D01*
X1300288Y-912926D01*
X1300072Y-911470D01*
X1300000Y-910000D01*
X1300000Y-640000D01*
X1300072Y-638530D01*
X1300288Y-637074D01*
X1300646Y-635646D01*
X1301142Y-634260D01*
X1301771Y-632929D01*
X1302528Y-631666D01*
X1303405Y-630484D01*
X1304393Y-629393D01*
X1305484Y-628405D01*
X1306666Y-627528D01*
X1307929Y-626771D01*
X1309260Y-626142D01*
X1310646Y-625646D01*
X1312074Y-625288D01*
X1313530Y-625072D01*
X1315000Y-625000D01*
X1635000Y-625000D01*
X1636470Y-625072D01*
X1636470Y-625072D01*
G37*
D14*
X1475000Y-775000D03*
D10*
G36*
X1036470Y-1850072D02*
X1037926Y-1850288D01*
X1039354Y-1850646D01*
X1040740Y-1851142D01*
X1042071Y-1851771D01*
X1043334Y-1852528D01*
X1044516Y-1853405D01*
X1045607Y-1854393D01*
X1046595Y-1855484D01*
X1047472Y-1856666D01*
X1048229Y-1857929D01*
X1048858Y-1859260D01*
X1049354Y-1860646D01*
X1049712Y-1862074D01*
X1049928Y-1863530D01*
X1050000Y-1865000D01*
X1050000Y-2135000D01*
X1049928Y-2136470D01*
X1049712Y-2137926D01*
X1049354Y-2139354D01*
X1048858Y-2140740D01*
X1048229Y-2142071D01*
X1047472Y-2143334D01*
X1046595Y-2144516D01*
X1045607Y-2145607D01*
X1044516Y-2146595D01*
X1043334Y-2147472D01*
X1042071Y-2148229D01*
X1040740Y-2148858D01*
X1039354Y-2149354D01*
X1037926Y-2149712D01*
X1036470Y-2149928D01*
X1035000Y-2150000D01*
X715000Y-2150000D01*
X713530Y-2149928D01*
X712074Y-2149712D01*
X710646Y-2149354D01*
X709260Y-2148858D01*
X707929Y-2148229D01*
X706666Y-2147472D01*
X705484Y-2146595D01*
X704393Y-2145607D01*
X703405Y-2144516D01*
X702528Y-2143334D01*
X701771Y-2142071D01*
X701142Y-2140740D01*
X700646Y-2139354D01*
X700288Y-2137926D01*
X700072Y-2136470D01*
X700000Y-2135000D01*
X700000Y-1865000D01*
X700072Y-1863530D01*
X700288Y-1862074D01*
X700646Y-1860646D01*
X701142Y-1859260D01*
X701771Y-1857929D01*
X702528Y-1856666D01*
X703405Y-1855484D01*
X704393Y-1854393D01*
X705484Y-1853405D01*
X706666Y-1852528D01*
X707929Y-1851771D01*
X709260Y-1851142D01*
X710646Y-1850646D01*
X712074Y-1850288D01*
X713530Y-1850072D01*
X715000Y-1850000D01*
X1035000Y-1850000D01*
X1036470Y-1850072D01*
X1036470Y-1850072D01*
G37*
D14*
X875000Y-2000000D03*
D10*
G36*
X1636470Y-1850072D02*
X1637926Y-1850288D01*
X1639354Y-1850646D01*
X1640740Y-1851142D01*
X1642071Y-1851771D01*
X1643334Y-1852528D01*
X1644516Y-1853405D01*
X1645607Y-1854393D01*
X1646595Y-1855484D01*
X1647472Y-1856666D01*
X1648229Y-1857929D01*
X1648858Y-1859260D01*
X1649354Y-1860646D01*
X1649712Y-1862074D01*
X1649928Y-1863530D01*
X1650000Y-1865000D01*
X1650000Y-2135000D01*
X1649928Y-2136470D01*
X1649712Y-2137926D01*
X1649354Y-2139354D01*
X1648858Y-2140740D01*
X1648229Y-2142071D01*
X1647472Y-2143334D01*
X1646595Y-2144516D01*
X1645607Y-2145607D01*
X1644516Y-2146595D01*
X1643334Y-2147472D01*
X1642071Y-2148229D01*
X1640740Y-2148858D01*
X1639354Y-2149354D01*
X1637926Y-2149712D01*
X1636470Y-2149928D01*
X1635000Y-2150000D01*
X1315000Y-2150000D01*
X1313530Y-2149928D01*
X1312074Y-2149712D01*
X1310646Y-2149354D01*
X1309260Y-2148858D01*
X1307929Y-2148229D01*
X1306666Y-2147472D01*
X1305484Y-2146595D01*
X1304393Y-2145607D01*
X1303405Y-2144516D01*
X1302528Y-2143334D01*
X1301771Y-2142071D01*
X1301142Y-2140740D01*
X1300646Y-2139354D01*
X1300288Y-2137926D01*
X1300072Y-2136470D01*
X1300000Y-2135000D01*
X1300000Y-1865000D01*
X1300072Y-1863530D01*
X1300288Y-1862074D01*
X1300646Y-1860646D01*
X1301142Y-1859260D01*
X1301771Y-1857929D01*
X1302528Y-1856666D01*
X1303405Y-1855484D01*
X1304393Y-1854393D01*
X1305484Y-1853405D01*
X1306666Y-1852528D01*
X1307929Y-1851771D01*
X1309260Y-1851142D01*
X1310646Y-1850646D01*
X1312074Y-1850288D01*
X1313530Y-1850072D01*
X1315000Y-1850000D01*
X1635000Y-1850000D01*
X1636470Y-1850072D01*
X1636470Y-1850072D01*
G37*
D14*
X1475000Y-2000000D03*
D10*
G36*
X1036470Y-2450072D02*
X1037926Y-2450288D01*
X1039354Y-2450646D01*
X1040740Y-2451142D01*
X1042071Y-2451771D01*
X1043334Y-2452528D01*
X1044516Y-2453405D01*
X1045607Y-2454393D01*
X1046595Y-2455484D01*
X1047472Y-2456666D01*
X1048229Y-2457929D01*
X1048858Y-2459260D01*
X1049354Y-2460646D01*
X1049712Y-2462074D01*
X1049928Y-2463530D01*
X1050000Y-2465000D01*
X1050000Y-2735000D01*
X1049928Y-2736470D01*
X1049712Y-2737926D01*
X1049354Y-2739354D01*
X1048858Y-2740740D01*
X1048229Y-2742071D01*
X1047472Y-2743334D01*
X1046595Y-2744516D01*
X1045607Y-2745607D01*
X1044516Y-2746595D01*
X1043334Y-2747472D01*
X1042071Y-2748229D01*
X1040740Y-2748858D01*
X1039354Y-2749354D01*
X1037926Y-2749712D01*
X1036470Y-2749928D01*
X1035000Y-2750000D01*
X715000Y-2750000D01*
X713530Y-2749928D01*
X712074Y-2749712D01*
X710646Y-2749354D01*
X709260Y-2748858D01*
X707929Y-2748229D01*
X706666Y-2747472D01*
X705484Y-2746595D01*
X704393Y-2745607D01*
X703405Y-2744516D01*
X702528Y-2743334D01*
X701771Y-2742071D01*
X701142Y-2740740D01*
X700646Y-2739354D01*
X700288Y-2737926D01*
X700072Y-2736470D01*
X700000Y-2735000D01*
X700000Y-2465000D01*
X700072Y-2463530D01*
X700288Y-2462074D01*
X700646Y-2460646D01*
X701142Y-2459260D01*
X701771Y-2457929D01*
X702528Y-2456666D01*
X703405Y-2455484D01*
X704393Y-2454393D01*
X705484Y-2453405D01*
X706666Y-2452528D01*
X707929Y-2451771D01*
X709260Y-2451142D01*
X710646Y-2450646D01*
X712074Y-2450288D01*
X713530Y-2450072D01*
X715000Y-2450000D01*
X1035000Y-2450000D01*
X1036470Y-2450072D01*
X1036470Y-2450072D01*
G37*
D14*
X875000Y-2600000D03*
D10*
G36*
X1636470Y-2450072D02*
X1637926Y-2450288D01*
X1639354Y-2450646D01*
X1640740Y-2451142D01*
X1642071Y-2451771D01*
X1643334Y-2452528D01*
X1644516Y-2453405D01*
X1645607Y-2454393D01*
X1646595Y-2455484D01*
X1647472Y-2456666D01*
X1648229Y-2457929D01*
X1648858Y-2459260D01*
X1649354Y-2460646D01*
X1649712Y-2462074D01*
X1649928Y-2463530D01*
X1650000Y-2465000D01*
X1650000Y-2735000D01*
X1649928Y-2736470D01*
X1649712Y-2737926D01*
X1649354Y-2739354D01*
X1648858Y-2740740D01*
X1648229Y-2742071D01*
X1647472Y-2743334D01*
X1646595Y-2744516D01*
X1645607Y-2745607D01*
X1644516Y-2746595D01*
X1643334Y-2747472D01*
X1642071Y-2748229D01*
X1640740Y-2748858D01*
X1639354Y-2749354D01*
X1637926Y-2749712D01*
X1636470Y-2749928D01*
X1635000Y-2750000D01*
X1315000Y-2750000D01*
X1313530Y-2749928D01*
X1312074Y-2749712D01*
X1310646Y-2749354D01*
X1309260Y-2748858D01*
X1307929Y-2748229D01*
X1306666Y-2747472D01*
X1305484Y-2746595D01*
X1304393Y-2745607D01*
X1303405Y-2744516D01*
X1302528Y-2743334D01*
X1301771Y-2742071D01*
X1301142Y-2740740D01*
X1300646Y-2739354D01*
X1300288Y-2737926D01*
X1300072Y-2736470D01*
X1300000Y-2735000D01*
X1300000Y-2465000D01*
X1300072Y-2463530D01*
X1300288Y-2462074D01*
X1300646Y-2460646D01*
X1301142Y-2459260D01*
X1301771Y-2457929D01*
X1302528Y-2456666D01*
X1303405Y-2455484D01*
X1304393Y-2454393D01*
X1305484Y-2453405D01*
X1306666Y-2452528D01*
X1307929Y-2451771D01*
X1309260Y-2451142D01*
X1310646Y-2450646D01*
X1312074Y-2450288D01*
X1313530Y-2450072D01*
X1315000Y-2450000D01*
X1635000Y-2450000D01*
X1636470Y-2450072D01*
X1636470Y-2450072D01*
G37*
D14*
X1475000Y-2600000D03*
D10*
G36*
X1061470Y-7550072D02*
X1062926Y-7550288D01*
X1064354Y-7550646D01*
X1065740Y-7551142D01*
X1067071Y-7551771D01*
X1068334Y-7552528D01*
X1069516Y-7553405D01*
X1070607Y-7554393D01*
X1071595Y-7555484D01*
X1072472Y-7556666D01*
X1073229Y-7557929D01*
X1073858Y-7559260D01*
X1074354Y-7560646D01*
X1074712Y-7562074D01*
X1074928Y-7563530D01*
X1075000Y-7565000D01*
X1075000Y-7885000D01*
X1074928Y-7886470D01*
X1074712Y-7887926D01*
X1074354Y-7889354D01*
X1073858Y-7890740D01*
X1073229Y-7892071D01*
X1072472Y-7893334D01*
X1071595Y-7894516D01*
X1070607Y-7895607D01*
X1069516Y-7896595D01*
X1068334Y-7897472D01*
X1067071Y-7898229D01*
X1065740Y-7898858D01*
X1064354Y-7899354D01*
X1062926Y-7899712D01*
X1061470Y-7899928D01*
X1060000Y-7900000D01*
X790000Y-7900000D01*
X788530Y-7899928D01*
X787074Y-7899712D01*
X785646Y-7899354D01*
X784260Y-7898858D01*
X782929Y-7898229D01*
X781666Y-7897472D01*
X780484Y-7896595D01*
X779393Y-7895607D01*
X778405Y-7894516D01*
X777528Y-7893334D01*
X776771Y-7892071D01*
X776142Y-7890740D01*
X775646Y-7889354D01*
X775288Y-7887926D01*
X775072Y-7886470D01*
X775000Y-7885000D01*
X775000Y-7565000D01*
X775072Y-7563530D01*
X775288Y-7562074D01*
X775646Y-7560646D01*
X776142Y-7559260D01*
X776771Y-7557929D01*
X777528Y-7556666D01*
X778405Y-7555484D01*
X779393Y-7554393D01*
X780484Y-7553405D01*
X781666Y-7552528D01*
X782929Y-7551771D01*
X784260Y-7551142D01*
X785646Y-7550646D01*
X787074Y-7550288D01*
X788530Y-7550072D01*
X790000Y-7550000D01*
X1060000Y-7550000D01*
X1061470Y-7550072D01*
X1061470Y-7550072D01*
G37*
D14*
X925000Y-7725000D03*
D10*
G36*
X1061470Y-6950072D02*
X1062926Y-6950288D01*
X1064354Y-6950646D01*
X1065740Y-6951142D01*
X1067071Y-6951771D01*
X1068334Y-6952528D01*
X1069516Y-6953405D01*
X1070607Y-6954393D01*
X1071595Y-6955484D01*
X1072472Y-6956666D01*
X1073229Y-6957929D01*
X1073858Y-6959260D01*
X1074354Y-6960646D01*
X1074712Y-6962074D01*
X1074928Y-6963530D01*
X1075000Y-6965000D01*
X1075000Y-7285000D01*
X1074928Y-7286470D01*
X1074712Y-7287926D01*
X1074354Y-7289354D01*
X1073858Y-7290740D01*
X1073229Y-7292071D01*
X1072472Y-7293334D01*
X1071595Y-7294516D01*
X1070607Y-7295607D01*
X1069516Y-7296595D01*
X1068334Y-7297472D01*
X1067071Y-7298229D01*
X1065740Y-7298858D01*
X1064354Y-7299354D01*
X1062926Y-7299712D01*
X1061470Y-7299928D01*
X1060000Y-7300000D01*
X790000Y-7300000D01*
X788530Y-7299928D01*
X787074Y-7299712D01*
X785646Y-7299354D01*
X784260Y-7298858D01*
X782929Y-7298229D01*
X781666Y-7297472D01*
X780484Y-7296595D01*
X779393Y-7295607D01*
X778405Y-7294516D01*
X777528Y-7293334D01*
X776771Y-7292071D01*
X776142Y-7290740D01*
X775646Y-7289354D01*
X775288Y-7287926D01*
X775072Y-7286470D01*
X775000Y-7285000D01*
X775000Y-6965000D01*
X775072Y-6963530D01*
X775288Y-6962074D01*
X775646Y-6960646D01*
X776142Y-6959260D01*
X776771Y-6957929D01*
X777528Y-6956666D01*
X778405Y-6955484D01*
X779393Y-6954393D01*
X780484Y-6953405D01*
X781666Y-6952528D01*
X782929Y-6951771D01*
X784260Y-6951142D01*
X785646Y-6950646D01*
X787074Y-6950288D01*
X788530Y-6950072D01*
X790000Y-6950000D01*
X1060000Y-6950000D01*
X1061470Y-6950072D01*
X1061470Y-6950072D01*
G37*
D14*
X925000Y-7125000D03*
D10*
G36*
X3486470Y-6975072D02*
X3487926Y-6975288D01*
X3489354Y-6975646D01*
X3490740Y-6976142D01*
X3492071Y-6976771D01*
X3493334Y-6977528D01*
X3494516Y-6978405D01*
X3495607Y-6979393D01*
X3496595Y-6980484D01*
X3497472Y-6981666D01*
X3498229Y-6982929D01*
X3498858Y-6984260D01*
X3499354Y-6985646D01*
X3499712Y-6987074D01*
X3499928Y-6988530D01*
X3500000Y-6990000D01*
X3500000Y-7260000D01*
X3499928Y-7261470D01*
X3499712Y-7262926D01*
X3499354Y-7264354D01*
X3498858Y-7265740D01*
X3498229Y-7267071D01*
X3497472Y-7268334D01*
X3496595Y-7269516D01*
X3495607Y-7270607D01*
X3494516Y-7271595D01*
X3493334Y-7272472D01*
X3492071Y-7273229D01*
X3490740Y-7273858D01*
X3489354Y-7274354D01*
X3487926Y-7274712D01*
X3486470Y-7274928D01*
X3485000Y-7275000D01*
X3165000Y-7275000D01*
X3163530Y-7274928D01*
X3162074Y-7274712D01*
X3160646Y-7274354D01*
X3159260Y-7273858D01*
X3157929Y-7273229D01*
X3156666Y-7272472D01*
X3155484Y-7271595D01*
X3154393Y-7270607D01*
X3153405Y-7269516D01*
X3152528Y-7268334D01*
X3151771Y-7267071D01*
X3151142Y-7265740D01*
X3150646Y-7264354D01*
X3150288Y-7262926D01*
X3150072Y-7261470D01*
X3150000Y-7260000D01*
X3150000Y-6990000D01*
X3150072Y-6988530D01*
X3150288Y-6987074D01*
X3150646Y-6985646D01*
X3151142Y-6984260D01*
X3151771Y-6982929D01*
X3152528Y-6981666D01*
X3153405Y-6980484D01*
X3154393Y-6979393D01*
X3155484Y-6978405D01*
X3156666Y-6977528D01*
X3157929Y-6976771D01*
X3159260Y-6976142D01*
X3160646Y-6975646D01*
X3162074Y-6975288D01*
X3163530Y-6975072D01*
X3165000Y-6975000D01*
X3485000Y-6975000D01*
X3486470Y-6975072D01*
X3486470Y-6975072D01*
G37*
D14*
X3325000Y-7125000D03*
D10*
G36*
X2886470Y-6975072D02*
X2887926Y-6975288D01*
X2889354Y-6975646D01*
X2890740Y-6976142D01*
X2892071Y-6976771D01*
X2893334Y-6977528D01*
X2894516Y-6978405D01*
X2895607Y-6979393D01*
X2896595Y-6980484D01*
X2897472Y-6981666D01*
X2898229Y-6982929D01*
X2898858Y-6984260D01*
X2899354Y-6985646D01*
X2899712Y-6987074D01*
X2899928Y-6988530D01*
X2900000Y-6990000D01*
X2900000Y-7260000D01*
X2899928Y-7261470D01*
X2899712Y-7262926D01*
X2899354Y-7264354D01*
X2898858Y-7265740D01*
X2898229Y-7267071D01*
X2897472Y-7268334D01*
X2896595Y-7269516D01*
X2895607Y-7270607D01*
X2894516Y-7271595D01*
X2893334Y-7272472D01*
X2892071Y-7273229D01*
X2890740Y-7273858D01*
X2889354Y-7274354D01*
X2887926Y-7274712D01*
X2886470Y-7274928D01*
X2885000Y-7275000D01*
X2565000Y-7275000D01*
X2563530Y-7274928D01*
X2562074Y-7274712D01*
X2560646Y-7274354D01*
X2559260Y-7273858D01*
X2557929Y-7273229D01*
X2556666Y-7272472D01*
X2555484Y-7271595D01*
X2554393Y-7270607D01*
X2553405Y-7269516D01*
X2552528Y-7268334D01*
X2551771Y-7267071D01*
X2551142Y-7265740D01*
X2550646Y-7264354D01*
X2550288Y-7262926D01*
X2550072Y-7261470D01*
X2550000Y-7260000D01*
X2550000Y-6990000D01*
X2550072Y-6988530D01*
X2550288Y-6987074D01*
X2550646Y-6985646D01*
X2551142Y-6984260D01*
X2551771Y-6982929D01*
X2552528Y-6981666D01*
X2553405Y-6980484D01*
X2554393Y-6979393D01*
X2555484Y-6978405D01*
X2556666Y-6977528D01*
X2557929Y-6976771D01*
X2559260Y-6976142D01*
X2560646Y-6975646D01*
X2562074Y-6975288D01*
X2563530Y-6975072D01*
X2565000Y-6975000D01*
X2885000Y-6975000D01*
X2886470Y-6975072D01*
X2886470Y-6975072D01*
G37*
D14*
X2725000Y-7125000D03*
D10*
G36*
X1611470Y-5425072D02*
X1612926Y-5425288D01*
X1614354Y-5425646D01*
X1615740Y-5426142D01*
X1617071Y-5426771D01*
X1618334Y-5427528D01*
X1619516Y-5428405D01*
X1620607Y-5429393D01*
X1621595Y-5430484D01*
X1622472Y-5431666D01*
X1623229Y-5432929D01*
X1623858Y-5434260D01*
X1624354Y-5435646D01*
X1624712Y-5437074D01*
X1624928Y-5438530D01*
X1625000Y-5440000D01*
X1625000Y-5760000D01*
X1624928Y-5761470D01*
X1624712Y-5762926D01*
X1624354Y-5764354D01*
X1623858Y-5765740D01*
X1623229Y-5767071D01*
X1622472Y-5768334D01*
X1621595Y-5769516D01*
X1620607Y-5770607D01*
X1619516Y-5771595D01*
X1618334Y-5772472D01*
X1617071Y-5773229D01*
X1615740Y-5773858D01*
X1614354Y-5774354D01*
X1612926Y-5774712D01*
X1611470Y-5774928D01*
X1610000Y-5775000D01*
X1340000Y-5775000D01*
X1338530Y-5774928D01*
X1337074Y-5774712D01*
X1335646Y-5774354D01*
X1334260Y-5773858D01*
X1332929Y-5773229D01*
X1331666Y-5772472D01*
X1330484Y-5771595D01*
X1329393Y-5770607D01*
X1328405Y-5769516D01*
X1327528Y-5768334D01*
X1326771Y-5767071D01*
X1326142Y-5765740D01*
X1325646Y-5764354D01*
X1325288Y-5762926D01*
X1325072Y-5761470D01*
X1325000Y-5760000D01*
X1325000Y-5440000D01*
X1325072Y-5438530D01*
X1325288Y-5437074D01*
X1325646Y-5435646D01*
X1326142Y-5434260D01*
X1326771Y-5432929D01*
X1327528Y-5431666D01*
X1328405Y-5430484D01*
X1329393Y-5429393D01*
X1330484Y-5428405D01*
X1331666Y-5427528D01*
X1332929Y-5426771D01*
X1334260Y-5426142D01*
X1335646Y-5425646D01*
X1337074Y-5425288D01*
X1338530Y-5425072D01*
X1340000Y-5425000D01*
X1610000Y-5425000D01*
X1611470Y-5425072D01*
X1611470Y-5425072D01*
G37*
D14*
X1475000Y-5600000D03*
D10*
G36*
X1611470Y-4825072D02*
X1612926Y-4825288D01*
X1614354Y-4825646D01*
X1615740Y-4826142D01*
X1617071Y-4826771D01*
X1618334Y-4827528D01*
X1619516Y-4828405D01*
X1620607Y-4829393D01*
X1621595Y-4830484D01*
X1622472Y-4831666D01*
X1623229Y-4832929D01*
X1623858Y-4834260D01*
X1624354Y-4835646D01*
X1624712Y-4837074D01*
X1624928Y-4838530D01*
X1625000Y-4840000D01*
X1625000Y-5160000D01*
X1624928Y-5161470D01*
X1624712Y-5162926D01*
X1624354Y-5164354D01*
X1623858Y-5165740D01*
X1623229Y-5167071D01*
X1622472Y-5168334D01*
X1621595Y-5169516D01*
X1620607Y-5170607D01*
X1619516Y-5171595D01*
X1618334Y-5172472D01*
X1617071Y-5173229D01*
X1615740Y-5173858D01*
X1614354Y-5174354D01*
X1612926Y-5174712D01*
X1611470Y-5174928D01*
X1610000Y-5175000D01*
X1340000Y-5175000D01*
X1338530Y-5174928D01*
X1337074Y-5174712D01*
X1335646Y-5174354D01*
X1334260Y-5173858D01*
X1332929Y-5173229D01*
X1331666Y-5172472D01*
X1330484Y-5171595D01*
X1329393Y-5170607D01*
X1328405Y-5169516D01*
X1327528Y-5168334D01*
X1326771Y-5167071D01*
X1326142Y-5165740D01*
X1325646Y-5164354D01*
X1325288Y-5162926D01*
X1325072Y-5161470D01*
X1325000Y-5160000D01*
X1325000Y-4840000D01*
X1325072Y-4838530D01*
X1325288Y-4837074D01*
X1325646Y-4835646D01*
X1326142Y-4834260D01*
X1326771Y-4832929D01*
X1327528Y-4831666D01*
X1328405Y-4830484D01*
X1329393Y-4829393D01*
X1330484Y-4828405D01*
X1331666Y-4827528D01*
X1332929Y-4826771D01*
X1334260Y-4826142D01*
X1335646Y-4825646D01*
X1337074Y-4825288D01*
X1338530Y-4825072D01*
X1340000Y-4825000D01*
X1610000Y-4825000D01*
X1611470Y-4825072D01*
X1611470Y-4825072D01*
G37*
D14*
X1475000Y-5000000D03*
D10*
G36*
X4036470Y-3650072D02*
X4037926Y-3650288D01*
X4039354Y-3650646D01*
X4040740Y-3651142D01*
X4042071Y-3651771D01*
X4043334Y-3652528D01*
X4044516Y-3653405D01*
X4045607Y-3654393D01*
X4046595Y-3655484D01*
X4047472Y-3656666D01*
X4048229Y-3657929D01*
X4048858Y-3659260D01*
X4049354Y-3660646D01*
X4049712Y-3662074D01*
X4049928Y-3663530D01*
X4050000Y-3665000D01*
X4050000Y-3935000D01*
X4049928Y-3936470D01*
X4049712Y-3937926D01*
X4049354Y-3939354D01*
X4048858Y-3940740D01*
X4048229Y-3942071D01*
X4047472Y-3943334D01*
X4046595Y-3944516D01*
X4045607Y-3945607D01*
X4044516Y-3946595D01*
X4043334Y-3947472D01*
X4042071Y-3948229D01*
X4040740Y-3948858D01*
X4039354Y-3949354D01*
X4037926Y-3949712D01*
X4036470Y-3949928D01*
X4035000Y-3950000D01*
X3715000Y-3950000D01*
X3713530Y-3949928D01*
X3712074Y-3949712D01*
X3710646Y-3949354D01*
X3709260Y-3948858D01*
X3707929Y-3948229D01*
X3706666Y-3947472D01*
X3705484Y-3946595D01*
X3704393Y-3945607D01*
X3703405Y-3944516D01*
X3702528Y-3943334D01*
X3701771Y-3942071D01*
X3701142Y-3940740D01*
X3700646Y-3939354D01*
X3700288Y-3937926D01*
X3700072Y-3936470D01*
X3700000Y-3935000D01*
X3700000Y-3665000D01*
X3700072Y-3663530D01*
X3700288Y-3662074D01*
X3700646Y-3660646D01*
X3701142Y-3659260D01*
X3701771Y-3657929D01*
X3702528Y-3656666D01*
X3703405Y-3655484D01*
X3704393Y-3654393D01*
X3705484Y-3653405D01*
X3706666Y-3652528D01*
X3707929Y-3651771D01*
X3709260Y-3651142D01*
X3710646Y-3650646D01*
X3712074Y-3650288D01*
X3713530Y-3650072D01*
X3715000Y-3650000D01*
X4035000Y-3650000D01*
X4036470Y-3650072D01*
X4036470Y-3650072D01*
G37*
D14*
X3875000Y-3800000D03*
D10*
G36*
X3436470Y-3650072D02*
X3437926Y-3650288D01*
X3439354Y-3650646D01*
X3440740Y-3651142D01*
X3442071Y-3651771D01*
X3443334Y-3652528D01*
X3444516Y-3653405D01*
X3445607Y-3654393D01*
X3446595Y-3655484D01*
X3447472Y-3656666D01*
X3448229Y-3657929D01*
X3448858Y-3659260D01*
X3449354Y-3660646D01*
X3449712Y-3662074D01*
X3449928Y-3663530D01*
X3450000Y-3665000D01*
X3450000Y-3935000D01*
X3449928Y-3936470D01*
X3449712Y-3937926D01*
X3449354Y-3939354D01*
X3448858Y-3940740D01*
X3448229Y-3942071D01*
X3447472Y-3943334D01*
X3446595Y-3944516D01*
X3445607Y-3945607D01*
X3444516Y-3946595D01*
X3443334Y-3947472D01*
X3442071Y-3948229D01*
X3440740Y-3948858D01*
X3439354Y-3949354D01*
X3437926Y-3949712D01*
X3436470Y-3949928D01*
X3435000Y-3950000D01*
X3115000Y-3950000D01*
X3113530Y-3949928D01*
X3112074Y-3949712D01*
X3110646Y-3949354D01*
X3109260Y-3948858D01*
X3107929Y-3948229D01*
X3106666Y-3947472D01*
X3105484Y-3946595D01*
X3104393Y-3945607D01*
X3103405Y-3944516D01*
X3102528Y-3943334D01*
X3101771Y-3942071D01*
X3101142Y-3940740D01*
X3100646Y-3939354D01*
X3100288Y-3937926D01*
X3100072Y-3936470D01*
X3100000Y-3935000D01*
X3100000Y-3665000D01*
X3100072Y-3663530D01*
X3100288Y-3662074D01*
X3100646Y-3660646D01*
X3101142Y-3659260D01*
X3101771Y-3657929D01*
X3102528Y-3656666D01*
X3103405Y-3655484D01*
X3104393Y-3654393D01*
X3105484Y-3653405D01*
X3106666Y-3652528D01*
X3107929Y-3651771D01*
X3109260Y-3651142D01*
X3110646Y-3650646D01*
X3112074Y-3650288D01*
X3113530Y-3650072D01*
X3115000Y-3650000D01*
X3435000Y-3650000D01*
X3436470Y-3650072D01*
X3436470Y-3650072D01*
G37*
D14*
X3275000Y-3800000D03*
D10*
G36*
X4611470Y-7425072D02*
X4612926Y-7425288D01*
X4614354Y-7425646D01*
X4615740Y-7426142D01*
X4617071Y-7426771D01*
X4618334Y-7427528D01*
X4619516Y-7428405D01*
X4620607Y-7429393D01*
X4621595Y-7430484D01*
X4622472Y-7431666D01*
X4623229Y-7432929D01*
X4623858Y-7434260D01*
X4624354Y-7435646D01*
X4624712Y-7437074D01*
X4624928Y-7438530D01*
X4625000Y-7440000D01*
X4625000Y-7760000D01*
X4624928Y-7761470D01*
X4624712Y-7762926D01*
X4624354Y-7764354D01*
X4623858Y-7765740D01*
X4623229Y-7767071D01*
X4622472Y-7768334D01*
X4621595Y-7769516D01*
X4620607Y-7770607D01*
X4619516Y-7771595D01*
X4618334Y-7772472D01*
X4617071Y-7773229D01*
X4615740Y-7773858D01*
X4614354Y-7774354D01*
X4612926Y-7774712D01*
X4611470Y-7774928D01*
X4610000Y-7775000D01*
X4340000Y-7775000D01*
X4338530Y-7774928D01*
X4337074Y-7774712D01*
X4335646Y-7774354D01*
X4334260Y-7773858D01*
X4332929Y-7773229D01*
X4331666Y-7772472D01*
X4330484Y-7771595D01*
X4329393Y-7770607D01*
X4328405Y-7769516D01*
X4327528Y-7768334D01*
X4326771Y-7767071D01*
X4326142Y-7765740D01*
X4325646Y-7764354D01*
X4325288Y-7762926D01*
X4325072Y-7761470D01*
X4325000Y-7760000D01*
X4325000Y-7440000D01*
X4325072Y-7438530D01*
X4325288Y-7437074D01*
X4325646Y-7435646D01*
X4326142Y-7434260D01*
X4326771Y-7432929D01*
X4327528Y-7431666D01*
X4328405Y-7430484D01*
X4329393Y-7429393D01*
X4330484Y-7428405D01*
X4331666Y-7427528D01*
X4332929Y-7426771D01*
X4334260Y-7426142D01*
X4335646Y-7425646D01*
X4337074Y-7425288D01*
X4338530Y-7425072D01*
X4340000Y-7425000D01*
X4610000Y-7425000D01*
X4611470Y-7425072D01*
X4611470Y-7425072D01*
G37*
D14*
X4475000Y-7600000D03*
D10*
G36*
X4611470Y-6825072D02*
X4612926Y-6825288D01*
X4614354Y-6825646D01*
X4615740Y-6826142D01*
X4617071Y-6826771D01*
X4618334Y-6827528D01*
X4619516Y-6828405D01*
X4620607Y-6829393D01*
X4621595Y-6830484D01*
X4622472Y-6831666D01*
X4623229Y-6832929D01*
X4623858Y-6834260D01*
X4624354Y-6835646D01*
X4624712Y-6837074D01*
X4624928Y-6838530D01*
X4625000Y-6840000D01*
X4625000Y-7160000D01*
X4624928Y-7161470D01*
X4624712Y-7162926D01*
X4624354Y-7164354D01*
X4623858Y-7165740D01*
X4623229Y-7167071D01*
X4622472Y-7168334D01*
X4621595Y-7169516D01*
X4620607Y-7170607D01*
X4619516Y-7171595D01*
X4618334Y-7172472D01*
X4617071Y-7173229D01*
X4615740Y-7173858D01*
X4614354Y-7174354D01*
X4612926Y-7174712D01*
X4611470Y-7174928D01*
X4610000Y-7175000D01*
X4340000Y-7175000D01*
X4338530Y-7174928D01*
X4337074Y-7174712D01*
X4335646Y-7174354D01*
X4334260Y-7173858D01*
X4332929Y-7173229D01*
X4331666Y-7172472D01*
X4330484Y-7171595D01*
X4329393Y-7170607D01*
X4328405Y-7169516D01*
X4327528Y-7168334D01*
X4326771Y-7167071D01*
X4326142Y-7165740D01*
X4325646Y-7164354D01*
X4325288Y-7162926D01*
X4325072Y-7161470D01*
X4325000Y-7160000D01*
X4325000Y-6840000D01*
X4325072Y-6838530D01*
X4325288Y-6837074D01*
X4325646Y-6835646D01*
X4326142Y-6834260D01*
X4326771Y-6832929D01*
X4327528Y-6831666D01*
X4328405Y-6830484D01*
X4329393Y-6829393D01*
X4330484Y-6828405D01*
X4331666Y-6827528D01*
X4332929Y-6826771D01*
X4334260Y-6826142D01*
X4335646Y-6825646D01*
X4337074Y-6825288D01*
X4338530Y-6825072D01*
X4340000Y-6825000D01*
X4610000Y-6825000D01*
X4611470Y-6825072D01*
X4611470Y-6825072D01*
G37*
D14*
X4475000Y-7000000D03*
D10*
G36*
X1611470Y-4225072D02*
X1612926Y-4225288D01*
X1614354Y-4225646D01*
X1615740Y-4226142D01*
X1617071Y-4226771D01*
X1618334Y-4227528D01*
X1619516Y-4228405D01*
X1620607Y-4229393D01*
X1621595Y-4230484D01*
X1622472Y-4231666D01*
X1623229Y-4232929D01*
X1623858Y-4234260D01*
X1624354Y-4235646D01*
X1624712Y-4237074D01*
X1624928Y-4238530D01*
X1625000Y-4240000D01*
X1625000Y-4560000D01*
X1624928Y-4561470D01*
X1624712Y-4562926D01*
X1624354Y-4564354D01*
X1623858Y-4565740D01*
X1623229Y-4567071D01*
X1622472Y-4568334D01*
X1621595Y-4569516D01*
X1620607Y-4570607D01*
X1619516Y-4571595D01*
X1618334Y-4572472D01*
X1617071Y-4573229D01*
X1615740Y-4573858D01*
X1614354Y-4574354D01*
X1612926Y-4574712D01*
X1611470Y-4574928D01*
X1610000Y-4575000D01*
X1340000Y-4575000D01*
X1338530Y-4574928D01*
X1337074Y-4574712D01*
X1335646Y-4574354D01*
X1334260Y-4573858D01*
X1332929Y-4573229D01*
X1331666Y-4572472D01*
X1330484Y-4571595D01*
X1329393Y-4570607D01*
X1328405Y-4569516D01*
X1327528Y-4568334D01*
X1326771Y-4567071D01*
X1326142Y-4565740D01*
X1325646Y-4564354D01*
X1325288Y-4562926D01*
X1325072Y-4561470D01*
X1325000Y-4560000D01*
X1325000Y-4240000D01*
X1325072Y-4238530D01*
X1325288Y-4237074D01*
X1325646Y-4235646D01*
X1326142Y-4234260D01*
X1326771Y-4232929D01*
X1327528Y-4231666D01*
X1328405Y-4230484D01*
X1329393Y-4229393D01*
X1330484Y-4228405D01*
X1331666Y-4227528D01*
X1332929Y-4226771D01*
X1334260Y-4226142D01*
X1335646Y-4225646D01*
X1337074Y-4225288D01*
X1338530Y-4225072D01*
X1340000Y-4225000D01*
X1610000Y-4225000D01*
X1611470Y-4225072D01*
X1611470Y-4225072D01*
G37*
D14*
X1475000Y-4400000D03*
D10*
G36*
X1611470Y-3625072D02*
X1612926Y-3625288D01*
X1614354Y-3625646D01*
X1615740Y-3626142D01*
X1617071Y-3626771D01*
X1618334Y-3627528D01*
X1619516Y-3628405D01*
X1620607Y-3629393D01*
X1621595Y-3630484D01*
X1622472Y-3631666D01*
X1623229Y-3632929D01*
X1623858Y-3634260D01*
X1624354Y-3635646D01*
X1624712Y-3637074D01*
X1624928Y-3638530D01*
X1625000Y-3640000D01*
X1625000Y-3960000D01*
X1624928Y-3961470D01*
X1624712Y-3962926D01*
X1624354Y-3964354D01*
X1623858Y-3965740D01*
X1623229Y-3967071D01*
X1622472Y-3968334D01*
X1621595Y-3969516D01*
X1620607Y-3970607D01*
X1619516Y-3971595D01*
X1618334Y-3972472D01*
X1617071Y-3973229D01*
X1615740Y-3973858D01*
X1614354Y-3974354D01*
X1612926Y-3974712D01*
X1611470Y-3974928D01*
X1610000Y-3975000D01*
X1340000Y-3975000D01*
X1338530Y-3974928D01*
X1337074Y-3974712D01*
X1335646Y-3974354D01*
X1334260Y-3973858D01*
X1332929Y-3973229D01*
X1331666Y-3972472D01*
X1330484Y-3971595D01*
X1329393Y-3970607D01*
X1328405Y-3969516D01*
X1327528Y-3968334D01*
X1326771Y-3967071D01*
X1326142Y-3965740D01*
X1325646Y-3964354D01*
X1325288Y-3962926D01*
X1325072Y-3961470D01*
X1325000Y-3960000D01*
X1325000Y-3640000D01*
X1325072Y-3638530D01*
X1325288Y-3637074D01*
X1325646Y-3635646D01*
X1326142Y-3634260D01*
X1326771Y-3632929D01*
X1327528Y-3631666D01*
X1328405Y-3630484D01*
X1329393Y-3629393D01*
X1330484Y-3628405D01*
X1331666Y-3627528D01*
X1332929Y-3626771D01*
X1334260Y-3626142D01*
X1335646Y-3625646D01*
X1337074Y-3625288D01*
X1338530Y-3625072D01*
X1340000Y-3625000D01*
X1610000Y-3625000D01*
X1611470Y-3625072D01*
X1611470Y-3625072D01*
G37*
D14*
X1475000Y-3800000D03*
D10*
G36*
X2236470Y-3650072D02*
X2237926Y-3650288D01*
X2239354Y-3650646D01*
X2240740Y-3651142D01*
X2242071Y-3651771D01*
X2243334Y-3652528D01*
X2244516Y-3653405D01*
X2245607Y-3654393D01*
X2246595Y-3655484D01*
X2247472Y-3656666D01*
X2248229Y-3657929D01*
X2248858Y-3659260D01*
X2249354Y-3660646D01*
X2249712Y-3662074D01*
X2249928Y-3663530D01*
X2250000Y-3665000D01*
X2250000Y-3935000D01*
X2249928Y-3936470D01*
X2249712Y-3937926D01*
X2249354Y-3939354D01*
X2248858Y-3940740D01*
X2248229Y-3942071D01*
X2247472Y-3943334D01*
X2246595Y-3944516D01*
X2245607Y-3945607D01*
X2244516Y-3946595D01*
X2243334Y-3947472D01*
X2242071Y-3948229D01*
X2240740Y-3948858D01*
X2239354Y-3949354D01*
X2237926Y-3949712D01*
X2236470Y-3949928D01*
X2235000Y-3950000D01*
X1915000Y-3950000D01*
X1913530Y-3949928D01*
X1912074Y-3949712D01*
X1910646Y-3949354D01*
X1909260Y-3948858D01*
X1907929Y-3948229D01*
X1906666Y-3947472D01*
X1905484Y-3946595D01*
X1904393Y-3945607D01*
X1903405Y-3944516D01*
X1902528Y-3943334D01*
X1901771Y-3942071D01*
X1901142Y-3940740D01*
X1900646Y-3939354D01*
X1900288Y-3937926D01*
X1900072Y-3936470D01*
X1900000Y-3935000D01*
X1900000Y-3665000D01*
X1900072Y-3663530D01*
X1900288Y-3662074D01*
X1900646Y-3660646D01*
X1901142Y-3659260D01*
X1901771Y-3657929D01*
X1902528Y-3656666D01*
X1903405Y-3655484D01*
X1904393Y-3654393D01*
X1905484Y-3653405D01*
X1906666Y-3652528D01*
X1907929Y-3651771D01*
X1909260Y-3651142D01*
X1910646Y-3650646D01*
X1912074Y-3650288D01*
X1913530Y-3650072D01*
X1915000Y-3650000D01*
X2235000Y-3650000D01*
X2236470Y-3650072D01*
X2236470Y-3650072D01*
G37*
D14*
X2075000Y-3800000D03*
D10*
G36*
X2836470Y-3650072D02*
X2837926Y-3650288D01*
X2839354Y-3650646D01*
X2840740Y-3651142D01*
X2842071Y-3651771D01*
X2843334Y-3652528D01*
X2844516Y-3653405D01*
X2845607Y-3654393D01*
X2846595Y-3655484D01*
X2847472Y-3656666D01*
X2848229Y-3657929D01*
X2848858Y-3659260D01*
X2849354Y-3660646D01*
X2849712Y-3662074D01*
X2849928Y-3663530D01*
X2850000Y-3665000D01*
X2850000Y-3935000D01*
X2849928Y-3936470D01*
X2849712Y-3937926D01*
X2849354Y-3939354D01*
X2848858Y-3940740D01*
X2848229Y-3942071D01*
X2847472Y-3943334D01*
X2846595Y-3944516D01*
X2845607Y-3945607D01*
X2844516Y-3946595D01*
X2843334Y-3947472D01*
X2842071Y-3948229D01*
X2840740Y-3948858D01*
X2839354Y-3949354D01*
X2837926Y-3949712D01*
X2836470Y-3949928D01*
X2835000Y-3950000D01*
X2515000Y-3950000D01*
X2513530Y-3949928D01*
X2512074Y-3949712D01*
X2510646Y-3949354D01*
X2509260Y-3948858D01*
X2507929Y-3948229D01*
X2506666Y-3947472D01*
X2505484Y-3946595D01*
X2504393Y-3945607D01*
X2503405Y-3944516D01*
X2502528Y-3943334D01*
X2501771Y-3942071D01*
X2501142Y-3940740D01*
X2500646Y-3939354D01*
X2500288Y-3937926D01*
X2500072Y-3936470D01*
X2500000Y-3935000D01*
X2500000Y-3665000D01*
X2500072Y-3663530D01*
X2500288Y-3662074D01*
X2500646Y-3660646D01*
X2501142Y-3659260D01*
X2501771Y-3657929D01*
X2502528Y-3656666D01*
X2503405Y-3655484D01*
X2504393Y-3654393D01*
X2505484Y-3653405D01*
X2506666Y-3652528D01*
X2507929Y-3651771D01*
X2509260Y-3651142D01*
X2510646Y-3650646D01*
X2512074Y-3650288D01*
X2513530Y-3650072D01*
X2515000Y-3650000D01*
X2835000Y-3650000D01*
X2836470Y-3650072D01*
X2836470Y-3650072D01*
G37*
D14*
X2675000Y-3800000D03*
M02*
